<svg id="Layer_1" data-name="Layer 1" xmlns="http://www.w3.org/2000/svg" viewBox="0 0 1372 886.09"><defs><style>.cls-1{fill:#1b092d;}.cls-2{fill:#3f7f3f;}</style></defs><title>1</title><g id="_1" data-name=" 1"><path id="path5153" class="cls-1" d="M1374,730.12l-124.36-29.5L1126,712.29,935.12,691.8l-255.78,7.35L530.83,646.23l-186.69,7.35L217.72,600.66,2,621.24,0,886H1372Z"/><g id="layer115"><path id="path516" class="cls-2" d="M159.58,674.42l-3-.11-1.44-3.16a18.61,18.61,0,0,1-1.25-3.31,16,16,0,0,1,3.15,1.43c1.62.89,4.35,2.32,6.1,3.24a14,14,0,0,1,3.1,2c0,.15-.79.22-1.78.19Z"/><path id="path518" class="cls-2" d="M200.69,674.5c-1.71-.15-1.74-.15-2.77-2.39a13.83,13.83,0,0,1-.91-2.39c.16-.11,3.11,1.32,7.2,3.46,1,.55,1.78,1.1,1.78,1.28S204.17,674.76,200.69,674.5Z"/><path id="path520" class="cls-2" d="M199.93,669.57a27.24,27.24,0,0,1-3.26-1.91c-.45-.48-3.18-11.34-3.18-12.67a18.87,18.87,0,0,1,1.52-4.16c2.16-4.74,4-8.83,7.38-16.45a54.88,54.88,0,0,1,3.26-6.73c.15,0,.19.88.12,2-.19,2-1.52,26.09-1.86,34.3-.27,5.34-.49,7.18-.87,7.18A27,27,0,0,1,199.93,669.57Z"/><path id="path522" class="cls-2" d="M156.93,667.84a5.66,5.66,0,0,1-2.42-2.1c-.76-1.51-2.73-6.07-5-11.59-1.06-2.54-2.38-5.67-3-7-2.27-5-2.58-6.51-3.26-14.61l-.6-7.84,7.57-7.62c4.17-4.23,9.25-9.24,11.22-11.15l3.64-3.5v1.29c0,1.7-6,64.82-6.14,65A6.58,6.58,0,0,1,156.93,667.84Z"/><path id="path524" class="cls-2" d="M175.87,653c-5-.11-10.15-.26-11.44-.3H162v-1.77a4.72,4.72,0,0,1,.5-2.36,81,81,0,0,1,8.79-4.89c4.58-2.39,9.2-4.79,10.23-5.34s4.58-2.43,7.84-4.2,6-3.16,6.14-3.16,2-1,4.2-2.21c3.87-2.1,5-2.58,4.66-1.91-.49.88-6.74,14.79-8.64,19.21-.56,1.32-1.47,3.35-2,4.49a15,15,0,0,0-1,2.47C192.73,653.42,191.1,653.42,175.87,653Z"/><path id="path526" class="cls-2" d="M206,649.42c0-1,.16-4.31.34-7.44s.5-8,.61-10.75c.23-4,.38-5,.76-4.78.91.51,17.81,16.38,17.81,16.75s-4.74,2.2-18.65,7.61C206,651.17,206,651.09,206,649.42Z"/><path id="path528" class="cls-2" d="M143.44,648.7c-1.13-.55-3.26-1.51-4.73-2.17-6.18-2.76-12.43-5.52-17.39-7.66-2.92-1.29-8.53-3.75-12.51-5.48s-8.94-4-11.1-4.9-3.75-1.84-3.6-2a28.28,28.28,0,0,1,3.91-1.4c2-.62,3.94-1.33,4.35-1.51,1-.37,8.38-2.91,14-4.79,2.5-.84,5.23-1.76,6.06-2.09s3.41-1.18,5.69-2,6.89-2.35,10.23-3.49c18.11-6.22,23.37-8,23.52-7.81s-4.58,4.75-10.3,10.46l-10.42,10.38L142,633l.8,8.76,1.67,3.79c.9,2.1,1.66,3.9,1.66,4C146.13,649.88,145.56,649.66,143.44,648.7Z"/><path id="path530" class="cls-2" d="M162.61,645.06c.23-1.88,2.58-26.73,3.22-34.2.5-5.89.8-8.24,1.06-8.24A17,17,0,0,1,169,603.8c1.06.62,2.69,1.54,3.63,2.06s2.31,1.25,3,1.73c1.22.77,7.28,4.16,10.8,6.07.84.44,4,2.25,7,4,6,3.38,9.55,5.37,10.91,6,.84.41,1.14,1,.49,1a12.73,12.73,0,0,0-2.57,1.25c-1.21.67-4.24,2.25-6.75,3.54s-4.69,2.43-4.92,2.57-1.82,1-3.6,1.92-8,4.19-13.72,7.25-10.6,5.56-10.72,5.56A3.71,3.71,0,0,1,162.61,645.06Z"/><path id="path532" class="cls-2" d="M221.45,637.42c-2.35-2.21-4.32-4.12-4.39-4.27s1.13-.62,2.65-1.07,3.18-.92,3.71-1.1a49.58,49.58,0,0,1,7.43-1.77c.11.11-.08.78-.38,1.44s-1.37,3.24-2.35,5.67a42,42,0,0,1-2,4.74C225.88,641.23,223.84,639.57,221.45,637.42Z"/><path id="path534" class="cls-2" d="M241.42,639.72c-2.69-.81-5.46-1.66-6.14-1.91l-1.21-.45,3.29-1.4c6.33-2.72,5.61-2.61,6.63-1.06.5.77,1.52,2.5,2.28,3.9,1.1,2,1.25,2.47.72,2.43C246.65,641.19,244.15,640.53,241.42,639.72Z"/><path id="path536" class="cls-2" d="M116,639.57c-2.27-.51-5.61-1.21-7.39-1.62-10.23-2.13-28.37-6-31.63-6.81-2.09-.48-5.5-1.21-7.58-1.62-6-1.21-11.55-2.5-11.82-2.76s.19-.29,18.45.19c17.09.4,15.88.25,21.41,2.76,1.06.48,6.85,3,12.88,5.67s11.06,4.93,11.14,5C121.81,640.71,120,640.42,116,639.57Z"/><path id="path538" class="cls-2" d="M229.1,637.69c0-.66,3.49-8.94,3.72-8.79.53.29,4.51,2,6.63,2.8,1.21.44,2.08,1,1.89,1.1a43.53,43.53,0,0,1-4.47,2c-2.27.92-4.89,2-5.76,2.43C229.33,638,229.1,638.06,229.1,637.69Z"/><path id="path540" class="cls-2" d="M209,625.84c-2.38-2.06-5.07-3.82-10.34-6.81a49.84,49.84,0,0,1-6.89-4.19,5.27,5.27,0,0,1,1.63-.66c.75-.26,3.1-1.07,5.19-1.81s5.19-1.84,6.85-2.39l3.11-1,2,9.75c1.06,5.38,1.89,9.79,1.82,9.87A24.74,24.74,0,0,1,209,625.84Z"/><path id="path542" class="cls-2" d="M73,625.55c0-.33,6.93-4.16,7.5-4.16a12.09,12.09,0,0,1,2.31,2.21l2,2.21H78.92A33.23,33.23,0,0,1,73,625.55Z"/><path id="path544" class="cls-2" d="M105.59,620.91c0-.29,4.09-9.86,4.28-10a5.47,5.47,0,0,1,2.24,1c1.1.7,3.14,2,4.58,2.84a19.94,19.94,0,0,1,2.54,1.73,4.09,4.09,0,0,1-1.21.44c-.68.22-3.71,1.21-6.71,2.24C105.67,621.1,105.59,621.1,105.59,620.91Z"/><path id="path546" class="cls-2" d="M126.81,613.55c0-.07,1.21-3.53,2.65-7.66s3.11-8.76,3.64-10.27a17.39,17.39,0,0,1,1.29-3.09c.26-.25,4.13,1.62,8.14,4,.84.47,2.12,1.21,2.84,1.58s2.62,1.36,4.17,2.24,3.6,2,4.51,2.54c1.67.92,1.67.92.76,1.29s-9,3.13-18.53,6.41l-7.39,2.53C127.38,613.66,126.81,613.77,126.81,613.55Z"/><path id="path548" class="cls-2" d="M188,613c-.61-.33-2.2-1.25-3.49-2a27.25,27.25,0,0,0-2.54-1.4c-.11,0-1.93-1-4.09-2.24s-5.08-3-6.55-3.76-3.11-1.76-3.68-2.13c-1.36-.92-2.39-.89-5.38.22a6.23,6.23,0,0,1-2.5.66c0-.33,17.88-17.78,18.23-17.78a18.34,18.34,0,0,1,1.43,3.24c.69,1.77,2.16,5.52,3.26,8.36,5.61,14.2,6.82,17.48,6.56,17.48A8.23,8.23,0,0,1,188,613Z"/></g><g id="layer115-9"><path id="path516-1" class="cls-2" d="M1032,734.42l2-.08,1-2.11a12.93,12.93,0,0,0,.83-2.2,10.12,10.12,0,0,0-2.1,1c-1.08.59-2.9,1.55-4.06,2.16a9.25,9.25,0,0,0-2.07,1.3c0,.1.53.15,1.18.13Z"/><path id="path518-6" class="cls-2" d="M1004.56,734.42c1.13-.1,1.16-.1,1.84-1.59a9.1,9.1,0,0,0,.61-1.6,37.84,37.84,0,0,0-4.8,2.31c-.66.37-1.19.74-1.19.86S1002.23,734.62,1004.56,734.42Z"/><path id="path520-1" class="cls-2" d="M1005,731.17a16.92,16.92,0,0,0,2.17-1.28,58.22,58.22,0,0,0,2.12-8.44,12.39,12.39,0,0,0-1-2.77c-1.44-3.17-2.67-5.89-4.92-11a37.85,37.85,0,0,0-2.17-4.49c-.1,0-.13.59-.08,1.3.13,1.35,1,17.4,1.24,22.87.18,3.55.33,4.78.58,4.78A18.36,18.36,0,0,0,1005,731.17Z"/><path id="path522-9" class="cls-2" d="M1033.72,730a3.73,3.73,0,0,0,1.62-1.4c.51-1,1.82-4,3.33-7.72.71-1.7,1.59-3.78,2-4.67,1.51-3.36,1.72-4.34,2.17-9.74l.4-5.22-5-5.08c-2.77-2.82-6.16-6.16-7.47-7.43l-2.43-2.33v.85c0,1.13,4,43.21,4.1,43.31A4.44,4.44,0,0,0,1033.72,730Z"/><path id="path524-2" class="cls-2" d="M1021.1,720.13l7.62-.2h1.59v-1.17a3.4,3.4,0,0,0-.32-1.57,60,60,0,0,0-5.86-3.27l-6.82-3.55c-.71-.37-3.06-1.62-5.23-2.8s-4-2.11-4.09-2.11-1.31-.66-2.8-1.47c-2.58-1.4-3.34-1.72-3.11-1.28s4.5,9.86,5.76,12.81c.38.88,1,2.23,1.36,3a9.79,9.79,0,0,1,.66,1.65C1009.86,720.42,1010.94,720.42,1021.1,720.13Z"/><path id="path526-7" class="cls-2" d="M1001,717.75c0-.64-.1-2.87-.23-5s-.33-5.32-.4-7.16c-.15-2.65-.25-3.34-.51-3.19-.6.34-11.87,10.91-11.87,11.16s3.16,1.47,12.43,5.08C1001,718.9,1001,718.85,1001,717.75Z"/><path id="path528-1" class="cls-2" d="M1042.71,717.25c.76-.36,2.18-1,3.16-1.44,4.12-1.84,8.28-3.68,11.59-5.11,2-.85,5.68-2.5,8.34-3.65s6-2.65,7.4-3.26a7.4,7.4,0,0,0,2.39-1.33c-.12-.07-1.28-.51-2.6-.93s-2.62-.88-2.9-1c-.68-.24-5.58-1.94-9.34-3.19-1.67-.56-3.49-1.17-4-1.39l-3.78-1.31c-1.54-.51-4.6-1.57-6.82-2.33-12.07-4.14-15.58-5.32-15.68-5.2s3,3.17,6.86,7l7,6.92-.56,5.84-.53,5.84-1.11,2.52c-.6,1.4-1.11,2.6-1.11,2.65S1041.3,717.89,1042.71,717.25Z"/><path id="path530-9" class="cls-2" d="M1029.94,714.83c-.16-1.26-1.72-17.82-2.15-22.8-.33-3.92-.53-5.49-.71-5.49a12.06,12.06,0,0,0-1.41.78c-.71.42-1.8,1-2.43,1.38s-1.54.83-2,1.15c-.8.52-4.85,2.77-7.19,4-.56.29-2.66,1.5-4.68,2.65-4,2.26-6.36,3.58-7.27,4-.55.27-.76.69-.33.69a8.52,8.52,0,0,1,1.72.83c.81.44,2.83,1.5,4.49,2.36s3.14,1.62,3.29,1.72,1.21.68,2.4,1.27,5.3,2.8,9.14,4.83,7.07,3.71,7.15,3.71A2.69,2.69,0,0,0,1029.94,714.83Z"/><path id="path532-2" class="cls-2" d="M990.72,709.72c1.56-1.47,2.88-2.74,2.93-2.84a4.78,4.78,0,0,0-1.77-.71c-1-.3-2.12-.62-2.48-.74a31.86,31.86,0,0,0-5-1.18c-.07.08.05.52.26,1s.91,2.16,1.56,3.78a23.93,23.93,0,0,0,1.37,3.16A13.33,13.33,0,0,0,990.72,709.72Z"/><path id="path534-3" class="cls-2" d="M977.41,711.27c1.79-.54,3.63-1.11,4.09-1.28l.81-.29-2.2-.93c-4.22-1.82-3.74-1.75-4.42-.72-.33.52-1,1.67-1.51,2.61-.74,1.34-.84,1.64-.48,1.61S975.59,711.81,977.41,711.27Z"/><path id="path536-5" class="cls-2" d="M1061,711.17c1.51-.34,3.74-.81,4.92-1.08,6.82-1.42,18.92-4,21.09-4.54,1.39-.32,3.66-.81,5-1.08a76.29,76.29,0,0,0,7.88-1.84c.2-.19-.13-.19-12.3.13-11.39.27-10.58.17-14.27,1.84l-8.58,3.77c-4,1.79-7.38,3.29-7.43,3.34C1057.13,711.93,1058.32,711.73,1061,711.17Z"/><path id="path538-7" class="cls-2" d="M985.62,709.92a39.75,39.75,0,0,0-2.48-5.86c-.35.19-3,1.32-4.42,1.86-.81.29-1.39.64-1.26.74s1.44.71,3,1.35,3.26,1.34,3.84,1.61C985.46,710.14,985.62,710.16,985.62,709.92Z"/><path id="path540-2" class="cls-2" d="M999,702a41,41,0,0,1,6.89-4.54,33.81,33.81,0,0,0,4.6-2.8,4.3,4.3,0,0,0-1.09-.44L1006,693c-1.38-.49-3.46-1.23-4.57-1.59l-2.07-.69-1.31,6.5c-.71,3.58-1.26,6.53-1.21,6.57A16.71,16.71,0,0,0,999,702Z"/><path id="path542-0" class="cls-2" d="M1089.66,701.82a29.73,29.73,0,0,0-5-2.77,7.67,7.67,0,0,0-1.54,1.47l-1.31,1.47h3.91A21.67,21.67,0,0,0,1089.66,701.82Z"/><path id="path544-8" class="cls-2" d="M1067.94,698.73c0-.19-2.72-6.57-2.85-6.7a3.91,3.91,0,0,0-1.49.69c-.73.47-2.1,1.33-3.06,1.89a15.22,15.22,0,0,0-1.69,1.15,2.33,2.33,0,0,0,.81.3c.45.14,2.47.81,4.47,1.49C1067.89,698.85,1067.94,698.85,1067.94,698.73Z"/><path id="path546-2" class="cls-2" d="M1053.8,693.83s-.81-2.36-1.77-5.11-2.07-5.84-2.42-6.84a12,12,0,0,0-.86-2.06c-.18-.18-2.75,1.08-5.43,2.67-.56.32-1.41.81-1.89,1.06s-1.75.9-2.78,1.49l-3,1.69c-1.11.62-1.11.62-.5.86s6,2.09,12.35,4.27l4.92,1.7C1053.42,693.9,1053.8,694,1053.8,693.83Z"/><path id="path548-9" class="cls-2" d="M1013,693.42l2.32-1.33a17.28,17.28,0,0,1,1.69-.93c.08,0,1.29-.69,2.73-1.5s3.38-2,4.37-2.5,2.07-1.18,2.45-1.42c.91-.62,1.59-.59,3.58.15a4.23,4.23,0,0,0,1.67.44c0-.22-11.92-11.85-12.15-11.85a11.74,11.74,0,0,0-1,2.16c-.45,1.17-1.44,3.68-2.17,5.57-3.74,9.47-4.54,11.65-4.37,11.65A6.57,6.57,0,0,0,1013,693.42Z"/></g><g id="layer115-9-1"><path id="path516-1-8" class="cls-2" d="M761,735.42h-1.36L759,734a7.15,7.15,0,0,1-.56-1.48,8.39,8.39,0,0,1,1.4.64c.73.4,2,1,2.73,1.45a5.94,5.94,0,0,1,1.39.88c0,.06-.35.09-.79.08Z"/><path id="path518-6-9" class="cls-2" d="M779.33,735.42c-.76-.07-.78-.07-1.23-1.07a4.64,4.64,0,0,1-.41-1.07,25.69,25.69,0,0,1,3.22,1.54,2.69,2.69,0,0,1,.8.58C781.71,735.57,780.89,735.57,779.33,735.42Z"/><path id="path520-1-5" class="cls-2" d="M779,733.25a11.07,11.07,0,0,1-1.45-.86,38.14,38.14,0,0,1-1.43-5.66,8.3,8.3,0,0,1,.68-1.86c1-2.12,1.8-4,3.31-7.36a24.35,24.35,0,0,1,1.45-3c.07,0,.09.39,0,.87-.08.91-.67,11.67-.83,15.34-.12,2.39-.22,3.21-.39,3.21A13.75,13.75,0,0,1,779,733.25Z"/><path id="path522-9-2" class="cls-2" d="M759.76,732.48a2.52,2.52,0,0,1-1.08-.94c-.34-.68-1.23-2.72-2.24-5.19-.48-1.13-1.07-2.53-1.34-3.13-1-2.25-1.15-2.91-1.46-6.53l-.27-3.51,3.39-3.41c1.86-1.89,4.14-4.13,5-5l1.62-1.56v.58c0,.75-2.67,29-2.74,29A2.5,2.5,0,0,1,759.76,732.48Z"/><path id="path524-2-8" class="cls-2" d="M768.23,725.84l-5.11-.13h-1.07v-.79a2.14,2.14,0,0,1,.22-1,35.84,35.84,0,0,1,3.93-2.19c2-1.07,4.12-2.14,4.57-2.39s2.06-1.08,3.51-1.87S777,716,777,716s.88-.44,1.88-1c1.73-.94,2.24-1.15,2.08-.85s-3,6.61-3.86,8.59c-.25.59-.66,1.5-.92,2a7.88,7.88,0,0,0-.44,1.1C775.77,726,775,726,768.23,725.84Z"/><path id="path526-7-8" class="cls-2" d="M781.71,724.24c0-.42.06-1.92.15-3.32s.22-3.57.27-4.81c.1-1.78.17-2.24.34-2.14.4.23,8,7.33,8,7.49s-2.12,1-8.33,3.41C781.72,725,781.71,725,781.71,724.24Z"/><path id="path528-1-5" class="cls-2" d="M753.73,723.91l-2.12-1c-2.76-1.23-5.56-2.47-7.78-3.42-1.3-.58-3.81-1.68-5.59-2.45s-4-1.78-5-2.19a5.18,5.18,0,0,1-1.61-.89c.09-.05.87-.35,1.75-.63s1.76-.59,2-.67c.45-.17,3.74-1.3,6.27-2.14,1.12-.38,2.34-.79,2.71-.94l2.54-.87,4.58-1.57c8.1-2.78,10.45-3.57,10.52-3.49s-2,2.13-4.61,4.68L752.73,713l.37,3.92.36,3.92.74,1.69c.41.94.75,1.75.75,1.78S754.68,724.34,753.73,723.91Z"/><path id="path530-9-7" class="cls-2" d="M762.3,722.29c.1-.84,1.15-12,1.44-15.3.22-2.63.36-3.69.48-3.69a8.84,8.84,0,0,1,.95.53c.47.28,1.2.69,1.62.92s.92.5,1.36.78,3.25,1.86,4.83,2.71c.37.2,1.78,1,3.13,1.78,2.66,1.51,4.27,2.4,4.88,2.7.38.18.51.46.22.46a5.83,5.83,0,0,0-1.15.56c-.54.3-1.9,1-3,1.58l-2.21,1.15c-.1.06-.81.46-1.61.86l-6.13,3.24c-2.6,1.37-4.75,2.49-4.8,2.49A1.54,1.54,0,0,1,762.3,722.29Z"/><path id="path532-2-7" class="cls-2" d="M788.62,718.86l-2-1.91a3.35,3.35,0,0,1,1.19-.48c.68-.19,1.42-.41,1.66-.49a20.83,20.83,0,0,1,3.32-.79c.05,0,0,.35-.17.64a26.69,26.69,0,0,0-1,2.54,19.89,19.89,0,0,1-.91,2.12A8.47,8.47,0,0,1,788.62,718.86Z"/><path id="path534-3-5" class="cls-2" d="M797.55,719.9c-1.2-.36-2.44-.74-2.74-.86l-.55-.2,1.48-.62c2.83-1.22,2.51-1.17,3-.48.22.35.68,1.12,1,1.75.49.9.56,1.1.32,1.08S798.77,720.26,797.55,719.9Z"/><path id="path536-5-1" class="cls-2" d="M741.46,719.83l-3.31-.72c-4.57-1-12.69-2.7-14.15-3.05-.93-.21-2.45-.54-3.39-.72a47.61,47.61,0,0,1-5.28-1.24c-.14-.13.08-.13,8.25.09,7.64.18,7.1.11,9.57,1.23l5.77,2.54,5,2.23A10.14,10.14,0,0,1,741.46,719.83Z"/><path id="path538-7-8" class="cls-2" d="M792,719a25.57,25.57,0,0,1,1.66-3.93c.24.13,2,.89,3,1.25.54.2.93.43.85.49a18.9,18.9,0,0,1-2,.91c-1,.41-2.19.9-2.58,1.08C792.14,719.14,792,719.16,792,719Z"/><path id="path540-2-6" class="cls-2" d="M783,713.69a27.57,27.57,0,0,0-4.63-3,23.69,23.69,0,0,1-3.08-1.88,2.34,2.34,0,0,1,.73-.3l2.32-.8c.93-.33,2.32-.83,3.07-1.07l1.39-.47.88,4.37c.47,2.4.85,4.38.81,4.41A12,12,0,0,1,783,713.69Z"/><path id="path542-0-6" class="cls-2" d="M722.22,713.56a19.29,19.29,0,0,1,3.36-1.86,5.91,5.91,0,0,1,1,1l.88,1h-2.62A14.3,14.3,0,0,1,722.22,713.56Z"/><path id="path544-8-9" class="cls-2" d="M736.8,711.49c0-.14,1.83-4.42,1.91-4.5a2.68,2.68,0,0,1,1,.46l2,1.27a10.85,10.85,0,0,1,1.14.77,1.54,1.54,0,0,1-.54.2c-.31.1-1.67.54-3,1C736.83,711.57,736.8,711.57,736.8,711.49Z"/><path id="path546-2-3" class="cls-2" d="M746.29,708.19s.54-1.58,1.18-3.42,1.39-3.92,1.63-4.6a7,7,0,0,1,.58-1.38,15.43,15.43,0,0,1,3.64,1.8c.37.21,1,.54,1.27.7s1.17.61,1.87,1l2,1.13c.75.42.75.42.34.58s-4,1.4-8.29,2.87l-3.3,1.13C746.54,708.24,746.29,708.29,746.29,708.19Z"/><path id="path548-9-1" class="cls-2" d="M773.66,708l-1.56-.89a12.66,12.66,0,0,0-1.14-.63c-.05,0-.86-.46-1.83-1s-2.27-1.32-2.93-1.68a14,14,0,0,1-1.64-1c-.61-.41-1.07-.39-2.41.1a2.92,2.92,0,0,1-1.12.3c0-.15,8-7.95,8.15-7.95a8.47,8.47,0,0,1,.65,1.44c.3.79,1,2.47,1.45,3.74,2.51,6.36,3,7.82,2.94,7.82A3.53,3.53,0,0,1,773.66,708Z"/></g><g id="layer115-9-9"><path id="path516-1-5" class="cls-2" d="M1078.5,745.82h1l.48-1.05a6,6,0,0,0,.41-1.09,5.08,5.08,0,0,0-1,.47l-2,1.08a4.36,4.36,0,0,0-1,.64s.26.08.59.06Z"/><path id="path518-6-2" class="cls-2" d="M1064.87,745.83c.56,0,.58,0,.91-.79a5.4,5.4,0,0,0,.31-.79,18.7,18.7,0,0,0-2.39,1.14c-.33.19-.59.37-.59.43A5,5,0,0,0,1064.87,745.83Z"/><path id="path520-1-7" class="cls-2" d="M1065.12,744.2a8.51,8.51,0,0,0,1.08-.64,30.18,30.18,0,0,0,1-4.2,6.82,6.82,0,0,0-.5-1.37c-.71-1.58-1.33-2.93-2.45-5.46a19.07,19.07,0,0,0-1.08-2.23,1.91,1.91,0,0,0,0,.64c.07.68.51,8.66.62,11.38.09,1.77.16,2.38.29,2.38A9,9,0,0,0,1065.12,744.2Z"/><path id="path522-9-6" class="cls-2" d="M1079.38,743.62a2,2,0,0,0,.8-.69c.25-.5.91-2,1.66-3.85.35-.84.79-1.88,1-2.31a11.12,11.12,0,0,0,1.08-4.85l.2-2.6-2.51-2.53c-1.38-1.4-3.06-3.06-3.72-3.69l-1.2-1.16v.42c0,.57,2,21.5,2,21.54A1.8,1.8,0,0,0,1079.38,743.62Z"/><path id="path524-2-4" class="cls-2" d="M1073.1,738.71l3.79-.1h.79V738a1.61,1.61,0,0,0-.16-.78,31.91,31.91,0,0,0-2.92-1.62l-3.39-1.77-2.6-1.39c-1.09-.58-2-1-2-1s-.66-.33-1.4-.74c-1.28-.69-1.66-.85-1.54-.63s2.23,4.9,2.86,6.37c.19.44.49,1.11.68,1.49a5.85,5.85,0,0,1,.33.82C1067.51,738.85,1068,738.85,1073.1,738.71Z"/><path id="path526-7-5" class="cls-2" d="M1063.11,737.52c0-.32,0-1.43-.11-2.46s-.17-2.65-.2-3.57c-.08-1.31-.13-1.66-.26-1.58-.3.17-5.9,5.43-5.9,5.55a59.33,59.33,0,0,0,6.18,2.53C1063.1,738.1,1063.11,738.07,1063.11,737.52Z"/><path id="path528-1-1" class="cls-2" d="M1083.85,737.28c.38-.19,1.08-.5,1.57-.72,2-.92,4.12-1.83,5.77-2.54,1-.43,2.82-1.25,4.14-1.82s3-1.32,3.68-1.62a4,4,0,0,0,1.2-.66c-.43-.17-.86-.33-1.3-.46-.65-.22-1.31-.44-1.44-.51-.34-.12-2.78-1-4.65-1.58-.83-.28-1.73-.59-2-.7l-1.89-.64-3.39-1.16c-6-2.07-7.75-2.65-7.8-2.59s1.52,1.57,3.42,3.47l3.45,3.44-.27,2.9-.27,2.91-.55,1.25c-.3.7-.55,1.3-.55,1.32S1083.15,737.6,1083.85,737.28Z"/><path id="path530-9-0" class="cls-2" d="M1077.49,736.07c-.07-.62-.85-8.86-1.07-11.34a10.49,10.49,0,0,0-.35-2.73,7.87,7.87,0,0,0-.7.39c-.35.21-.89.51-1.21.68s-.76.42-1,.58c-.4.25-2.41,1.38-3.58,2l-2.33,1.32c-2,1.12-3.16,1.78-3.61,2-.28.13-.38.34-.17.34a4,4,0,0,1,.86.42c.4.22,1.4.74,2.23,1.17l1.64.85c.08,0,.6.34,1.19.64s2.64,1.39,4.55,2.4,3.52,1.84,3.55,1.84S1077.53,736.42,1077.49,736.07Z"/><path id="path532-2-3" class="cls-2" d="M1058,733.53c.78-.73,1.44-1.37,1.46-1.41a2.66,2.66,0,0,0-.88-.36l-1.23-.36a16.3,16.3,0,0,0-2.46-.59,1.13,1.13,0,0,0,.12.48c.12.22.46,1.07.78,1.88a14.58,14.58,0,0,0,.68,1.57A6.58,6.58,0,0,0,1058,733.53Z"/><path id="path534-3-9" class="cls-2" d="M1051.36,734.3l2-.63.4-.15-1.09-.46c-2.1-.91-1.86-.87-2.2-.36-.16.26-.5.83-.75,1.3-.37.67-.42.81-.24.8A17.42,17.42,0,0,0,1051.36,734.3Z"/><path id="path536-5-7" class="cls-2" d="M1092.94,734.25l2.45-.54c3.4-.7,9.41-2,10.49-2.25.69-.16,1.82-.41,2.52-.54a35.38,35.38,0,0,0,3.92-.92c.1-.09-.07-.09-6.12.07-5.67.13-5.27.08-7.1.91l-4.27,1.88c-2,.89-3.67,1.64-3.69,1.66A7.79,7.79,0,0,0,1092.94,734.25Z"/><path id="path538-7-0" class="cls-2" d="M1055.45,733.63a19.63,19.63,0,0,0-1.23-2.92c-.18.1-1.5.66-2.2.93-.41.15-.69.32-.63.37s.71.35,1.48.67l1.91.8C1055.37,733.74,1055.45,733.75,1055.45,733.63Z"/><path id="path540-2-3" class="cls-2" d="M1062.1,729.7a20.75,20.75,0,0,1,3.43-2.26,16.25,16.25,0,0,0,2.29-1.39,1.81,1.81,0,0,0-.54-.22l-1.72-.6c-.69-.24-1.72-.61-2.28-.79l-1-.34-.65,3.23c-.35,1.78-.63,3.25-.6,3.27A8.36,8.36,0,0,0,1062.1,729.7Z"/><path id="path542-0-4" class="cls-2" d="M1107.2,729.6a14.75,14.75,0,0,0-2.49-1.38,4.05,4.05,0,0,0-.76.73l-.65.74h1.94A10.73,10.73,0,0,0,1107.2,729.6Z"/><path id="path544-8-7" class="cls-2" d="M1096.4,728.06c0-.09-1.36-3.27-1.42-3.33a2,2,0,0,0-.74.34c-.37.24-1,.66-1.52.94a6.25,6.25,0,0,0-.84.58,1.12,1.12,0,0,0,.4.14l2.22.75C1096.37,728.12,1096.4,728.12,1096.4,728.06Z"/><path id="path546-2-2" class="cls-2" d="M1089.36,725.62s-.4-1.17-.88-2.54-1-2.9-1.2-3.4a7.35,7.35,0,0,0-.43-1,11.12,11.12,0,0,0-2.7,1.33c-.28.16-.7.41-.94.53s-.87.45-1.38.74l-1.5.85c-.55.3-.55.3-.25.42s3,1,6.14,2.13l2.45.84C1089.18,725.66,1089.36,725.7,1089.36,725.62Z"/><path id="path548-9-8" class="cls-2" d="M1069.08,725.42l1.15-.66a8.52,8.52,0,0,1,.84-.46s.64-.34,1.36-.75l2.17-1.24,1.22-.71c.45-.3.79-.29,1.79.07a1.93,1.93,0,0,0,.82.22c0-.11-5.92-5.89-6-5.89a4.84,4.84,0,0,0-.47,1.07l-1.09,2.77c-1.85,4.71-2.26,5.8-2.17,5.8A2.88,2.88,0,0,0,1069.08,725.42Z"/></g><g id="layer115-9-9-7"><path id="path516-1-5-1" class="cls-2" d="M1138.71,747h1l.47-1a6.09,6.09,0,0,0,.42-1.1,5.76,5.76,0,0,0-1,.48l-2,1.07a5.21,5.21,0,0,0-1,.65,2.33,2.33,0,0,0,.59.06Z"/><path id="path518-6-2-6" class="cls-2" d="M1125.08,747c.57,0,.58,0,.92-.79a4.25,4.25,0,0,0,.3-.8,21,21,0,0,0-2.39,1.15,1.7,1.7,0,0,0-.59.43C1123.32,747.13,1123.93,747.13,1125.08,747Z"/><path id="path520-1-7-1" class="cls-2" d="M1125.33,745.42a7.8,7.8,0,0,0,1.08-.63,30,30,0,0,0,1.06-4.2,7.59,7.59,0,0,0-.5-1.38c-.72-1.57-1.34-2.93-2.45-5.45a18.46,18.46,0,0,0-1.08-2.24s-.07.3,0,.65c.06.67.5,8.65.61,11.38.09,1.76.17,2.37.29,2.37A7.65,7.65,0,0,0,1125.33,745.42Z"/><path id="path522-9-6-8" class="cls-2" d="M1139.59,744.83a2.07,2.07,0,0,0,.81-.69c.25-.51.9-2,1.65-3.85.36-.84.79-1.88,1-2.32a11.37,11.37,0,0,0,1.08-4.84l.2-2.6-2.52-2.53c-1.38-1.4-3.06-3.06-3.71-3.7l-1.21-1.16v.43c0,.56,2,21.49,2,21.54A2,2,0,0,0,1139.59,744.83Z"/><path id="path524-2-4-3" class="cls-2" d="M1133.31,739.91l3.79-.09h.8v-.58a1.62,1.62,0,0,0-.17-.78,27.7,27.7,0,0,0-2.91-1.63c-1.52-.79-3.06-1.58-3.39-1.77s-1.52-.8-2.6-1.39-2-1-2-1-.65-.33-1.39-.73c-1.29-.7-1.66-.85-1.55-.63s2.24,4.9,2.86,6.37c.19.44.49,1.11.68,1.48a6.38,6.38,0,0,1,.33.82C1127.72,740.06,1128.26,740.06,1133.31,739.91Z"/><path id="path526-7-5-4" class="cls-2" d="M1123.32,738.73c0-.32,0-1.43-.11-2.47s-.16-2.64-.2-3.56c-.08-1.32-.13-1.66-.25-1.59-.3.17-5.91,5.43-5.91,5.56a61.53,61.53,0,0,0,6.18,2.52C1123.31,739.3,1123.32,739.28,1123.32,738.73Z"/><path id="path528-1-1-3" class="cls-2" d="M1144,738.48l1.57-.72c2.05-.91,4.12-1.83,5.77-2.53l4.15-1.82c1.3-.59,3-1.32,3.68-1.63a4.18,4.18,0,0,0,1.19-.65c-.42-.18-.85-.33-1.29-.47-.66-.22-1.31-.44-1.45-.5-.34-.12-2.78-1-4.65-1.58-.83-.29-1.73-.59-2-.7l-1.88-.65c-.77-.25-2.29-.78-3.39-1.16-6-2.06-7.75-2.64-7.8-2.58s1.52,1.57,3.41,3.46l3.46,3.44-.28,2.91-.26,2.9-.56,1.26c-.3.7-.55,1.29-.55,1.32S1143.36,738.8,1144,738.48Z"/><path id="path530-9-0-3" class="cls-2" d="M1137.71,737.28c-.08-.63-.86-8.86-1.07-11.34a10.49,10.49,0,0,0-.35-2.73,5.38,5.38,0,0,0-.71.39l-1.2.68c-.35.18-.68.37-1,.57s-2.41,1.38-3.58,2c-.27.14-1.32.74-2.32,1.31-2,1.13-3.17,1.79-3.62,2-.28.13-.38.34-.16.34a4.44,4.44,0,0,1,.85.41c.4.22,1.41.75,2.24,1.17s1.56.81,1.63.86.6.34,1.19.63l4.55,2.41c1.92,1,3.52,1.84,3.56,1.84A1.63,1.63,0,0,0,1137.71,737.28Z"/><path id="path532-2-3-1" class="cls-2" d="M1118.2,734.74c.78-.73,1.43-1.37,1.45-1.42a2.42,2.42,0,0,0-.87-.35l-1.24-.37a16.26,16.26,0,0,0-2.46-.58,1,1,0,0,0,.13.47c.13.22.45,1.08.78,1.88a10,10,0,0,0,.68,1.58A6.58,6.58,0,0,0,1118.2,734.74Z"/><path id="path534-3-9-8" class="cls-2" d="M1111.58,735.51c.89-.27,1.81-.55,2-.64l.4-.14-1.09-.47c-2.1-.9-1.86-.86-2.2-.35-.16.25-.5.83-.75,1.29-.36.67-.42.82-.24.81A18.08,18.08,0,0,0,1111.58,735.51Z"/><path id="path536-5-7-4" class="cls-2" d="M1153.16,735.42l2.45-.54c3.39-.71,9.41-2,10.49-2.26.69-.16,1.82-.4,2.51-.53a35.38,35.38,0,0,0,3.92-.92c.1-.1-.06-.1-6.12.06-5.66.14-5.26.09-7.1.92L1155,734c-2,.89-3.67,1.63-3.69,1.66A5.19,5.19,0,0,0,1153.16,735.42Z"/><path id="path538-7-0-4" class="cls-2" d="M1115.66,734.84a19.63,19.63,0,0,0-1.23-2.92c-.18.1-1.5.66-2.2.93-.4.14-.69.31-.63.36a13.14,13.14,0,0,0,1.48.67c.76.31,1.63.68,1.91.81C1115.58,735,1115.66,735,1115.66,734.84Z"/><path id="path540-2-3-8" class="cls-2" d="M1122.32,730.91a19.55,19.55,0,0,1,3.43-2.26,17.8,17.8,0,0,0,2.28-1.39,1.81,1.81,0,0,0-.54-.22l-1.72-.6c-.69-.24-1.72-.61-2.27-.79l-1-.35-.65,3.24c-.36,1.78-.63,3.24-.61,3.27A9.2,9.2,0,0,0,1122.32,730.91Z"/><path id="path542-0-4-5" class="cls-2" d="M1167.42,730.81a14.75,14.75,0,0,0-2.49-1.38,4.11,4.11,0,0,0-.77.73l-.65.73h2A11.1,11.1,0,0,0,1167.42,730.81Z"/><path id="path544-8-7-8" class="cls-2" d="M1156.61,729.27c0-.1-1.35-3.27-1.42-3.33a2,2,0,0,0-.74.34c-.36.23-1,.66-1.52.94a9.53,9.53,0,0,0-.84.57,1,1,0,0,0,.4.15c.23.07,1.23.4,2.23.75C1156.59,729.33,1156.61,729.33,1156.61,729.27Z"/><path id="path546-2-2-6" class="cls-2" d="M1149.58,726.83s-.4-1.17-.88-2.54l-1.21-3.4a6.23,6.23,0,0,0-.42-1,11.37,11.37,0,0,0-2.71,1.33l-.94.53c-.24.12-.86.45-1.38.74l-1.49.84c-.56.31-.56.31-.26.43s3,1,6.15,2.12l2.45.85C1149.39,726.87,1149.58,726.9,1149.58,726.83Z"/><path id="path548-9-8-8" class="cls-2" d="M1129.29,726.65l1.16-.66a8.6,8.6,0,0,1,.84-.47s.64-.34,1.35-.74,1.69-1,2.18-1.25,1-.58,1.22-.7c.45-.31.79-.3,1.78.07a2,2,0,0,0,.83.22c0-.11-5.93-5.89-6-5.89a5.39,5.39,0,0,0-.48,1.07c-.23.59-.72,1.83-1.08,2.77-1.86,4.71-2.26,5.8-2.17,5.8A3.6,3.6,0,0,0,1129.29,726.65Z"/></g><g id="layer115-98"><path id="path516-9" class="cls-2" d="M354.78,734.66l3.75-.13,1.78-3.92a22,22,0,0,0,1.55-4.1,19.82,19.82,0,0,0-3.89,1.78c-2,1.09-5.39,2.86-7.55,4s-3.84,2.19-3.84,2.42,1,.27,2.2.23Z"/><path id="path518-64" class="cls-2" d="M303.91,734.71c2.11-.18,2.16-.18,3.42-3a15.05,15.05,0,0,0,1.13-3c-.19-.14-3.85,1.64-8.91,4.28-1.22.68-2.2,1.36-2.2,1.59S299.6,735,303.91,734.71Z"/><path id="path520-8" class="cls-2" d="M304.85,728.6a33.57,33.57,0,0,0,4-2.36c.56-.6,3.94-14,3.94-15.67a24.26,24.26,0,0,0-1.88-5.15c-2.67-5.88-5-10.93-9.14-20.36a72.57,72.57,0,0,0-4-8.34,5,5,0,0,0-.14,2.42c.23,2.5,1.87,32.29,2.3,42.45.32,6.6.6,8.88,1.07,8.88A35,35,0,0,0,304.85,728.6Z"/><path id="path522-6" class="cls-2" d="M358,726.42a7.17,7.17,0,0,0,3-2.59c.93-1.87,3.37-7.52,6.18-14.35,1.32-3.14,3-7,3.71-8.66,2.81-6.24,3.19-8.06,4-18.08l.75-9.7-9.38-9.43c-5.15-5.24-11.44-11.43-13.88-13.8L348,645.52v1.6c0,2.09,7.41,80.21,7.6,80.39A7.77,7.77,0,0,0,358,726.42Z"/><path id="path524-1" class="cls-2" d="M334.62,708.11c6.19-.14,12.57-.32,14.16-.37h3v-2.19a6.12,6.12,0,0,0-.6-2.91c-.29-.41-5.21-3.15-10.88-6.06s-11.4-5.92-12.66-6.61-5.68-3-9.71-5.19-7.45-3.92-7.59-3.92-2.44-1.23-5.21-2.73c-4.78-2.6-6.19-3.19-5.76-2.37.61,1.09,8.34,18.31,10.69,23.78.7,1.64,1.82,4.14,2.53,5.55a20.12,20.12,0,0,1,1.22,3.06C313.76,708.65,315.77,708.65,334.62,708.11Z"/><path id="path526-3" class="cls-2" d="M297.35,703.69c0-1.19-.19-5.33-.43-9.2s-.61-9.89-.75-13.3c-.28-4.92-.46-6.2-.93-5.92-1.13.63-22,20.27-22,20.72s5.78,2.73,23,9.43C297.3,705.83,297.35,705.74,297.35,703.69Z"/><path id="path528-6" class="cls-2" d="M374.76,702.78c1.4-.69,4-1.87,5.86-2.69,7.64-3.42,15.38-6.83,21.52-9.47,3.61-1.6,10.55-4.65,15.47-6.79s11.07-4.92,13.74-6.06,4.64-2.28,4.45-2.46q-2.37-1-4.83-1.73c-2.44-.82-4.87-1.64-5.39-1.87-1.27-.45-10.36-3.6-17.35-5.92-3.09-1-6.47-2.19-7.5-2.6l-7-2.41c-2.86-1-8.54-2.91-12.66-4.33-22.41-7.69-28.93-9.88-29.12-9.65-.09,0,5.68,5.87,12.76,12.93l12.89,12.85-1,10.84-1,10.84L373.54,699c-1.13,2.6-2.06,4.83-2.06,4.92C371.43,704.24,372.13,704,374.76,702.78Z"/><path id="path530-94" class="cls-2" d="M351,698.27c-.28-2.32-3.19-33.07-4-42.32-.61-7.29-1-10.2-1.32-10.2a21.62,21.62,0,0,0-2.62,1.46c-1.32.77-3.33,1.91-4.5,2.55s-2.86,1.55-3.75,2.14c-1.5,1-9,5.15-13.37,7.51-1,.55-4.92,2.78-8.67,4.92-7.36,4.19-11.82,6.65-13.5,7.47-1,.5-1.41,1.28-.61,1.28a15.34,15.34,0,0,1,3.18,1.55c1.5.82,5.26,2.78,8.35,4.37s5.81,3,6.1,3.19,2.25,1.27,4.45,2.37,9.85,5.19,17,9,13.13,6.86,13.26,6.86A4.6,4.6,0,0,0,351,698.27Z"/><path id="path532-8" class="cls-2" d="M278.22,688.79c2.9-2.73,5.34-5.1,5.44-5.28s-1.41-.77-3.29-1.32-3.94-1.14-4.59-1.37c-3-1-9-2.37-9.19-2.18s.09,1,.47,1.77,1.69,4,2.9,7a50,50,0,0,0,2.54,5.87C272.73,693.53,275.26,691.48,278.22,688.79Z"/><path id="path534-21" class="cls-2" d="M253.51,691.66c3.33-1,6.75-2,7.59-2.37l1.5-.54L258.52,687c-7.83-3.37-6.93-3.24-8.2-1.32-.61,1-1.88,3.09-2.81,4.82-1.36,2.51-1.55,3.06-.89,3C247,693.49,250.13,692.67,253.51,691.66Z"/><path id="path536-52" class="cls-2" d="M408.7,691.48c2.81-.64,6.94-1.5,9.14-2C430.5,686.84,453,682,457,681.05c2.58-.59,6.8-1.5,9.38-2,7.46-1.51,14.3-3.1,14.63-3.42s-.23-.36-22.83.23c-21.15.5-19.65.32-26.49,3.41-1.32.6-8.49,3.74-16,7S402,692.42,402,692.48C401.53,692.89,403.73,692.53,408.7,691.48Z"/><path id="path538-1" class="cls-2" d="M268.75,689.16c0-.82-4.32-11.07-4.6-10.89-.66.37-5.58,2.46-8.2,3.46-1.5.55-2.58,1.19-2.35,1.37a58.52,58.52,0,0,0,5.53,2.51c2.82,1.13,6.05,2.5,7.13,3C268.46,689.57,268.75,689.61,268.75,689.16Z"/><path id="path540-9" class="cls-2" d="M293.6,674.49c2.95-2.55,6.28-4.74,12.8-8.43,4.87-2.68,8.67-5,8.53-5.19a7.27,7.27,0,0,0-2-.82c-.94-.32-3.84-1.32-6.42-2.23s-6.42-2.28-8.49-3l-3.84-1.28-2.44,12.07c-1.31,6.65-2.34,12.12-2.25,12.21A32,32,0,0,0,293.6,674.49Z"/><path id="path542-8" class="cls-2" d="M461.92,674.13c0-.41-8.58-5.15-9.29-5.15a15.1,15.1,0,0,0-2.86,2.73l-2.43,2.71h7.26C458.64,674.42,461.92,674.31,461.92,674.13Z"/><path id="path544-0" class="cls-2" d="M421.6,668.42c0-.37-5.07-12.21-5.3-12.44a6.76,6.76,0,0,0-2.77,1.28c-1.36.86-3.89,2.46-5.67,3.51a25.93,25.93,0,0,0-3.14,2.14,5,5,0,0,0,1.5.54c.84.28,4.59,1.51,8.3,2.78C421.5,668.62,421.6,668.62,421.6,668.42Z"/><path id="path546-01" class="cls-2" d="M395.34,659.28c0-.09-1.5-4.38-3.28-9.48s-3.85-10.84-4.5-12.7a22.14,22.14,0,0,0-1.6-3.83c-.33-.32-5.11,2-10.08,5-1,.6-2.62,1.51-3.52,2s-3.23,1.69-5.15,2.78l-5.58,3.14c-2.07,1.14-2.07,1.14-.94,1.6s11.11,3.87,22.93,7.92c4,1.37,8.11,2.78,9.14,3.15C394.64,659.42,395.34,659.55,395.34,659.28Z"/><path id="path548-4" class="cls-2" d="M319.62,658.59c.75-.41,2.72-1.54,4.31-2.46a35.32,35.32,0,0,1,3.14-1.73c.14,0,2.39-1.27,5.07-2.77s6.28-3.65,8.11-4.65,3.84-2.19,4.55-2.64c1.68-1.14,3-1.1,6.65.27,1.69.64,3.1,1,3.1.82,0-.41-22.13-22-22.55-22a20.46,20.46,0,0,0-1.79,4c-.84,2.19-2.67,6.83-4,10.34-6.94,17.58-8.44,21.63-8.11,21.63A11.69,11.69,0,0,0,319.62,658.59Z"/></g><g id="g5287"><path id="path5283" class="cls-1" d="M1272.64,697.84l-6.86-8.23h6.86l-8.14-8.33h5.3L1257.64,666l-12.25,15.29h5.3l-8.14,8.33h6.86l-6.86,8.23Z"/><path id="path5285" class="cls-1" d="M1255.68,697.84h3.73v12.74h-3.73Z"/></g><g id="g5293"><path id="path5289" class="cls-1" d="M847.56,685.34l-6.86-8.24h6.86l-8.13-8.33h5.39l-12.25-15.28-12.25,15.28h5.39l-8.13,8.33h6.86l-6.86,8.24Z"/><path id="path5291" class="cls-1" d="M830.71,685.34h3.72v12.74h-3.72Z"/></g></g></svg>