<svg id="_1" data-name="1" xmlns="http://www.w3.org/2000/svg" viewBox="0 0 1372 726.87"><defs><style>.cls-1{fill:#1b092d;}.cls-2{fill:#3f7f3f;}</style></defs><title>1</title><path id="path5153" class="cls-1" d="M1372,695.7l-124.36-29.5L1124,677.87l-190.9-20.49-255.78,7.35L528.81,611.81l-186.69,7.35L215.7,566.24,0,586.82v140H1372Z"/><g id="layer115"><path id="path516" class="cls-2" d="M157.56,640l-3-.11-1.44-3.16a18.65,18.65,0,0,1-1.25-3.31,15.51,15.51,0,0,1,3.15,1.43c1.62.89,4.35,2.32,6.1,3.24a13.85,13.85,0,0,1,3.1,2c0,.15-.79.22-1.78.19Z"/><path id="path518" class="cls-2" d="M198.67,640.08c-1.71-.15-1.74-.15-2.77-2.39a14.15,14.15,0,0,1-.91-2.39c.16-.11,3.11,1.32,7.2,3.46,1,.55,1.78,1.1,1.78,1.28S202.15,640.34,198.67,640.08Z"/><path id="path520" class="cls-2" d="M197.91,635.15a27.66,27.66,0,0,1-3.26-1.91c-.45-.48-3.18-11.34-3.18-12.67a19.31,19.31,0,0,1,1.52-4.16c2.16-4.74,4-8.83,7.38-16.45a54.09,54.09,0,0,1,3.26-6.73c.15,0,.19.88.12,1.95-.19,2-1.52,26.09-1.86,34.3-.27,5.34-.49,7.18-.87,7.18A29.86,29.86,0,0,1,197.91,635.15Z"/><path id="path522" class="cls-2" d="M154.91,633.42a5.68,5.68,0,0,1-2.42-2.1c-.76-1.51-2.73-6.07-5-11.59-1.06-2.54-2.38-5.67-3-7-2.27-5-2.58-6.51-3.26-14.61l-.6-7.84,7.57-7.62c4.17-4.23,9.25-9.24,11.22-11.15l3.64-3.5v1.29c0,1.7-6,64.82-6.14,65A6.68,6.68,0,0,1,154.91,633.42Z"/><path id="path524" class="cls-2" d="M173.85,618.59c-5-.11-10.15-.26-11.44-.3l-2.39,0v-1.77a4.73,4.73,0,0,1,.5-2.36,81.94,81.94,0,0,1,8.79-4.89c4.58-2.39,9.2-4.79,10.23-5.34s4.58-2.43,7.84-4.2,6-3.16,6.14-3.16,2-1,4.2-2.21c3.87-2.1,5-2.58,4.66-1.91-.49.88-6.74,14.79-8.64,19.21-.56,1.32-1.47,3.35-2,4.49a15.5,15.5,0,0,0-1,2.47C190.71,619,189.08,619,173.85,618.59Z"/><path id="path526" class="cls-2" d="M204,615c0-1,.16-4.31.34-7.44s.5-8,.61-10.75c.23-4,.38-5,.76-4.78.91.51,17.81,16.38,17.81,16.75s-4.74,2.2-18.65,7.61C204,616.75,204,616.67,204,615Z"/><path id="path528" class="cls-2" d="M141.42,614.28c-1.13-.55-3.26-1.51-4.73-2.17-6.18-2.76-12.43-5.52-17.39-7.66-2.92-1.29-8.53-3.75-12.51-5.48s-8.94-4-11.1-4.9-3.75-1.84-3.6-2,1.94-.78,3.91-1.4,3.94-1.33,4.35-1.51c1-.37,8.38-2.91,14-4.79,2.5-.84,5.23-1.76,6.06-2.09s3.41-1.18,5.69-2,6.89-2.35,10.23-3.49c18.11-6.22,23.37-8,23.52-7.81s-4.58,4.75-10.3,10.46l-10.42,10.38.83,8.76.8,8.76,1.67,3.79c.9,2.1,1.66,3.9,1.66,4C144.11,615.46,143.54,615.24,141.42,614.28Z"/><path id="path530" class="cls-2" d="M160.59,610.64c.23-1.88,2.58-26.73,3.22-34.2.5-5.89.8-8.24,1.06-8.24a16.11,16.11,0,0,1,2.13,1.18c1.06.62,2.69,1.54,3.63,2.06s2.31,1.25,3,1.73c1.22.77,7.28,4.16,10.8,6.07.84.44,4,2.25,7,4,5.95,3.38,9.55,5.37,10.91,6,.84.41,1.14,1,.49,1a12.54,12.54,0,0,0-2.57,1.25c-1.21.67-4.24,2.25-6.75,3.54s-4.69,2.43-4.92,2.57-1.82,1-3.6,1.92-8,4.19-13.72,7.25-10.6,5.56-10.72,5.56A3.82,3.82,0,0,1,160.59,610.64Z"/><path id="path532" class="cls-2" d="M219.43,603c-2.35-2.21-4.32-4.12-4.39-4.27s1.13-.62,2.65-1.07,3.18-.92,3.71-1.1a49.12,49.12,0,0,1,7.43-1.77c.11.11-.08.78-.38,1.44s-1.37,3.24-2.35,5.67a40.13,40.13,0,0,1-2,4.74C223.86,606.81,221.82,605.15,219.43,603Z"/><path id="path534" class="cls-2" d="M239.4,605.3c-2.69-.81-5.46-1.66-6.14-1.91l-1.21-.45,3.29-1.4c6.33-2.72,5.61-2.61,6.63-1.06.5.77,1.52,2.5,2.28,3.9,1.1,2,1.25,2.47.72,2.43C244.63,606.77,242.13,606.11,239.4,605.3Z"/><path id="path536" class="cls-2" d="M114,605.15c-2.27-.51-5.61-1.21-7.39-1.62-10.23-2.13-28.37-6-31.63-6.81-2.09-.48-5.5-1.21-7.58-1.62-6-1.21-11.55-2.5-11.82-2.76s.19-.29,18.45.19c17.09.4,15.88.25,21.41,2.76,1.06.48,6.85,3,12.88,5.67s11.06,4.93,11.14,5C119.79,606.29,118,606,114,605.15Z"/><path id="path538" class="cls-2" d="M227.08,603.27c0-.66,3.49-8.94,3.72-8.79.53.29,4.51,2,6.63,2.8,1.21.44,2.08,1,1.89,1.1a43.85,43.85,0,0,1-4.47,2c-2.27.92-4.89,2-5.76,2.43C227.31,603.61,227.08,603.64,227.08,603.27Z"/><path id="path540" class="cls-2" d="M207,591.42c-2.38-2.06-5.07-3.82-10.34-6.81a51.07,51.07,0,0,1-6.89-4.19,5.38,5.38,0,0,1,1.63-.66c.75-.26,3.1-1.07,5.19-1.81s5.19-1.84,6.85-2.39l3.11-1,2,9.75c1.06,5.38,1.89,9.79,1.82,9.87A25.39,25.39,0,0,1,207,591.42Z"/><path id="path542" class="cls-2" d="M71,591.13c0-.33,6.93-4.16,7.5-4.16a11.88,11.88,0,0,1,2.31,2.21l2,2.21H76.9A33.11,33.11,0,0,1,71,591.13Z"/><path id="path544" class="cls-2" d="M103.57,586.49c0-.29,4.09-9.86,4.28-10a5.42,5.42,0,0,1,2.24,1c1.1.7,3.14,2,4.58,2.84a20.09,20.09,0,0,1,2.54,1.73,4.16,4.16,0,0,1-1.21.44c-.68.22-3.71,1.21-6.71,2.24C103.65,586.68,103.57,586.68,103.57,586.49Z"/><path id="path546" class="cls-2" d="M124.79,579.13c0-.07,1.21-3.53,2.65-7.66s3.11-8.76,3.64-10.27a17.86,17.86,0,0,1,1.29-3.09c.26-.25,4.13,1.62,8.14,4,.84.47,2.12,1.21,2.84,1.58s2.62,1.36,4.17,2.24,3.6,2,4.51,2.54c1.67.92,1.67.92.76,1.29s-9,3.13-18.53,6.41l-7.39,2.53C125.36,579.24,124.79,579.35,124.79,579.13Z"/><path id="path548" class="cls-2" d="M186,578.58c-.61-.33-2.2-1.25-3.49-2a26.83,26.83,0,0,0-2.54-1.4c-.11,0-1.93-1-4.09-2.24s-5.08-3-6.55-3.76-3.11-1.76-3.68-2.13c-1.36-.92-2.39-.89-5.38.22a6.32,6.32,0,0,1-2.5.66c0-.33,17.88-17.78,18.23-17.78a17.2,17.2,0,0,1,1.43,3.24c.69,1.77,2.16,5.52,3.26,8.36,5.61,14.2,6.82,17.48,6.56,17.48A8.88,8.88,0,0,1,186,578.58Z"/></g><g id="layer115-9"><path id="path516-1" class="cls-2" d="M1029.94,700l2-.08,1-2.11a12.4,12.4,0,0,0,.83-2.2,10.21,10.21,0,0,0-2.1,1c-1.08.59-2.9,1.55-4.06,2.16a9.38,9.38,0,0,0-2.07,1.3c0,.1.53.15,1.18.13Z"/><path id="path518-6" class="cls-2" d="M1002.54,700c1.13-.1,1.16-.1,1.84-1.59a9,9,0,0,0,.61-1.6,36.93,36.93,0,0,0-4.8,2.31c-.66.37-1.19.74-1.19.86S1000.21,700.2,1002.54,700Z"/><path id="path520-1" class="cls-2" d="M1003,696.75a16.72,16.72,0,0,0,2.17-1.28,57.74,57.74,0,0,0,2.12-8.44,12.42,12.42,0,0,0-1-2.77c-1.44-3.17-2.67-5.89-4.92-11a37.11,37.11,0,0,0-2.17-4.49c-.1,0-.13.59-.08,1.3.13,1.35,1,17.4,1.24,22.87.18,3.55.33,4.78.58,4.78A18.94,18.94,0,0,0,1003,696.75Z"/><path id="path522-9" class="cls-2" d="M1031.7,695.59a3.73,3.73,0,0,0,1.62-1.4c.51-1,1.82-4,3.33-7.72.71-1.7,1.59-3.78,2-4.67,1.51-3.36,1.72-4.34,2.17-9.74l.4-5.22-5-5.08c-2.77-2.82-6.16-6.16-7.47-7.43l-2.43-2.33v.85c0,1.13,4,43.21,4.1,43.31A4.34,4.34,0,0,0,1031.7,695.59Z"/><path id="path524-2" class="cls-2" d="M1019.08,685.71l7.62-.2,1.59,0v-1.17a3.27,3.27,0,0,0-.32-1.57,57.22,57.22,0,0,0-5.86-3.27l-6.82-3.55c-.71-.37-3.06-1.62-5.23-2.8s-4-2.11-4.09-2.11-1.31-.66-2.8-1.47c-2.58-1.4-3.34-1.72-3.11-1.28.33.59,4.5,9.86,5.76,12.81.38.88,1,2.23,1.36,3a9.56,9.56,0,0,1,.66,1.65C1007.84,686,1008.92,686,1019.08,685.71Z"/><path id="path526-7" class="cls-2" d="M999,683.33c0-.64-.1-2.87-.23-5s-.33-5.32-.4-7.16c-.15-2.65-.25-3.34-.51-3.19-.6.34-11.87,10.91-11.87,11.16s3.16,1.47,12.43,5.08C999,684.48,999,684.43,999,683.33Z"/><path id="path528-1" class="cls-2" d="M1040.69,682.83c.76-.36,2.18-1,3.16-1.44,4.12-1.84,8.28-3.68,11.59-5.11,2-.85,5.68-2.5,8.34-3.65s6-2.65,7.4-3.26a7.63,7.63,0,0,0,2.39-1.33c-.12-.07-1.28-.51-2.6-.93s-2.62-.88-2.9-1c-.68-.24-5.58-1.94-9.34-3.19-1.67-.56-3.49-1.17-4-1.39l-3.78-1.31c-1.54-.51-4.6-1.57-6.82-2.33-12.07-4.14-15.58-5.32-15.68-5.2s3,3.17,6.86,7l7,6.92-.56,5.84-.53,5.84-1.11,2.52c-.6,1.4-1.11,2.6-1.11,2.65C1038.9,683.62,1039.28,683.47,1040.69,682.83Z"/><path id="path530-9" class="cls-2" d="M1027.92,680.41c-.16-1.26-1.72-17.82-2.15-22.8-.33-3.92-.53-5.49-.71-5.49a10.69,10.69,0,0,0-1.41.78c-.71.42-1.8,1-2.43,1.38s-1.54.83-2,1.15c-.8.52-4.85,2.77-7.19,4.05-.56.29-2.66,1.5-4.68,2.65-4,2.26-6.36,3.58-7.27,4-.55.27-.76.69-.33.69a8.64,8.64,0,0,1,1.72.83c.81.44,2.83,1.5,4.49,2.36s3.14,1.62,3.29,1.72,1.21.68,2.4,1.27,5.3,2.8,9.14,4.83,7.07,3.71,7.15,3.71A2.65,2.65,0,0,0,1027.92,680.41Z"/><path id="path532-2" class="cls-2" d="M988.7,675.3c1.56-1.47,2.88-2.74,2.93-2.84a4.66,4.66,0,0,0-1.77-.71c-1-.3-2.12-.62-2.48-.74a31,31,0,0,0-5-1.18c-.07.08.05.52.26,1s.91,2.16,1.56,3.78a25.33,25.33,0,0,0,1.37,3.16A13.38,13.38,0,0,0,988.7,675.3Z"/><path id="path534-3" class="cls-2" d="M975.39,676.85c1.79-.54,3.63-1.11,4.09-1.28l.81-.29-2.2-.93c-4.22-1.82-3.74-1.75-4.42-.72-.33.52-1,1.67-1.51,2.61-.74,1.34-.84,1.64-.48,1.61S973.57,677.39,975.39,676.85Z"/><path id="path536-5" class="cls-2" d="M1059,676.75c1.51-.34,3.74-.81,4.92-1.08,6.82-1.42,18.92-4,21.09-4.54,1.39-.32,3.66-.81,5-1.08a76.07,76.07,0,0,0,7.88-1.84c.2-.19-.13-.19-12.3.13-11.39.27-10.58.17-14.27,1.84l-8.58,3.77c-4,1.79-7.38,3.29-7.43,3.34C1055.11,677.51,1056.3,677.31,1059,676.75Z"/><path id="path538-7" class="cls-2" d="M983.6,675.5a38.68,38.68,0,0,0-2.48-5.86c-.35.19-3,1.32-4.42,1.86-.81.29-1.39.64-1.26.74s1.44.71,3,1.35,3.26,1.34,3.84,1.61C983.44,675.72,983.6,675.74,983.6,675.5Z"/><path id="path540-2" class="cls-2" d="M997,667.6a40.92,40.92,0,0,1,6.89-4.54,33.35,33.35,0,0,0,4.6-2.8,4.08,4.08,0,0,0-1.09-.44l-3.46-1.2c-1.38-.49-3.46-1.23-4.57-1.59l-2.07-.69-1.31,6.5c-.71,3.58-1.26,6.53-1.21,6.57A17.19,17.19,0,0,0,997,667.6Z"/><path id="path542-0" class="cls-2" d="M1087.64,667.4a29,29,0,0,0-5-2.77,7.77,7.77,0,0,0-1.54,1.47l-1.31,1.47h3.91A22.31,22.31,0,0,0,1087.64,667.4Z"/><path id="path544-8" class="cls-2" d="M1065.92,664.31c0-.19-2.72-6.57-2.85-6.7a3.78,3.78,0,0,0-1.49.69c-.73.47-2.1,1.33-3.06,1.89a15.36,15.36,0,0,0-1.69,1.15,2.58,2.58,0,0,0,.81.3c.45.14,2.47.81,4.47,1.49C1065.87,664.43,1065.92,664.43,1065.92,664.31Z"/><path id="path546-2" class="cls-2" d="M1051.78,659.41s-.81-2.36-1.77-5.11-2.07-5.84-2.42-6.84a11.56,11.56,0,0,0-.86-2.06c-.18-.18-2.75,1.08-5.43,2.67-.56.32-1.41.81-1.89,1.06s-1.75.9-2.78,1.49l-3,1.69c-1.11.62-1.11.62-.5.86s6,2.09,12.35,4.27l4.92,1.7C1051.4,659.48,1051.78,659.55,1051.78,659.41Z"/><path id="path548-9" class="cls-2" d="M1011,659l2.32-1.33a19,19,0,0,1,1.69-.93c.08,0,1.29-.69,2.73-1.5s3.38-2,4.37-2.5,2.07-1.18,2.45-1.42c.91-.62,1.59-.59,3.58.15a4.23,4.23,0,0,0,1.67.44c0-.22-11.92-11.85-12.15-11.85a11.61,11.61,0,0,0-1,2.16c-.45,1.17-1.44,3.68-2.17,5.57-3.74,9.47-4.54,11.65-4.37,11.65A7.23,7.23,0,0,0,1011,659Z"/></g><g id="layer115-9-1"><path id="path516-1-8" class="cls-2" d="M758.93,701l-1.36,0-.64-1.42a7.33,7.33,0,0,1-.56-1.48,7.67,7.67,0,0,1,1.4.64c.73.4,2,1,2.73,1.45a5.75,5.75,0,0,1,1.39.88c0,.06-.35.09-.79.08Z"/><path id="path518-6-9" class="cls-2" d="M777.31,701c-.76-.07-.78-.07-1.23-1.07a5.19,5.19,0,0,1-.41-1.07,24.43,24.43,0,0,1,3.22,1.54,2.4,2.4,0,0,1,.8.58C779.69,701.15,778.87,701.15,777.31,701Z"/><path id="path520-1-5" class="cls-2" d="M777,698.83a11.27,11.27,0,0,1-1.45-.86,38.28,38.28,0,0,1-1.43-5.66,8.83,8.83,0,0,1,.68-1.86c1-2.12,1.8-4,3.31-7.36a24.87,24.87,0,0,1,1.45-3c.07,0,.09.39.05.87-.08.91-.67,11.67-.83,15.34-.12,2.39-.22,3.21-.39,3.21A15,15,0,0,1,777,698.83Z"/><path id="path522-9-2" class="cls-2" d="M757.74,698.06a2.58,2.58,0,0,1-1.08-.94c-.34-.68-1.23-2.72-2.24-5.19-.48-1.13-1.07-2.53-1.34-3.13-1-2.25-1.15-2.91-1.46-6.53l-.27-3.51,3.39-3.41c1.86-1.89,4.14-4.13,5-5l1.62-1.56v.58c0,.75-2.67,29-2.74,29A2.74,2.74,0,0,1,757.74,698.06Z"/><path id="path524-2-8" class="cls-2" d="M766.21,691.42l-5.11-.13-1.07,0v-.79a2.13,2.13,0,0,1,.22-1.05,36.15,36.15,0,0,1,3.93-2.19c2.05-1.07,4.12-2.14,4.57-2.39s2.06-1.08,3.51-1.87,2.7-1.42,2.75-1.42.88-.44,1.88-1c1.73-.94,2.24-1.15,2.08-.85s-3,6.61-3.86,8.59c-.25.59-.66,1.5-.92,2a7.88,7.88,0,0,0-.44,1.1C773.75,691.62,773,691.62,766.21,691.42Z"/><path id="path526-7-8" class="cls-2" d="M779.69,689.82c0-.42.06-1.92.15-3.32s.22-3.57.27-4.81c.1-1.78.17-2.24.34-2.14.4.23,8,7.33,8,7.49s-2.12,1-8.33,3.41C779.7,690.6,779.69,690.57,779.69,689.82Z"/><path id="path528-1-5" class="cls-2" d="M751.71,689.49l-2.12-1c-2.76-1.23-5.56-2.47-7.78-3.42-1.3-.58-3.81-1.68-5.59-2.45s-4-1.78-5-2.19a5.43,5.43,0,0,1-1.61-.89c.09-.05.87-.35,1.75-.63s1.76-.59,2-.67c.45-.17,3.74-1.3,6.27-2.14,1.12-.38,2.34-.79,2.71-.94l2.54-.87,4.58-1.57c8.1-2.78,10.45-3.57,10.52-3.49s-2.05,2.13-4.61,4.68l-4.66,4.64.37,3.92.36,3.92.74,1.69c.41.94.75,1.75.75,1.78S752.66,689.92,751.71,689.49Z"/><path id="path530-9-7" class="cls-2" d="M760.28,687.87c.1-.84,1.15-12,1.44-15.3.22-2.63.36-3.69.48-3.69a8,8,0,0,1,.95.53c.47.28,1.2.69,1.62.92a15,15,0,0,1,1.36.78c.54.34,3.25,1.86,4.83,2.71.37.2,1.78,1,3.13,1.78,2.66,1.51,4.27,2.4,4.88,2.7.38.18.51.46.22.46a5.74,5.74,0,0,0-1.15.56c-.54.3-1.9,1-3,1.58s-2.11,1.09-2.21,1.15-.81.46-1.61.86l-6.13,3.24c-2.6,1.37-4.75,2.49-4.8,2.49A1.67,1.67,0,0,1,760.28,687.87Z"/><path id="path532-2-7" class="cls-2" d="M786.6,684.44c-1.05-1-1.93-1.84-2-1.91a3.38,3.38,0,0,1,1.19-.48c.68-.19,1.42-.41,1.66-.49a20.5,20.5,0,0,1,3.32-.79c.05.05,0,.35-.17.64s-.61,1.45-1,2.54a19.12,19.12,0,0,1-.91,2.12A8.91,8.91,0,0,1,786.6,684.44Z"/><path id="path534-3-5" class="cls-2" d="M795.53,685.48c-1.2-.36-2.44-.74-2.74-.86l-.55-.2,1.48-.62c2.83-1.22,2.51-1.17,3-.48.22.35.68,1.12,1,1.75.49.9.56,1.1.32,1.08S796.75,685.84,795.53,685.48Z"/><path id="path536-5-1" class="cls-2" d="M739.44,685.41l-3.31-.72c-4.57-1-12.69-2.7-14.15-3.05-.93-.21-2.45-.54-3.39-.72a49.84,49.84,0,0,1-5.28-1.24c-.14-.13.08-.13,8.25.09,7.64.18,7.1.11,9.57,1.23l5.77,2.54c2.71,1.2,4.94,2.2,5,2.23S741.23,685.79,739.44,685.41Z"/><path id="path538-7-8" class="cls-2" d="M790,684.57a26.1,26.1,0,0,1,1.66-3.93c.24.13,2,.89,3,1.25.54.2.93.43.85.49a20.23,20.23,0,0,1-2,.91c-1,.41-2.19.9-2.58,1.08C790.12,684.72,790,684.74,790,684.57Z"/><path id="path540-2-6" class="cls-2" d="M781,679.27a27.2,27.2,0,0,0-4.63-3,24,24,0,0,1-3.08-1.88,2.36,2.36,0,0,1,.73-.3l2.32-.8c.93-.33,2.32-.83,3.07-1.07l1.39-.47.88,4.37c.47,2.4.85,4.38.81,4.41A12.1,12.1,0,0,1,781,679.27Z"/><path id="path542-0-6" class="cls-2" d="M720.2,679.14a19.15,19.15,0,0,1,3.36-1.86,5.32,5.32,0,0,1,1,1l.88,1h-2.62A15,15,0,0,1,720.2,679.14Z"/><path id="path544-8-9" class="cls-2" d="M734.78,677.07c0-.14,1.83-4.42,1.91-4.5a2.46,2.46,0,0,1,1,.46c.49.31,1.41.89,2,1.27a9.82,9.82,0,0,1,1.14.77,1.62,1.62,0,0,1-.54.2c-.31.1-1.67.54-3,1C734.81,677.15,734.78,677.15,734.78,677.07Z"/><path id="path546-2-3" class="cls-2" d="M744.27,673.77s.54-1.58,1.18-3.42,1.39-3.92,1.63-4.6a7.54,7.54,0,0,1,.58-1.38,15.17,15.17,0,0,1,3.64,1.8c.37.21,1,.54,1.27.7s1.17.61,1.87,1l2,1.13c.75.42.75.42.34.58s-4,1.4-8.29,2.87l-3.3,1.13C744.52,673.82,744.27,673.87,744.27,673.77Z"/><path id="path548-9-1" class="cls-2" d="M771.64,673.53l-1.56-.89a10.83,10.83,0,0,0-1.14-.63c-.05,0-.86-.46-1.83-1s-2.27-1.32-2.93-1.68-1.39-.79-1.64-1c-.61-.41-1.07-.39-2.41.1a3,3,0,0,1-1.12.3c0-.15,8-7.95,8.15-7.95a7.63,7.63,0,0,1,.65,1.44c.3.79,1,2.47,1.45,3.74,2.51,6.36,3,7.82,2.94,7.82A3.7,3.7,0,0,1,771.64,673.53Z"/></g><g id="layer115-9-9"><path id="path516-1-5" class="cls-2" d="M1076.48,711.4l1,0,.48-1.05a5.59,5.59,0,0,0,.41-1.09,5,5,0,0,0-1,.47l-2,1.08a4.36,4.36,0,0,0-1,.64c0,.05.26.08.59.06Z"/><path id="path518-6-2" class="cls-2" d="M1062.85,711.41c.56,0,.58,0,.91-.79a5.07,5.07,0,0,0,.31-.79,18.45,18.45,0,0,0-2.39,1.14c-.33.19-.59.37-.59.43S1061.69,711.5,1062.85,711.41Z"/><path id="path520-1-7" class="cls-2" d="M1063.1,709.78a8.7,8.7,0,0,0,1.08-.64,29.26,29.26,0,0,0,1-4.2,6.26,6.26,0,0,0-.5-1.37c-.71-1.58-1.33-2.93-2.45-5.46a18.1,18.1,0,0,0-1.08-2.23s-.06.29,0,.64c.07.68.51,8.66.62,11.38.09,1.77.16,2.38.29,2.38A10.16,10.16,0,0,0,1063.1,709.78Z"/><path id="path522-9-6" class="cls-2" d="M1077.36,709.2a1.88,1.88,0,0,0,.8-.69c.25-.5.91-2,1.66-3.85.35-.84.79-1.88,1-2.31a11,11,0,0,0,1.08-4.85l.2-2.6-2.51-2.53c-1.38-1.4-3.06-3.06-3.72-3.69l-1.2-1.16v.42c0,.57,2,21.5,2,21.54A1.82,1.82,0,0,0,1077.36,709.2Z"/><path id="path524-2-4" class="cls-2" d="M1071.08,704.29l3.79-.1h.79v-.59a1.57,1.57,0,0,0-.16-.78,28.83,28.83,0,0,0-2.92-1.62l-3.39-1.77-2.6-1.39c-1.09-.58-2-1-2-1s-.66-.33-1.4-.74c-1.28-.69-1.66-.85-1.54-.63s2.23,4.9,2.86,6.37c.19.44.49,1.11.68,1.49a4.63,4.63,0,0,1,.33.82C1065.49,704.43,1066,704.43,1071.08,704.29Z"/><path id="path526-7-5" class="cls-2" d="M1061.09,703.1c0-.32,0-1.43-.11-2.46s-.17-2.65-.2-3.57c-.08-1.31-.13-1.66-.26-1.58-.3.17-5.9,5.43-5.9,5.55a59.74,59.74,0,0,0,6.18,2.53C1061.08,703.68,1061.09,703.65,1061.09,703.1Z"/><path id="path528-1-1" class="cls-2" d="M1081.83,702.86c.38-.19,1.08-.5,1.57-.72,2-.92,4.12-1.83,5.77-2.54,1-.43,2.82-1.25,4.14-1.82s3-1.32,3.68-1.62a3.94,3.94,0,0,0,1.2-.66,13.29,13.29,0,0,0-1.3-.46c-.65-.22-1.31-.44-1.44-.51-.34-.12-2.78-1-4.65-1.58-.83-.28-1.73-.59-2-.7l-1.89-.64-3.39-1.16c-6-2.07-7.75-2.65-7.8-2.59s1.52,1.57,3.42,3.47l3.45,3.44-.27,2.9-.27,2.91-.55,1.25c-.3.7-.55,1.3-.55,1.32S1081.13,703.18,1081.83,702.86Z"/><path id="path530-9-0" class="cls-2" d="M1075.47,701.65c-.07-.62-.85-8.86-1.07-11.34a10.24,10.24,0,0,0-.35-2.73,5.86,5.86,0,0,0-.7.39c-.35.21-.89.51-1.21.68s-.76.42-1,.58c-.4.25-2.41,1.38-3.58,2l-2.33,1.32c-2,1.12-3.16,1.78-3.61,2-.28.13-.38.34-.17.34a3.69,3.69,0,0,1,.86.42c.4.22,1.4.74,2.23,1.17s1.56.8,1.64.85.6.34,1.19.64,2.64,1.39,4.55,2.4,3.52,1.84,3.55,1.84S1075.51,702,1075.47,701.65Z"/><path id="path532-2-3" class="cls-2" d="M1056,699.11c.78-.73,1.44-1.37,1.46-1.41s-.38-.21-.88-.36l-1.23-.36a15.41,15.41,0,0,0-2.46-.59s0,.26.12.48.46,1.07.78,1.88a15.52,15.52,0,0,0,.68,1.57A6.7,6.7,0,0,0,1056,699.11Z"/><path id="path534-3-9" class="cls-2" d="M1049.34,699.88l2-.63.4-.15-1.09-.46c-2.1-.91-1.86-.87-2.2-.36-.16.26-.5.83-.75,1.3-.37.67-.42.81-.24.8S1048.44,700.15,1049.34,699.88Z"/><path id="path536-5-7" class="cls-2" d="M1090.92,699.83l2.45-.54c3.4-.7,9.41-2,10.49-2.25.69-.16,1.82-.41,2.52-.54a35.65,35.65,0,0,0,3.92-.92c.1-.09-.07-.09-6.12.07-5.67.13-5.27.08-7.1.91l-4.27,1.88c-2,.89-3.67,1.64-3.69,1.66S1089.59,700.11,1090.92,699.83Z"/><path id="path538-7-0" class="cls-2" d="M1053.43,699.21a19.74,19.74,0,0,0-1.23-2.92c-.18.1-1.5.66-2.2.93-.41.15-.69.32-.63.37s.71.35,1.48.67,1.62.67,1.91.8C1053.35,699.32,1053.43,699.33,1053.43,699.21Z"/><path id="path540-2-3" class="cls-2" d="M1060.08,695.28a21.16,21.16,0,0,1,3.43-2.26,16.53,16.53,0,0,0,2.29-1.39,1.75,1.75,0,0,0-.54-.22l-1.72-.6c-.69-.24-1.72-.61-2.28-.79l-1-.34-.65,3.23c-.35,1.78-.63,3.25-.6,3.27A8.61,8.61,0,0,0,1060.08,695.28Z"/><path id="path542-0-4" class="cls-2" d="M1105.18,695.18a14.37,14.37,0,0,0-2.49-1.38,4,4,0,0,0-.76.73l-.65.74h1.94A10.74,10.74,0,0,0,1105.18,695.18Z"/><path id="path544-8-7" class="cls-2" d="M1094.38,693.64c0-.09-1.36-3.27-1.42-3.33a1.89,1.89,0,0,0-.74.34c-.37.24-1,.66-1.52.94a6.53,6.53,0,0,0-.84.58,1.46,1.46,0,0,0,.4.14l2.22.75C1094.35,693.7,1094.38,693.7,1094.38,693.64Z"/><path id="path546-2-2" class="cls-2" d="M1087.34,691.2s-.4-1.17-.88-2.54-1-2.9-1.2-3.4a6.9,6.9,0,0,0-.43-1,11.24,11.24,0,0,0-2.7,1.33c-.28.16-.7.41-.94.53s-.87.45-1.38.74l-1.5.85c-.55.3-.55.3-.25.42s3,1,6.14,2.13l2.45.84C1087.16,691.24,1087.34,691.28,1087.34,691.2Z"/><path id="path548-9-8" class="cls-2" d="M1067.06,691l1.15-.66a8.42,8.42,0,0,1,.84-.46s.64-.34,1.36-.75l2.17-1.24,1.22-.71c.45-.3.79-.29,1.79.07a2.06,2.06,0,0,0,.82.22c0-.11-5.92-5.89-6-5.89a5,5,0,0,0-.47,1.07l-1.09,2.77c-1.85,4.71-2.26,5.8-2.17,5.8A3.62,3.62,0,0,0,1067.06,691Z"/></g><g id="layer115-9-9-7"><path id="path516-1-5-1" class="cls-2" d="M1136.69,712.61l1,0,.47-1.05a5.73,5.73,0,0,0,.42-1.1,5.83,5.83,0,0,0-1,.48l-2,1.07a4.89,4.89,0,0,0-1,.65s.27.07.59.06Z"/><path id="path518-6-2-6" class="cls-2" d="M1123.06,712.62c.57,0,.58,0,.92-.79a4.14,4.14,0,0,0,.3-.8,19.48,19.48,0,0,0-2.39,1.15,1.74,1.74,0,0,0-.59.43C1121.3,712.71,1121.91,712.71,1123.06,712.62Z"/><path id="path520-1-7-1" class="cls-2" d="M1123.31,711a7.63,7.63,0,0,0,1.08-.63,29.22,29.22,0,0,0,1.06-4.2,6.67,6.67,0,0,0-.5-1.38c-.72-1.57-1.34-2.93-2.45-5.45a17.83,17.83,0,0,0-1.08-2.24c-.05,0-.07.3,0,.65.06.67.5,8.65.61,11.38.09,1.76.17,2.37.29,2.37A9.15,9.15,0,0,0,1123.31,711Z"/><path id="path522-9-6-8" class="cls-2" d="M1137.57,710.41a2,2,0,0,0,.81-.69c.25-.51.9-2,1.65-3.85.36-.84.79-1.88,1-2.32a11.21,11.21,0,0,0,1.08-4.84l.2-2.6-2.52-2.53c-1.38-1.4-3.06-3.06-3.71-3.7l-1.21-1.16v.43c0,.56,2,21.49,2,21.54A2.14,2.14,0,0,0,1137.57,710.41Z"/><path id="path524-2-4-3" class="cls-2" d="M1131.29,705.49l3.79-.09.8,0v-.58a1.55,1.55,0,0,0-.17-.78,26.09,26.09,0,0,0-2.91-1.63c-1.52-.79-3.06-1.58-3.39-1.77s-1.52-.8-2.6-1.39-2-1.05-2-1.05-.65-.33-1.39-.73c-1.29-.7-1.66-.85-1.55-.63s2.24,4.9,2.86,6.37c.19.44.49,1.11.68,1.48a5,5,0,0,1,.33.82C1125.7,705.64,1126.24,705.64,1131.29,705.49Z"/><path id="path526-7-5-4" class="cls-2" d="M1121.3,704.31c0-.32,0-1.43-.11-2.47s-.16-2.64-.2-3.56c-.08-1.32-.13-1.66-.25-1.59-.3.17-5.91,5.43-5.91,5.56a62.08,62.08,0,0,0,6.18,2.52C1121.29,704.88,1121.3,704.86,1121.3,704.31Z"/><path id="path528-1-1-3" class="cls-2" d="M1142,704.06l1.57-.72c2.05-.91,4.12-1.83,5.77-2.53l4.15-1.82c1.3-.59,3-1.32,3.68-1.63a4.08,4.08,0,0,0,1.19-.65,13.22,13.22,0,0,0-1.29-.47c-.66-.22-1.31-.44-1.45-.5-.34-.12-2.78-1-4.65-1.58-.83-.29-1.73-.59-2-.7l-1.88-.65c-.77-.25-2.29-.78-3.39-1.16-6-2.06-7.75-2.64-7.8-2.58s1.52,1.57,3.41,3.46l3.46,3.44-.28,2.91-.26,2.9-.56,1.26c-.3.7-.55,1.29-.55,1.32S1141.34,704.38,1142,704.06Z"/><path id="path530-9-0-3" class="cls-2" d="M1135.69,702.86c-.08-.63-.86-8.86-1.07-11.34a10.24,10.24,0,0,0-.35-2.73,5.59,5.59,0,0,0-.71.39l-1.2.68a11.39,11.39,0,0,0-1,.57c-.4.26-2.41,1.38-3.58,2-.27.14-1.32.74-2.32,1.31-2,1.13-3.17,1.79-3.62,2-.28.13-.38.34-.16.34a4.2,4.2,0,0,1,.85.41c.4.22,1.41.75,2.24,1.17s1.56.81,1.63.86.6.34,1.19.63l4.55,2.41c1.92,1,3.52,1.84,3.56,1.84A1.52,1.52,0,0,0,1135.69,702.86Z"/><path id="path532-2-3-1" class="cls-2" d="M1116.18,700.32c.78-.73,1.43-1.37,1.45-1.42s-.37-.2-.87-.35l-1.24-.37a16,16,0,0,0-2.46-.58s0,.25.13.47.45,1.08.78,1.88a11.47,11.47,0,0,0,.68,1.58A6.7,6.7,0,0,0,1116.18,700.32Z"/><path id="path534-3-9-8" class="cls-2" d="M1109.56,701.09c.89-.27,1.81-.55,2-.64l.4-.14-1.09-.47c-2.1-.9-1.86-.86-2.2-.35-.16.25-.5.83-.75,1.29-.36.67-.42.82-.24.81S1108.65,701.36,1109.56,701.09Z"/><path id="path536-5-7-4" class="cls-2" d="M1151.14,701l2.45-.54c3.39-.71,9.41-2,10.49-2.26.69-.16,1.82-.4,2.51-.53a37.7,37.7,0,0,0,3.92-.92c.1-.1-.06-.1-6.12.06-5.66.14-5.26.09-7.1.92l-4.27,1.88c-2,.89-3.67,1.63-3.69,1.66S1149.81,701.32,1151.14,701Z"/><path id="path538-7-0-4" class="cls-2" d="M1113.64,700.42a19.74,19.74,0,0,0-1.23-2.92c-.18.1-1.5.66-2.2.93-.4.14-.69.31-.63.36a13.83,13.83,0,0,0,1.48.67c.76.31,1.63.68,1.91.81C1113.56,700.53,1113.64,700.54,1113.64,700.42Z"/><path id="path540-2-3-8" class="cls-2" d="M1120.3,696.49a19.68,19.68,0,0,1,3.43-2.26,18.05,18.05,0,0,0,2.28-1.39,1.64,1.64,0,0,0-.54-.22l-1.72-.6c-.69-.24-1.72-.61-2.27-.79l-1-.35-.65,3.24c-.36,1.78-.63,3.24-.61,3.27A8.53,8.53,0,0,0,1120.3,696.49Z"/><path id="path542-0-4-5" class="cls-2" d="M1165.4,696.39a14.37,14.37,0,0,0-2.49-1.38,4.28,4.28,0,0,0-.77.73l-.65.73h2A11.36,11.36,0,0,0,1165.4,696.39Z"/><path id="path544-8-7-8" class="cls-2" d="M1154.59,694.85c0-.1-1.35-3.27-1.42-3.33a1.84,1.84,0,0,0-.74.34c-.36.23-1,.66-1.52.94a8.34,8.34,0,0,0-.84.57,1.17,1.17,0,0,0,.4.15c.23.07,1.23.4,2.23.75C1154.57,694.91,1154.59,694.91,1154.59,694.85Z"/><path id="path546-2-2-6" class="cls-2" d="M1147.56,692.41s-.4-1.17-.88-2.54l-1.21-3.4a5.84,5.84,0,0,0-.42-1,11.4,11.4,0,0,0-2.71,1.33l-.94.53c-.24.12-.86.45-1.38.74l-1.49.84c-.56.31-.56.31-.26.43s3,1,6.15,2.12l2.45.85C1147.37,692.45,1147.56,692.48,1147.56,692.41Z"/><path id="path548-9-8-8" class="cls-2" d="M1127.27,692.23l1.16-.66a7.36,7.36,0,0,1,.84-.47s.64-.34,1.35-.74,1.69-1,2.18-1.25,1-.58,1.22-.7c.45-.31.79-.3,1.78.07a2.09,2.09,0,0,0,.83.22c0-.11-5.93-5.89-6-5.89a5.35,5.35,0,0,0-.48,1.07c-.23.59-.72,1.83-1.08,2.77-1.86,4.71-2.26,5.8-2.17,5.8A4,4,0,0,0,1127.27,692.23Z"/></g><g id="layer115-98"><path id="path516-9" class="cls-2" d="M352.76,700.24l3.75-.13,1.78-3.92a22,22,0,0,0,1.55-4.1,19.58,19.58,0,0,0-3.89,1.78c-2,1.09-5.39,2.86-7.55,4s-3.84,2.19-3.84,2.42,1,.27,2.2.23Z"/><path id="path518-64" class="cls-2" d="M301.89,700.29c2.11-.18,2.16-.18,3.42-3a15.08,15.08,0,0,0,1.13-3c-.19-.14-3.85,1.64-8.91,4.28-1.22.68-2.2,1.36-2.2,1.59S297.58,700.61,301.89,700.29Z"/><path id="path520-8" class="cls-2" d="M302.83,694.18a33.61,33.61,0,0,0,4-2.36c.56-.6,3.94-14,3.94-15.67a23.89,23.89,0,0,0-1.88-5.15c-2.67-5.88-5-10.93-9.14-20.36-2-4.6-3.84-8.34-4-8.34s-.24,1.1-.14,2.42c.23,2.5,1.87,32.29,2.3,42.45.32,6.6.6,8.88,1.07,8.88A35.14,35.14,0,0,0,302.83,694.18Z"/><path id="path522-6" class="cls-2" d="M356,692a7.11,7.11,0,0,0,3-2.59c.93-1.87,3.37-7.52,6.18-14.35,1.32-3.14,3-7,3.71-8.66,2.81-6.24,3.19-8.06,4-18.08l.75-9.7-9.38-9.43c-5.15-5.24-11.44-11.43-13.88-13.8L346,611.1v1.6c0,2.09,7.41,80.21,7.6,80.39A7.92,7.92,0,0,0,356,692Z"/><path id="path524-1" class="cls-2" d="M332.6,673.69c6.19-.14,12.57-.32,14.16-.37l2.95,0v-2.19a6,6,0,0,0-.6-2.91c-.29-.41-5.21-3.15-10.88-6.06s-11.4-5.92-12.66-6.61-5.68-3-9.71-5.19-7.45-3.92-7.59-3.92-2.44-1.23-5.21-2.73c-4.78-2.6-6.19-3.19-5.76-2.37.61,1.09,8.34,18.31,10.69,23.78.7,1.64,1.82,4.14,2.53,5.55a20.14,20.14,0,0,1,1.22,3.06C311.74,674.23,313.75,674.23,332.6,673.69Z"/><path id="path526-3" class="cls-2" d="M295.33,669.27c0-1.19-.19-5.33-.43-9.2s-.61-9.89-.75-13.3c-.28-4.92-.46-6.2-.93-5.92-1.13.63-22,20.27-22,20.72S277,664.3,294.25,671C295.28,671.41,295.33,671.32,295.33,669.27Z"/><path id="path528-6" class="cls-2" d="M372.74,668.36c1.4-.69,4-1.87,5.86-2.69,7.64-3.42,15.38-6.83,21.52-9.47,3.61-1.6,10.55-4.65,15.47-6.79s11.07-4.92,13.74-6.06,4.64-2.28,4.45-2.46a51.24,51.24,0,0,0-4.83-1.73c-2.44-.82-4.87-1.64-5.39-1.87-1.27-.45-10.36-3.6-17.35-5.92-3.09-1-6.47-2.19-7.5-2.6l-7-2.41c-2.86-1-8.54-2.91-12.66-4.33-22.41-7.69-28.93-9.88-29.12-9.65-.09,0,5.68,5.87,12.76,12.93l12.89,12.85-1,10.84-1,10.84-2.06,4.69c-1.13,2.6-2.06,4.83-2.06,4.92C369.41,669.82,370.11,669.54,372.74,668.36Z"/><path id="path530-94" class="cls-2" d="M349,663.85c-.28-2.32-3.19-33.07-4-42.32-.61-7.29-1-10.2-1.32-10.2a21.24,21.24,0,0,0-2.62,1.46c-1.32.77-3.33,1.91-4.5,2.55s-2.86,1.55-3.75,2.14c-1.5,1-9,5.15-13.37,7.51-1,.55-4.92,2.78-8.67,4.92-7.36,4.19-11.82,6.65-13.5,7.47-1,.5-1.41,1.28-.61,1.28a15.26,15.26,0,0,1,3.18,1.55c1.5.82,5.26,2.78,8.35,4.37s5.81,3,6.1,3.19,2.25,1.27,4.45,2.37,9.85,5.19,17,9S348.87,666,349,666A4.59,4.59,0,0,0,349,663.85Z"/><path id="path532-8" class="cls-2" d="M276.2,654.37c2.9-2.73,5.34-5.1,5.44-5.28s-1.41-.77-3.29-1.32-3.94-1.14-4.59-1.37c-3-.95-9-2.37-9.19-2.18s.09.95.47,1.77,1.69,4,2.9,7a49.92,49.92,0,0,0,2.54,5.87C270.71,659.11,273.24,657.06,276.2,654.37Z"/><path id="path534-21" class="cls-2" d="M251.49,657.24c3.33-1,6.75-2,7.59-2.37l1.5-.54-4.08-1.73c-7.83-3.37-6.93-3.24-8.2-1.32-.61,1-1.88,3.09-2.81,4.82-1.36,2.51-1.55,3.06-.89,3C245,659.07,248.11,658.25,251.49,657.24Z"/><path id="path536-52" class="cls-2" d="M406.68,657.06c2.81-.64,6.94-1.5,9.14-2,12.66-2.64,35.12-7.47,39.15-8.43,2.58-.59,6.8-1.5,9.38-2,7.46-1.51,14.3-3.1,14.63-3.42s-.23-.36-22.83.23c-21.15.5-19.65.32-26.49,3.41-1.32.6-8.49,3.74-16,7S400,658,399.93,658.06C399.51,658.47,401.71,658.11,406.68,657.06Z"/><path id="path538-1" class="cls-2" d="M266.73,654.74c0-.82-4.32-11.07-4.6-10.89-.66.37-5.58,2.46-8.2,3.46-1.5.55-2.58,1.19-2.35,1.37a58.64,58.64,0,0,0,5.53,2.51c2.82,1.13,6.05,2.5,7.13,3C266.44,655.15,266.73,655.19,266.73,654.74Z"/><path id="path540-9" class="cls-2" d="M291.58,640.07c2.95-2.55,6.28-4.74,12.8-8.43,4.87-2.68,8.67-5,8.53-5.19a7.11,7.11,0,0,0-2-.82c-.94-.32-3.84-1.32-6.42-2.23s-6.42-2.28-8.49-3l-3.84-1.28-2.44,12.07c-1.31,6.65-2.34,12.12-2.25,12.21A31.72,31.72,0,0,0,291.58,640.07Z"/><path id="path542-8" class="cls-2" d="M459.9,639.71c0-.41-8.58-5.15-9.29-5.15a15.06,15.06,0,0,0-2.86,2.73L445.32,640h7.26C456.62,640,459.9,639.89,459.9,639.71Z"/><path id="path544-0" class="cls-2" d="M419.58,634c0-.37-5.07-12.21-5.3-12.44a6.83,6.83,0,0,0-2.77,1.28c-1.36.86-3.89,2.46-5.67,3.51a26.49,26.49,0,0,0-3.14,2.14,5.26,5.26,0,0,0,1.5.54c.84.28,4.59,1.51,8.3,2.78C419.48,634.2,419.58,634.2,419.58,634Z"/><path id="path546-01" class="cls-2" d="M393.32,624.86c0-.09-1.5-4.38-3.28-9.48s-3.85-10.84-4.5-12.7a21.38,21.38,0,0,0-1.6-3.83c-.33-.32-5.11,2-10.08,5-1,.6-2.62,1.51-3.52,2s-3.23,1.69-5.15,2.78l-5.58,3.14c-2.07,1.14-2.07,1.14-.94,1.6s11.11,3.87,22.93,7.92c4,1.37,8.11,2.78,9.14,3.15C392.62,625,393.32,625.13,393.32,624.86Z"/><path id="path548-4" class="cls-2" d="M317.6,624.17c.75-.41,2.72-1.54,4.31-2.46a35.71,35.71,0,0,1,3.14-1.73c.14,0,2.39-1.27,5.07-2.77s6.28-3.65,8.11-4.65,3.84-2.19,4.55-2.64c1.68-1.14,3-1.1,6.65.27,1.69.64,3.1,1,3.1.82,0-.41-22.13-22-22.55-22a20.15,20.15,0,0,0-1.79,4c-.84,2.19-2.67,6.83-4,10.34-6.94,17.58-8.44,21.63-8.11,21.63A12,12,0,0,0,317.6,624.17Z"/></g><g id="g5287"><path id="path5283" class="cls-1" d="M1270.62,663.42l-6.86-8.23h6.86l-8.14-8.33h5.3l-12.16-15.29-12.25,15.29h5.3l-8.14,8.33h6.86l-6.86,8.23Z"/><path id="path5285" class="cls-1" d="M1253.66,663.42h3.73v12.74h-3.73Z"/></g><g id="g5293"><path id="path5289" class="cls-1" d="M845.54,650.92l-6.86-8.24h6.86l-8.13-8.33h5.39l-12.25-15.28L818.3,634.35h5.39l-8.13,8.33h6.86l-6.86,8.24Z"/><path id="path5291" class="cls-1" d="M828.69,650.92h3.72v12.74h-3.72Z"/></g></svg>