<svg id="_2" data-name="2" xmlns="http://www.w3.org/2000/svg" viewBox="0 0 1372 726.87"><defs><style>.cls-1{fill:#351b50;}.cls-2{fill:#3f7f3f;}.cls-3{fill:#c98e3a;}.cls-4{fill:#ebd790;}.cls-5{fill:#812024;}.cls-6{fill:#ac272d;}.cls-7{fill:#621b1d;}</style></defs><title>2</title><path id="path5151" class="cls-1" d="M1241.76,556l-54.39,41.16-97-20.58L946.53,632.91,345,652.34l-117.7-41.51-93.88,15.95-56.9-38.29L0,572.52V726.87H1372V597.11Z"/><g id="layer115-8-7"><path id="path516-3-7" class="cls-2" d="M888.73,667.87l.83,0,.4-.87a4.89,4.89,0,0,0,.34-.91,4.25,4.25,0,0,0-.86.39l-1.68.89a4.11,4.11,0,0,0-.86.54s.22.06.49,0Z"/><path id="path518-2-7" class="cls-2" d="M877.41,667.88c.47,0,.48,0,.77-.66a3.93,3.93,0,0,0,.25-.66,15.68,15.68,0,0,0-2,1c-.27.16-.49.31-.49.36S876.45,668,877.41,667.88Z"/><path id="path520-5-2" class="cls-2" d="M877.62,666.52a5.73,5.73,0,0,0,.9-.53,24.86,24.86,0,0,0,.88-3.48,5.23,5.23,0,0,0-.42-1.14c-.6-1.31-1.11-2.44-2-4.53a14.23,14.23,0,0,0-.89-1.86s0,.25,0,.54c.05.56.41,7.18.51,9.44.07,1.47.13,2,.24,2S877.19,666.74,877.62,666.52Z"/><path id="path522-8-8" class="cls-2" d="M889.46,666.05a1.61,1.61,0,0,0,.66-.58c.21-.42.76-1.67,1.38-3.19.29-.7.66-1.56.82-1.93a9.19,9.19,0,0,0,.9-4l.17-2.16-2.09-2.09c-1.14-1.17-2.54-2.55-3.08-3.07l-1-1v.35c0,.47,1.64,17.84,1.68,17.88A1.71,1.71,0,0,0,889.46,666.05Z"/><path id="path524-24-4" class="cls-2" d="M884.24,662l3.15-.08h.66v-.48a1.23,1.23,0,0,0-.14-.65,22.21,22.21,0,0,0-2.42-1.35l-2.81-1.47-2.16-1.15c-.91-.48-1.66-.87-1.69-.87s-.54-.28-1.16-.61c-1.06-.58-1.37-.71-1.28-.53s1.86,4.07,2.38,5.29c.16.36.41.92.56,1.23a4.05,4.05,0,0,1,.27.68C879.6,662.08,880.05,662.08,884.24,662Z"/><path id="path526-1-9" class="cls-2" d="M876,661c0-.26,0-1.18-.09-2.05s-.14-2.19-.17-2.95c-.06-1.1-.1-1.38-.21-1.32s-4.9,4.51-4.9,4.61a50.21,50.21,0,0,0,5.13,2.1C875.94,661.46,876,661.44,876,661Z"/><path id="path528-8-7" class="cls-2" d="M893.17,660.78l1.3-.6c1.7-.76,3.42-1.52,4.79-2.11l3.44-1.51,3-1.34c.59-.27,1-.51,1-.55s-.53-.21-1.07-.38l-1.2-.42c-.28-.1-2.3-.8-3.86-1.32-.68-.23-1.44-.48-1.66-.57s-.94-.33-1.57-.54l-2.81-1c-5-1.72-6.44-2.2-6.48-2.15s1.26,1.31,2.84,2.88l2.86,2.85-.22,2.41-.22,2.41-.46,1c-.25.57-.46,1.07-.46,1.09S892.59,661,893.17,660.78Z"/><path id="path530-2-9" class="cls-2" d="M887.89,659.78c-.06-.52-.71-7.36-.88-9.41a8.19,8.19,0,0,0-.3-2.27,4.67,4.67,0,0,0-.58.32l-1,.57a8.78,8.78,0,0,0-.83.47c-.34.22-2,1.15-3,1.67l-1.92,1.1c-1.64.93-2.63,1.48-3,1.66s-.31.28-.13.28a4,4,0,0,1,.71.35c.33.18,1.16.62,1.85,1s1.29.67,1.36.71.5.28,1,.53l3.77,2c1.6.84,2.92,1.53,2.95,1.53A1,1,0,0,0,887.89,659.78Z"/><path id="path532-3-3" class="cls-2" d="M871.7,657.67c.65-.61,1.19-1.14,1.21-1.18a2,2,0,0,0-.73-.29l-1-.3a12.4,12.4,0,0,0-2-.49s0,.21.11.39.37.9.64,1.56a13.15,13.15,0,0,0,.57,1.31A5.48,5.48,0,0,0,871.7,657.67Z"/><path id="path534-2-7" class="cls-2" d="M866.21,658.31c.74-.23,1.5-.46,1.68-.53l.34-.12-.91-.39c-1.74-.75-1.54-.72-1.82-.29-.14.21-.42.69-.63,1.07-.3.56-.34.68-.2.67S865.45,658.53,866.21,658.31Z"/><path id="path536-1-3" class="cls-2" d="M900.72,658.27c.62-.15,1.54-.34,2-.45,2.82-.59,7.81-1.66,8.71-1.87.57-.14,1.51-.34,2.08-.45a30.89,30.89,0,0,0,3.26-.76c.08-.08-.06-.08-5.08,0-4.7.11-4.37.07-5.89.76l-3.55,1.56c-1.67.74-3,1.36-3.06,1.38S899.61,658.5,900.72,658.27Z"/><path id="path538-0-2" class="cls-2" d="M869.59,657.75a16.32,16.32,0,0,0-1-2.42c-.14.08-1.24.55-1.82.77-.34.12-.58.26-.52.3a11,11,0,0,0,1.23.56c.62.25,1.34.56,1.58.67C869.53,657.84,869.59,657.85,869.59,657.75Z"/><path id="path540-6-7" class="cls-2" d="M875.12,654.49a16.69,16.69,0,0,1,2.85-1.88,12.94,12.94,0,0,0,1.89-1.15,1.54,1.54,0,0,0-.44-.18l-1.43-.5c-.58-.2-1.43-.51-1.89-.66l-.85-.28-.55,2.68c-.29,1.48-.52,2.7-.5,2.72A7.56,7.56,0,0,0,875.12,654.49Z"/><path id="path542-2-5" class="cls-2" d="M912.55,654.41a12.25,12.25,0,0,0-2.06-1.15,3.47,3.47,0,0,0-.64.61l-.54.61h1.62A9.32,9.32,0,0,0,912.55,654.41Z"/><path id="path544-9-5" class="cls-2" d="M903.59,653.13c0-.08-1.13-2.71-1.18-2.76s-.32.09-.62.28-.86.55-1.26.78a5.75,5.75,0,0,0-.7.47,1.06,1.06,0,0,0,.34.13l1.84.61C903.56,653.18,903.59,653.18,903.59,653.13Z"/><path id="path546-0-8" class="cls-2" d="M897.75,651.1s-.34-1-.73-2.1-.86-2.41-1-2.83a5.36,5.36,0,0,0-.36-.85,9.34,9.34,0,0,0-2.24,1.1c-.23.14-.58.34-.78.44s-.72.37-1.15.62l-1.24.7c-.46.25-.46.25-.21.35l5.1,1.76,2,.7C897.59,651.13,897.75,651.17,897.75,651.1Z"/><path id="path548-6-3" class="cls-2" d="M880.91,651l1-.54a6.19,6.19,0,0,1,.69-.39s.54-.28,1.13-.62l1.8-1c.4-.22.86-.49,1-.59.37-.25.65-.24,1.48.06a1.86,1.86,0,0,0,.68.19c0-.1-4.92-4.9-5-4.9a4.89,4.89,0,0,0-.4.89c-.18.49-.59,1.52-.89,2.3a39.22,39.22,0,0,0-1.81,4.81A2.86,2.86,0,0,0,880.91,651Z"/></g><g id="layer115-8"><path id="path516-3" class="cls-2" d="M666.55,680.63l1.61,0,.77-1.68a9.72,9.72,0,0,0,.66-1.76,8.42,8.42,0,0,0-1.67.76c-.86.47-2.31,1.23-3.24,1.72a7.92,7.92,0,0,0-1.65,1c0,.08.43.12,1,.1Z"/><path id="path518-2" class="cls-2" d="M644.73,680.65c.9-.07.92-.07,1.47-1.27a6.56,6.56,0,0,0,.48-1.27,29.8,29.8,0,0,0-3.82,1.84,2.77,2.77,0,0,0-1,.68C641.91,680.79,642.88,680.79,644.73,680.65Z"/><path id="path520-5" class="cls-2" d="M645.13,678a14,14,0,0,0,1.73-1,46.72,46.72,0,0,0,1.69-6.72,9.69,9.69,0,0,0-.81-2.21c-1.14-2.52-2.13-4.69-3.92-8.74a28.09,28.09,0,0,0-1.73-3.57c-.08,0-.1.46-.06,1,.1,1.08.81,13.86,1,18.22.14,2.83.26,3.81.46,3.81A16.45,16.45,0,0,0,645.13,678Z"/><path id="path522-8" class="cls-2" d="M668,677.12a3.06,3.06,0,0,0,1.29-1.12c.4-.8,1.45-3.22,2.66-6.15.56-1.35,1.26-3,1.58-3.72,1.21-2.67,1.37-3.46,1.73-7.76l.33-4.16-4-4c-2.21-2.25-4.91-4.91-5.95-5.93l-1.93-1.85v.68c0,.9,3.18,34.42,3.26,34.5A3.51,3.51,0,0,0,668,677.12Z"/><path id="path524-24" class="cls-2" d="M657.9,669.24l6.08-.16,1.27,0v-.93a2.41,2.41,0,0,0-.27-1.25,43.39,43.39,0,0,0-4.66-2.6c-2.44-1.27-4.89-2.54-5.43-2.84s-2.44-1.29-4.17-2.22-3.2-1.69-3.26-1.69-1-.52-2.23-1.17c-2.05-1.11-2.66-1.37-2.47-1s3.58,7.85,4.58,10.2c.3.7.79,1.78,1.09,2.38a8.34,8.34,0,0,1,.52,1.31C649,669.48,649.82,669.48,657.9,669.24Z"/><path id="path526-1" class="cls-2" d="M641.91,667.35c0-.51-.08-2.29-.18-4s-.26-4.24-.32-5.71c-.12-2.11-.2-2.66-.4-2.54-.49.27-9.46,8.7-9.46,8.89s2.52,1.17,9.9,4.05C641.89,668.26,641.91,668.22,641.91,667.35Z"/><path id="path528-8" class="cls-2" d="M675.12,667c.61-.29,1.73-.8,2.52-1.15,3.28-1.46,6.6-2.93,9.23-4.06l6.64-2.92c2.09-.93,4.75-2.11,5.9-2.6a6.19,6.19,0,0,0,1.91-1.05c-.1-.06-1-.41-2.08-.74s-2.09-.71-2.31-.8c-.54-.2-4.45-1.55-7.44-2.54-1.33-.45-2.78-.94-3.22-1.12l-3-1-5.43-1.86c-9.62-3.3-12.41-4.24-12.49-4.14s2.43,2.52,5.47,5.55l5.53,5.51-.44,4.65-.42,4.65-.89,2c-.48,1.12-.88,2.07-.88,2.11S674,667.46,675.12,667Z"/><path id="path530-2" class="cls-2" d="M664.94,665c-.12-1-1.36-14.19-1.71-18.16-.26-3.12-.42-4.37-.56-4.37a9.23,9.23,0,0,0-1.13.62c-.56.33-1.42.82-1.93,1.1s-1.22.66-1.61.91c-.64.41-3.86,2.21-5.73,3.23-.44.23-2.11,1.19-3.72,2.11-3.16,1.8-5.07,2.85-5.79,3.2-.45.22-.61.55-.27.55a6.77,6.77,0,0,1,1.37.67c.65.35,2.26,1.19,3.58,1.87s2.5,1.29,2.62,1.37,1,.55,1.91,1,4.22,2.22,7.28,3.85,5.63,3,5.69,3S665,665.53,664.94,665Z"/><path id="path532-3" class="cls-2" d="M633.7,661c1.25-1.17,2.3-2.18,2.34-2.26a3.88,3.88,0,0,0-1.41-.57c-.81-.23-1.69-.49-2-.59a24.92,24.92,0,0,0-3.95-.93c-.06,0,0,.41.21.76s.72,1.72,1.24,3a23.09,23.09,0,0,0,1.09,2.52A10.23,10.23,0,0,0,633.7,661Z"/><path id="path534-2" class="cls-2" d="M623.1,662.19c1.43-.43,2.9-.88,3.26-1l.64-.24-1.75-.74c-3.36-1.44-3-1.39-3.52-.56-.26.41-.8,1.32-1.2,2.07-.59,1.07-.67,1.31-.39,1.29S621.65,662.62,623.1,662.19Z"/><path id="path536-1" class="cls-2" d="M689.69,662.11c1.21-.28,3-.65,3.92-.86,5.43-1.14,15.07-3.21,16.8-3.62,1.11-.25,2.92-.64,4-.86a61.52,61.52,0,0,0,6.28-1.46c.16-.16-.1-.16-9.8.09-9.07.22-8.43.14-11.36,1.47l-6.84,3c-3.22,1.43-5.88,2.62-5.92,2.66S687.56,662.56,689.69,662.11Z"/><path id="path538-0" class="cls-2" d="M629.64,661.11a30.81,30.81,0,0,0-2-4.67c-.28.16-2.4,1.06-3.52,1.49-.65.23-1.11.5-1,.58a23.88,23.88,0,0,0,2.38,1.08c1.2.48,2.59,1.07,3.05,1.29C629.52,661.29,629.64,661.31,629.64,661.11Z"/><path id="path540-6" class="cls-2" d="M640.3,654.82a32.75,32.75,0,0,1,5.49-3.62,26.12,26.12,0,0,0,3.66-2.23,3.27,3.27,0,0,0-.86-.35c-.4-.13-1.65-.56-2.76-1s-2.75-1-3.64-1.27l-1.65-.54-1,5.18c-.57,2.85-1,5.19-1,5.23A12.6,12.6,0,0,0,640.3,654.82Z"/><path id="path542-2" class="cls-2" d="M712.52,654.66a23.51,23.51,0,0,0-4-2.21,6.24,6.24,0,0,0-1.23,1.18l-1,1.17h3.11A17.47,17.47,0,0,0,712.52,654.66Z"/><path id="path544-9" class="cls-2" d="M695.22,652.2c0-.16-2.17-5.24-2.27-5.34a3.07,3.07,0,0,0-1.19.55c-.58.37-1.67,1.06-2.43,1.51a11.89,11.89,0,0,0-1.35.91,2.14,2.14,0,0,0,.64.24c.36.12,2,.64,3.56,1.19C695.18,652.3,695.22,652.3,695.22,652.2Z"/><path id="path546-0" class="cls-2" d="M684,648.29s-.65-1.88-1.41-4.06-1.65-4.66-1.93-5.46a10,10,0,0,0-.69-1.64c-.14-.14-2.19.86-4.32,2.13-.45.26-1.13.65-1.51.84s-1.39.72-2.21,1.19l-2.4,1.35c-.88.49-.88.49-.4.69s4.77,1.66,9.84,3.4l3.92,1.35C683.65,648.35,684,648.41,684,648.29Z"/><path id="path548-6" class="cls-2" d="M651.47,648l1.85-1.06a13.61,13.61,0,0,1,1.34-.74c.07,0,1-.55,2.18-1.19s2.69-1.57,3.48-2,1.65-.93,1.95-1.13c.72-.49,1.27-.47,2.86.12a3.33,3.33,0,0,0,1.32.35c0-.18-9.49-9.44-9.67-9.44a8.45,8.45,0,0,0-.77,1.72c-.36.94-1.14,2.93-1.73,4.44-3,7.54-3.62,9.28-3.48,9.28A6.67,6.67,0,0,0,651.47,648Z"/></g><g id="g5979-8-4"><path id="path24-5-2" class="cls-3" d="M346,403.05a90.38,90.38,0,0,0,23-21.6h0l0-.06A91.28,91.28,0,0,0,378.75,365l120-253.41L250.54,249.86A90.26,90.26,0,1,0,346,403.05"/><path id="path26-8-7" class="cls-4" d="M255,271.15,451.63,162.53,350.93,372.06,255,271.15"/><path id="path28-0-7" class="cls-5" d="M337.92,383.05a70.8,70.8,0,0,0,8.93-6.93q2.13-2,4.08-4.06c-.6.42-1.2.84-1.81,1.24a69.78,69.78,0,0,1-89.21-106,69.78,69.78,0,0,0,78,115.71"/><path id="path30-1-4" class="cls-6" d="M241.63,322.18A69.81,69.81,0,0,0,349.12,373.3c.61-.4,1.21-.82,1.81-1.24A69.78,69.78,0,0,0,271.16,261a68.66,68.66,0,0,0-7,3.66c-1.45.86-2.85,1.77-4.23,2.73a69.62,69.62,0,0,0-18.28,54.84"/><path id="path32-5-0" class="cls-7" d="M264.16,316.68a15.29,15.29,0,0,1,16.48,11.67,16.36,16.36,0,0,0-.07-2,15.3,15.3,0,0,0-30.43,3.23,17.29,17.29,0,0,0,.35,1.93,15.29,15.29,0,0,1,13.67-14.86"/><path id="path34-3-9" class="cls-5" d="M267,343.21a15.29,15.29,0,0,0,13.67-14.86,15.28,15.28,0,0,0-30.15,3.19A15.29,15.29,0,0,0,267,343.21"/><path id="path36-8-8" class="cls-7" d="M350,328a8.63,8.63,0,0,1,9.3,6.58,10.29,10.29,0,0,0,0-1.11,8.63,8.63,0,0,0-17.17,1.82,7.76,7.76,0,0,0,.2,1.09A8.62,8.62,0,0,1,350,328"/><path id="path38-8-7" class="cls-5" d="M351.59,342.92a7.58,7.58,0,1,0-9.3-6.58,8.63,8.63,0,0,0,9.3,6.58"/><path id="path40-3-6" class="cls-7" d="M333.6,349.13a5.57,5.57,0,0,1,6,4.24,5.67,5.67,0,0,0,0-.71,5.56,5.56,0,0,0-11.06,1.17,5.38,5.38,0,0,0,.12.7,5.57,5.57,0,0,1,5-5.4"/><path id="path42-3-3" class="cls-5" d="M334.62,358.77a4.89,4.89,0,1,0-6-4.24,5.54,5.54,0,0,0,6,4.24"/><path id="path44-6-7" class="cls-7" d="M272.42,274.34c4.7-2.23,10-1.12,12.35,2.41a6.73,6.73,0,0,0-.38-1c-2-4.27-7.8-5.78-12.91-3.36s-7.61,7.83-5.59,12.1a7.36,7.36,0,0,0,.55,1c-1.21-4.07,1.27-8.85,6-11.07"/><path id="path46-7-9" class="cls-5" d="M278.79,287.83c4.71-2.23,7.19-7,6-11.08-2.38-3.53-7.65-4.64-12.35-2.41s-7.19,7-6,11.07c2.38,3.53,7.65,4.64,12.35,2.42"/><path id="path48-6-4" class="cls-7" d="M293.09,278.8a2.69,2.69,0,0,1,3.42,1,1.51,1.51,0,0,0-.13-.33,2.67,2.67,0,1,0-4.83,2.29,3.07,3.07,0,0,0,.17.31,2.7,2.7,0,0,1,1.37-3.31"/><path id="path50-8-5" class="cls-5" d="M295.15,283.16a2.42,2.42,0,1,0-3.43-1.05,2.71,2.71,0,0,0,3.43,1.05"/><path id="path52-6-0" class="cls-7" d="M271.8,352.33a4.33,4.33,0,0,1,5.3,2.15,3.63,3.63,0,0,0-.15-.54,4.33,4.33,0,0,0-8.18,2.86c.07.18.14.35.22.51a4.34,4.34,0,0,1,2.81-5"/><path id="path54-1-8" class="cls-5" d="M274.29,359.46a3.81,3.81,0,1,0-5.3-2.15,4.34,4.34,0,0,0,5.3,2.15"/><path id="path56-7-6" class="cls-7" d="M325.6,329.24a1.79,1.79,0,0,1,2.19.89l-.06-.22a1.79,1.79,0,0,0-3.38,1.18,1,1,0,0,0,.09.21,1.78,1.78,0,0,1,1.16-2.06"/><path id="path58-6-6" class="cls-5" d="M326.63,332.19a1.57,1.57,0,1,0-2.19-.89,1.79,1.79,0,0,0,2.19.89"/><path id="path60-9-6" class="cls-7" d="M348.87,313.8a1.77,1.77,0,0,1,1.55,1.78,1.89,1.89,0,0,0,.05-.23,1.79,1.79,0,0,0-3.55-.47,2,2,0,0,0,0,.23,1.8,1.8,0,0,1,2-1.31"/><path id="path62-6-5" class="cls-5" d="M348.46,316.89a1.57,1.57,0,1,0-1.56-1.78,1.79,1.79,0,0,0,1.56,1.78"/><path id="path64-4-6" class="cls-7" d="M351.48,355.37a1.8,1.8,0,0,1,1.56,1.78,1.85,1.85,0,0,0,0-.23,1.79,1.79,0,1,0-3.55-.46,1.69,1.69,0,0,0,0,.23,1.78,1.78,0,0,1,2-1.32"/><path id="path66-2-0" class="cls-5" d="M351.07,358.46a1.57,1.57,0,1,0-1.55-1.77,1.8,1.8,0,0,0,1.55,1.77"/><path id="path68-2-1" class="cls-7" d="M255.64,297.37a1.8,1.8,0,0,1,2.19.89l-.06-.22a1.79,1.79,0,1,0-3.38,1.18.67.67,0,0,0,.09.21,1.78,1.78,0,0,1,1.16-2.06"/><path id="path70-4-1" class="cls-5" d="M256.67,300.32a1.57,1.57,0,1,0-2.19-.89,1.79,1.79,0,0,0,2.19.89"/></g></svg>