<svg id="Layer_1" data-name="Layer 1" xmlns="http://www.w3.org/2000/svg" viewBox="0 0 1372 886.09"><defs><style>.cls-1{fill:#351b50;}.cls-2{fill:#3f7f3f;}.cls-3{fill:#c98e3a;}.cls-4{fill:#ebd790;}.cls-5{fill:#812024;}.cls-6{fill:#ac272d;}.cls-7{fill:#621b1d;}</style></defs><title>2</title><g id="_2" data-name=" 2"><path id="path5151" class="cls-1" d="M1241.76,575.06l-54.39,41.16-97-20.58L946.53,652,345,671.4,227.3,629.89l-93.88,16-56.9-38.29L0,591.58V886H1372V616.17Z"/><g id="layer115-8-7"><path id="path516-3-7" class="cls-2" d="M888.73,686.93h.83l.4-.87a5.28,5.28,0,0,0,.34-.91,3.5,3.5,0,0,0-.86.39l-1.68.89a3.66,3.66,0,0,0-.86.54,1.12,1.12,0,0,0,.49,0Z"/><path id="path518-2-7" class="cls-2" d="M877.41,686.94c.47,0,.48,0,.77-.66a4.44,4.44,0,0,0,.25-.66,14.93,14.93,0,0,0-2,1c-.27.16-.49.31-.49.36A3.84,3.84,0,0,0,877.41,686.94Z"/><path id="path520-5-2" class="cls-2" d="M877.62,685.58a5.75,5.75,0,0,0,.9-.53,24.63,24.63,0,0,0,.88-3.48,5.55,5.55,0,0,0-.42-1.14c-.6-1.31-1.11-2.44-2-4.53a13.25,13.25,0,0,0-.89-1.86v.54c0,.56.41,7.18.51,9.44.07,1.47.13,2,.24,2A7,7,0,0,0,877.62,685.58Z"/><path id="path522-8-8" class="cls-2" d="M889.46,685.11a1.61,1.61,0,0,0,.66-.58c.21-.42.76-1.67,1.38-3.19.29-.7.66-1.56.82-1.93a9.1,9.1,0,0,0,.9-4l.17-2.16-2.09-2.09c-1.14-1.17-2.54-2.55-3.08-3.07l-1-1v.35c0,.47,1.64,17.84,1.68,17.88A1.8,1.8,0,0,0,889.46,685.11Z"/><path id="path524-24-4" class="cls-2" d="M884.24,681.06l3.15-.08h.66v-.48a1.22,1.22,0,0,0-.14-.65,21.28,21.28,0,0,0-2.42-1.35L882.68,677l-2.16-1.15c-.91-.48-1.66-.87-1.69-.87s-.54-.28-1.16-.61c-1.06-.58-1.37-.71-1.28-.53s1.86,4.07,2.38,5.29c.16.36.41.92.56,1.23a3.71,3.71,0,0,1,.27.68C879.6,681.14,880.05,681.14,884.24,681.06Z"/><path id="path526-1-9" class="cls-2" d="M876,680.06c0-.26,0-1.18-.09-2s-.14-2.19-.17-3c-.06-1.1-.1-1.38-.21-1.32s-4.9,4.51-4.9,4.61a52.06,52.06,0,0,0,5.13,2.1C875.94,680.52,876,680.5,876,680.06Z"/><path id="path528-8-7" class="cls-2" d="M893.17,679.84l1.3-.6c1.7-.76,3.42-1.52,4.79-2.11l3.44-1.51,3-1.34a4.37,4.37,0,0,0,1-.55,6.41,6.41,0,0,0-1.07-.38l-1.2-.42c-.28-.1-2.3-.8-3.86-1.32-.68-.23-1.44-.48-1.66-.57s-.94-.33-1.57-.54l-2.81-1c-5-1.72-6.44-2.2-6.48-2.15s1.26,1.31,2.84,2.88l2.86,2.85-.22,2.41-.22,2.41-.46,1c-.25.57-.46,1.07-.46,1.09S892.59,680.06,893.17,679.84Z"/><path id="path530-2-9" class="cls-2" d="M887.89,678.84c-.06-.52-.71-7.36-.88-9.41a7.87,7.87,0,0,0-.3-2.27,4.71,4.71,0,0,0-.58.32l-1,.57a7.64,7.64,0,0,0-.83.47c-.34.22-2,1.15-3,1.67l-1.92,1.1c-1.64.93-2.63,1.48-3,1.66s-.31.28-.13.28a3.61,3.61,0,0,1,.71.35l1.85,1c.69.38,1.29.67,1.36.71s.5.28,1,.53l3.77,2c1.6.84,2.92,1.53,2.95,1.53A1.1,1.1,0,0,0,887.89,678.84Z"/><path id="path532-3-3" class="cls-2" d="M871.7,676.73c.65-.61,1.19-1.14,1.21-1.18a1.78,1.78,0,0,0-.73-.29l-1-.3a11.45,11.45,0,0,0-2-.49.84.84,0,0,0,.11.39c.11.18.37.9.64,1.56.17.44.36.88.57,1.31A5.8,5.8,0,0,0,871.7,676.73Z"/><path id="path534-2-7" class="cls-2" d="M866.21,677.37c.74-.23,1.5-.46,1.68-.53l.34-.12-.91-.39c-1.74-.75-1.54-.72-1.82-.29-.14.21-.42.69-.63,1.07-.3.56-.34.68-.2.67S865.45,677.59,866.21,677.37Z"/><path id="path536-1-3" class="cls-2" d="M900.72,677.33c.62-.15,1.54-.34,2-.45,2.82-.59,7.81-1.66,8.71-1.87.57-.14,1.51-.34,2.08-.45a32.8,32.8,0,0,0,3.26-.76c.08-.08-.06-.08-5.08,0-4.7.11-4.37.07-5.89.76l-3.55,1.56c-1.67.74-3,1.36-3.06,1.38A4.44,4.44,0,0,0,900.72,677.33Z"/><path id="path538-0-2" class="cls-2" d="M869.59,676.81a15.59,15.59,0,0,0-1-2.42c-.14.08-1.24.55-1.82.77-.34.12-.58.26-.52.3.4.21.81.39,1.23.56.62.25,1.34.56,1.58.67C869.53,676.9,869.59,676.91,869.59,676.81Z"/><path id="path540-6-7" class="cls-2" d="M875.12,673.55a15.79,15.79,0,0,1,2.85-1.88,14,14,0,0,0,1.89-1.15,1.21,1.21,0,0,0-.44-.18l-1.43-.5c-.58-.2-1.43-.51-1.89-.66l-.85-.28-.55,2.68c-.29,1.48-.52,2.7-.5,2.72A8.36,8.36,0,0,0,875.12,673.55Z"/><path id="path542-2-5" class="cls-2" d="M912.55,673.47a11.9,11.9,0,0,0-2.06-1.15,3.36,3.36,0,0,0-.64.61l-.54.61h1.62A9.76,9.76,0,0,0,912.55,673.47Z"/><path id="path544-9-5" class="cls-2" d="M903.59,672.19c0-.08-1.13-2.71-1.18-2.76s-.32.09-.62.28-.86.55-1.26.78a4.51,4.51,0,0,0-.7.47,1.26,1.26,0,0,0,.34.13l1.84.61C903.56,672.24,903.59,672.24,903.59,672.19Z"/><path id="path546-0-8" class="cls-2" d="M897.75,670.16s-.34-1-.73-2.1-.86-2.41-1-2.83a5.86,5.86,0,0,0-.36-.85,9,9,0,0,0-2.24,1.1c-.23.14-.58.34-.78.44s-.72.37-1.15.62l-1.24.7c-.46.25-.46.25-.21.35l5.1,1.76,2,.7C897.59,670.19,897.75,670.23,897.75,670.16Z"/><path id="path548-6-3" class="cls-2" d="M880.91,670.06l1-.54a4.7,4.7,0,0,1,.69-.39s.54-.28,1.13-.62l1.8-1c.4-.22.86-.49,1-.59.37-.25.65-.24,1.48.06a2,2,0,0,0,.68.19c0-.1-4.92-4.9-5-4.9a4.75,4.75,0,0,0-.4.89c-.18.49-.59,1.52-.89,2.3a38.62,38.62,0,0,0-1.81,4.81Z"/></g><g id="layer115-8"><path id="path516-3" class="cls-2" d="M666.55,699.69h1.61l.77-1.68a9.61,9.61,0,0,0,.66-1.76,8.1,8.1,0,0,0-1.67.76c-.86.47-2.31,1.23-3.24,1.72a7.73,7.73,0,0,0-1.65,1c0,.08.43.12,1,.1Z"/><path id="path518-2" class="cls-2" d="M644.73,699.71c.9-.07.92-.07,1.47-1.27a7.52,7.52,0,0,0,.48-1.27,28.54,28.54,0,0,0-3.82,1.84,2.74,2.74,0,0,0-1,.68C641.91,699.85,642.88,699.85,644.73,699.71Z"/><path id="path520-5" class="cls-2" d="M645.13,697.06a15.56,15.56,0,0,0,1.73-1,47.54,47.54,0,0,0,1.69-6.72,9.6,9.6,0,0,0-.81-2.21c-1.14-2.52-2.13-4.69-3.92-8.74a27.33,27.33,0,0,0-1.73-3.57c-.08,0-.1.46-.06,1,.1,1.08.81,13.86,1,18.22.14,2.83.26,3.81.46,3.81C644.05,697.61,644.6,697.35,645.13,697.06Z"/><path id="path522-8" class="cls-2" d="M668,696.18a3.12,3.12,0,0,0,1.29-1.12c.4-.8,1.45-3.22,2.66-6.15.56-1.35,1.26-3,1.58-3.72,1.21-2.67,1.37-3.46,1.73-7.76l.33-4.16-4-4c-2.21-2.25-4.91-4.91-6-5.93l-1.93-1.85v.68c0,.9,3.18,34.42,3.26,34.5A3.76,3.76,0,0,0,668,696.18Z"/><path id="path524-24" class="cls-2" d="M657.9,688.3l6.08-.16h1.27v-.93A2.44,2.44,0,0,0,665,686a41.63,41.63,0,0,0-4.66-2.6c-2.44-1.27-4.89-2.54-5.43-2.84s-2.44-1.29-4.17-2.22-3.2-1.69-3.26-1.69-1-.52-2.23-1.17c-2.05-1.11-2.66-1.37-2.47-1s3.58,7.85,4.58,10.2c.3.7.79,1.78,1.09,2.38a8.71,8.71,0,0,1,.52,1.31C649,688.54,649.82,688.54,657.9,688.3Z"/><path id="path526-1" class="cls-2" d="M641.91,686.41c0-.51-.08-2.29-.18-4s-.26-4.24-.32-5.71c-.12-2.11-.2-2.66-.4-2.54-.49.27-9.46,8.7-9.46,8.89s2.52,1.17,9.9,4.05C641.89,687.32,641.91,687.28,641.91,686.41Z"/><path id="path528-8" class="cls-2" d="M675.12,686.06c.61-.29,1.73-.8,2.52-1.15,3.28-1.46,6.6-2.93,9.23-4.06l6.64-2.92c2.09-.93,4.75-2.11,5.9-2.6a6.37,6.37,0,0,0,1.91-1.05,19.34,19.34,0,0,0-2.08-.74c-1.08-.33-2.09-.71-2.31-.8-.54-.2-4.45-1.55-7.44-2.54-1.33-.45-2.78-.94-3.22-1.12l-3-1-5.43-1.86c-9.62-3.3-12.41-4.24-12.49-4.14s2.43,2.52,5.47,5.55l5.53,5.51-.44,4.65-.42,4.65-.89,2c-.48,1.12-.88,2.07-.88,2.11S674,686.52,675.12,686.06Z"/><path id="path530-2" class="cls-2" d="M664.94,684.06c-.12-1-1.36-14.19-1.71-18.16-.26-3.12-.42-4.37-.56-4.37a8.27,8.27,0,0,0-1.13.62c-.56.33-1.42.82-1.93,1.1s-1.22.66-1.61.91c-.64.41-3.86,2.21-5.73,3.23-.44.23-2.11,1.19-3.72,2.11-3.16,1.8-5.07,2.85-5.79,3.2-.45.22-.61.55-.27.55a6.44,6.44,0,0,1,1.37.67c.65.35,2.26,1.19,3.58,1.87s2.5,1.29,2.62,1.37,1,.55,1.91,1,4.22,2.22,7.28,3.85,5.63,3,5.69,3A2.1,2.1,0,0,0,664.94,684.06Z"/><path id="path532-3" class="cls-2" d="M633.7,680.06c1.25-1.17,2.3-2.18,2.34-2.26a3.68,3.68,0,0,0-1.41-.57l-2-.59a24.37,24.37,0,0,0-4-.93c-.06,0,0,.41.21.76s.72,1.72,1.24,3a23.36,23.36,0,0,0,1.09,2.52A10.6,10.6,0,0,0,633.7,680.06Z"/><path id="path534-2" class="cls-2" d="M623.1,681.25l3.26-1L627,680l-1.75-.74c-3.36-1.44-3-1.39-3.52-.56-.26.41-.8,1.32-1.2,2.07-.59,1.07-.67,1.31-.39,1.29S621.65,681.68,623.1,681.25Z"/><path id="path536-1" class="cls-2" d="M689.69,681.17c1.21-.28,3-.65,3.92-.86,5.43-1.14,15.07-3.21,16.8-3.62,1.11-.25,2.92-.64,4-.86a64.23,64.23,0,0,0,6.28-1.46c.16-.16-.1-.16-9.8.09-9.07.22-8.43.14-11.36,1.47l-6.84,3c-3.22,1.43-5.88,2.62-5.92,2.66A11.3,11.3,0,0,0,689.69,681.17Z"/><path id="path538-0" class="cls-2" d="M629.64,680.17a31.1,31.1,0,0,0-2-4.67c-.28.16-2.4,1.06-3.52,1.49-.65.23-1.11.5-1,.58a25.49,25.49,0,0,0,2.38,1.08c1.2.48,2.59,1.07,3,1.29C629.52,680.35,629.64,680.37,629.64,680.17Z"/><path id="path540-6" class="cls-2" d="M640.3,673.88a31.78,31.78,0,0,1,5.49-3.62,27.29,27.29,0,0,0,3.66-2.23,3.05,3.05,0,0,0-.86-.35c-.4-.13-1.65-.56-2.76-1s-2.75-1-3.64-1.27l-1.65-.54-1,5.18c-.57,2.85-1,5.19-1,5.23A13.35,13.35,0,0,0,640.3,673.88Z"/><path id="path542-2" class="cls-2" d="M712.52,673.72a23,23,0,0,0-4-2.21,6,6,0,0,0-1.23,1.18l-1,1.17h3.11A18.07,18.07,0,0,0,712.52,673.72Z"/><path id="path544-9" class="cls-2" d="M695.22,671.26c0-.16-2.17-5.24-2.27-5.34a3,3,0,0,0-1.19.55c-.58.37-1.67,1.06-2.43,1.51a11,11,0,0,0-1.35.91,2.48,2.48,0,0,0,.64.24c.36.12,2,.64,3.56,1.19C695.18,671.36,695.22,671.36,695.22,671.26Z"/><path id="path546-0" class="cls-2" d="M684,667.35l-1.41-4.06c-.76-2.18-1.65-4.66-1.93-5.46a9.48,9.48,0,0,0-.69-1.64c-.14-.14-2.19.86-4.32,2.13-.45.26-1.13.65-1.51.84s-1.39.72-2.21,1.19l-2.4,1.35c-.88.49-.88.49-.4.69s4.77,1.66,9.84,3.4l3.92,1.35C683.65,667.41,684,667.47,684,667.35Z"/><path id="path548-6" class="cls-2" d="M651.47,667.06l1.85-1.06a11.67,11.67,0,0,1,1.34-.74c.07,0,1-.55,2.18-1.19s2.69-1.57,3.48-2,1.65-.93,1.95-1.13c.72-.49,1.27-.47,2.86.12a3.54,3.54,0,0,0,1.32.35c0-.18-9.49-9.44-9.67-9.44a8.3,8.3,0,0,0-.77,1.72c-.36.94-1.14,2.93-1.73,4.44-3,7.54-3.62,9.28-3.48,9.28S651.25,667.18,651.47,667.06Z"/></g><g id="g5979-8-4"><path id="path24-5-2" class="cls-3" d="M346,422.11a90.56,90.56,0,0,0,23-21.6h0v-.06a91.93,91.93,0,0,0,9.75-16.39l120-253.41L250.54,268.92a90.26,90.26,0,0,0,93.11,154.65c.79-.47,1.57-1,2.35-1.46"/><path id="path26-8-7" class="cls-4" d="M255,290.21,451.63,181.59,350.93,391.12,255,290.21"/><path id="path28-0-7" class="cls-5" d="M337.92,402.11a71.31,71.31,0,0,0,8.93-6.93q2.13-2,4.08-4.06c-.6.42-1.2.84-1.81,1.24a69.78,69.78,0,0,1-89.21-106,69.78,69.78,0,0,0,78,115.71"/><path id="path30-1-4" class="cls-6" d="M241.63,341.24a69.82,69.82,0,0,0,107.49,51.12c.61-.4,1.21-.82,1.81-1.24a69.78,69.78,0,0,0-79.77-111.06,66.51,66.51,0,0,0-7,3.66c-1.45.86-2.85,1.77-4.23,2.73a69.63,69.63,0,0,0-18.28,54.84"/><path id="path32-5-0" class="cls-7" d="M264.16,335.74a15.29,15.29,0,0,1,16.48,11.67,16.64,16.64,0,0,0-.07-2,15.3,15.3,0,0,0-30.43,3.23,18.63,18.63,0,0,0,.35,1.93,15.29,15.29,0,0,1,13.67-14.86"/><path id="path34-3-9" class="cls-5" d="M267,362.27a15.3,15.3,0,0,0,13.67-14.86,15.28,15.28,0,0,0-30.15,3.19A15.3,15.3,0,0,0,267,362.27"/><path id="path36-8-8" class="cls-7" d="M350,347.06a8.63,8.63,0,0,1,9.3,6.58,10.27,10.27,0,0,0,0-1.11,8.63,8.63,0,1,0-17.17,1.82,8.33,8.33,0,0,0,.2,1.09,8.6,8.6,0,0,1,7.67-8.38"/><path id="path38-8-7" class="cls-5" d="M351.59,362a7.58,7.58,0,1,0-9.3-6.58,8.65,8.65,0,0,0,9.3,6.58"/><path id="path40-3-6" class="cls-7" d="M333.6,368.19a5.56,5.56,0,0,1,6,4.24c0-.24,0-.48,0-.71a5.56,5.56,0,1,0-11.06,1.17,4.27,4.27,0,0,0,.12.7,5.56,5.56,0,0,1,5-5.4"/><path id="path42-3-3" class="cls-5" d="M334.62,377.83a4.89,4.89,0,1,0-6-4.24,5.56,5.56,0,0,0,6,4.24"/><path id="path44-6-7" class="cls-7" d="M272.42,293.4c4.7-2.23,10-1.12,12.35,2.41a6.66,6.66,0,0,0-.38-1c-2-4.27-7.8-5.78-12.91-3.36s-7.61,7.83-5.59,12.1a8.13,8.13,0,0,0,.55,1c-1.21-4.07,1.27-8.85,6-11.07"/><path id="path46-7-9" class="cls-5" d="M278.79,306.89c4.71-2.23,7.19-7,6-11.08-2.38-3.53-7.65-4.64-12.35-2.41s-7.19,7-6,11.07c2.38,3.53,7.65,4.64,12.35,2.42"/><path id="path48-6-4" class="cls-7" d="M293.09,297.86a2.68,2.68,0,0,1,3.42,1,1.2,1.2,0,0,0-.13-.33,2.67,2.67,0,1,0-4.83,2.29l.17.31a2.69,2.69,0,0,1,1.37-3.31"/><path id="path50-8-5" class="cls-5" d="M295.15,302.22a2.42,2.42,0,1,0-3.43-1.05,2.72,2.72,0,0,0,3.43,1.05"/><path id="path52-6-0" class="cls-7" d="M271.8,371.39a4.32,4.32,0,0,1,5.3,2.15A4.26,4.26,0,0,0,277,373a4.33,4.33,0,0,0-8.18,2.86h0c.07.18.14.35.22.51a4.34,4.34,0,0,1,2.81-5"/><path id="path54-1-8" class="cls-5" d="M274.29,378.52a3.81,3.81,0,1,0-5.3-2.15,4.35,4.35,0,0,0,5.3,2.15"/><path id="path56-7-6" class="cls-7" d="M325.6,348.3a1.78,1.78,0,0,1,2.19.89l-.06-.22a1.79,1.79,0,0,0-3.38,1.18,1,1,0,0,0,.09.21,1.78,1.78,0,0,1,1.16-2.06"/><path id="path58-6-6" class="cls-5" d="M326.63,351.25a1.57,1.57,0,1,0-2.19-.89,1.8,1.8,0,0,0,2.19.89"/><path id="path60-9-6" class="cls-7" d="M348.87,332.86a1.77,1.77,0,0,1,1.55,1.78c0-.08,0-.16.05-.23a1.79,1.79,0,0,0-3.55-.47v.23a1.8,1.8,0,0,1,2-1.31"/><path id="path62-6-5" class="cls-5" d="M348.46,336a1.57,1.57,0,1,0,0-3.14,1.56,1.56,0,0,0-1.55,1.36,1.8,1.8,0,0,0,1.56,1.78"/><path id="path64-4-6" class="cls-7" d="M351.48,374.43a1.8,1.8,0,0,1,1.56,1.78V376a1.79,1.79,0,1,0-3.54-.51v0a.88.88,0,0,0,0,.23,1.77,1.77,0,0,1,2-1.32"/><path id="path66-2-0" class="cls-5" d="M351.07,377.52a1.57,1.57,0,1,0,0-3.14,1.56,1.56,0,0,0-1.56,1.37,1.81,1.81,0,0,0,1.55,1.77"/><path id="path68-2-1" class="cls-7" d="M255.64,316.43a1.78,1.78,0,0,1,2.19.89l-.06-.22a1.79,1.79,0,0,0-3.38,1.18,1,1,0,0,0,.09.21,1.78,1.78,0,0,1,1.16-2.06"/><path id="path70-4-1" class="cls-5" d="M256.67,319.38a1.57,1.57,0,1,0-2.19-.89,1.8,1.8,0,0,0,2.19.89"/></g></g></svg>