<svg id="Layer_1" data-name="Layer 1" xmlns="http://www.w3.org/2000/svg" viewBox="0 0 1372 886.09"><defs><style>.cls-1{fill:#3e2e70;}.cls-2{fill:#c98e3a;}.cls-3{fill:#ebd790;}.cls-4{fill:#812024;}.cls-5{fill:#ac272d;}.cls-6{fill:#621b1d;}</style></defs><title>3</title><g id="_3" data-name=" 3"><path id="path5149" class="cls-1" d="M886.15,606.1,643.27,654.56,507.32,641.33,398.57,661.91,232.57,634,1,655.1,0,886H1372L1373,584Z"/><g id="g5299"><path id="path5295" class="cls-1" d="M706.23,636.4l-6.86-8.3h6.86l-8.13-8.23h5.39l-12.25-15.29L679,619.84h5.39l-8.16,8.26h6.86l-6.86,8.33Z"/><path id="path5297" class="cls-1" d="M689.37,636.4h3.73v12.7h-3.73Z"/></g><g id="g5979"><path id="path24" class="cls-2" d="M765.18,286.91a60.51,60.51,0,0,0,15.28-14.36h0a59.56,59.56,0,0,0,6.47-10.86L866.69,93.24,701.75,185.1a60,60,0,0,0,60.57,103.59c1-.57,1.92-1.16,2.86-1.78"/><path id="path26" class="cls-3" d="M704.69,199.25l130.7-72.15L768.47,266.31l-63.78-67.06"/><path id="path28" class="cls-4" d="M759.82,273.61a46.31,46.31,0,0,0,5.93-4.6,33,33,0,0,0,2.72-2.7c-.4.28-.8.56-1.21.82A46.37,46.37,0,0,1,708,196.72a46.37,46.37,0,0,0,51.84,76.89"/><path id="path30" class="cls-5" d="M695.83,233.16a46.38,46.38,0,0,0,71.43,34c.41-.26.81-.54,1.21-.82a46.37,46.37,0,0,0-53-73.84,44.77,44.77,0,0,0-4.66,2.43c-1,.57-1.9,1.18-2.81,1.82a46.26,46.26,0,0,0-12.15,36.44"/><path id="path32" class="cls-6" d="M710.8,229.51a10.15,10.15,0,0,1,11,7.75,9.4,9.4,0,0,0,0-1.3,10.21,10.21,0,1,0-20.31,2.14,11.64,11.64,0,0,0,.23,1.29,10.16,10.16,0,0,1,9.08-9.88"/><path id="path34" class="cls-4" d="M712.67,247.1a10.18,10.18,0,0,0,9.08-9.88,10.15,10.15,0,0,0-20,2.13,10.16,10.16,0,0,0,10.92,7.75"/><path id="path36" class="cls-6" d="M767.85,237a5.72,5.72,0,0,1,6.17,4.38,4.57,4.57,0,0,0,0-.74,5.74,5.74,0,1,0-11.45.84c0,.12,0,.24,0,.37a3.39,3.39,0,0,0,.13.72,5.74,5.74,0,0,1,5.13-5.57"/><path id="path38" class="cls-4" d="M768.9,247a5,5,0,1,0-6.18-4.38A5.74,5.74,0,0,0,768.9,247"/><path id="path40" class="cls-6" d="M757,251.1a3.7,3.7,0,0,1,4,2.82,3.68,3.68,0,1,0-7.34.31h0a2.46,2.46,0,0,0,.08.46,3.68,3.68,0,0,1,3.3-3.59"/><path id="path42" class="cls-4" d="M757.63,257.48a3.25,3.25,0,1,0-4-2.82,3.7,3.7,0,0,0,4,2.82"/><path id="path44" class="cls-6" d="M716.29,201.37c3.13-1.48,6.63-.74,8.21,1.6a5,5,0,0,0-.26-.68c-1.34-2.84-5.18-3.84-8.57-2.24s-5.06,5.21-3.72,8a5,5,0,0,0,.37.63c-.81-2.71.84-5.88,4-7.36"/><path id="path46" class="cls-4" d="M720.53,210.33c3.12-1.48,4.78-4.65,4-7.36-1.58-2.34-5.08-3.08-8.21-1.6s-4.78,4.65-4,7.36c1.58,2.34,5.08,3.08,8.21,1.6"/><path id="path48" class="cls-6" d="M730,204.33a1.8,1.8,0,0,1,2.27.7,1.43,1.43,0,0,0-.08-.22,1.78,1.78,0,1,0-3.22,1.52h0l.12.2a1.78,1.78,0,0,1,.91-2.2"/><path id="path50" class="cls-4" d="M731.4,207.23a1.61,1.61,0,1,0-2.28-.7,1.81,1.81,0,0,0,2.28.7"/><path id="path52" class="cls-6" d="M715.88,253.2a2.87,2.87,0,0,1,3.52,1.43,1.36,1.36,0,0,0-.1-.36,2.88,2.88,0,0,0-5.53,1.63c0,.09.06.18.1.27a2.52,2.52,0,0,0,.15.34,2.86,2.86,0,0,1,1.86-3.31"/><path id="path54" class="cls-4" d="M717.54,257.94a2.53,2.53,0,1,0-3.52-1.43,2.89,2.89,0,0,0,3.52,1.43"/><path id="path56" class="cls-6" d="M751.63,237.85a1.19,1.19,0,0,1,1.46.6v-.15a1.19,1.19,0,0,0-1.52-.73h0a1.18,1.18,0,0,0-.74,1.5h0l.06.14a1.2,1.2,0,0,1,.77-1.37"/><path id="path58" class="cls-4" d="M752.32,239.81a1,1,0,1,0-1.46-.59,1.19,1.19,0,0,0,1.46.59"/><path id="path60" class="cls-6" d="M767.09,227.59a1.19,1.19,0,0,1,1,1.18v-.15a1.19,1.19,0,1,0-2.36-.31.43.43,0,0,0,0,.16,1.18,1.18,0,0,1,1.3-.88"/><path id="path62" class="cls-4" d="M766.82,229.65a1,1,0,1,0-1-1.18,1.2,1.2,0,0,0,1,1.18"/><path id="path64" class="cls-6" d="M768.83,255.22a1.19,1.19,0,0,1,1,1.18v-.15a1.18,1.18,0,1,0-2.33-.34.38.38,0,0,0,0,.15,1.18,1.18,0,0,1,1.3-.87"/><path id="path66" class="cls-4" d="M768.56,257.28a1.22,1.22,0,0,0,1.31-.88,1.19,1.19,0,0,0-1-1.18,1.18,1.18,0,0,0-1.3.87,1.2,1.2,0,0,0,1,1.19"/><path id="path68" class="cls-6" d="M705.14,216.68a1.18,1.18,0,0,1,1.45.59v-.15a1.19,1.19,0,0,0-2.29.64.88.88,0,0,0,.05.15.42.42,0,0,0,.06.14,1.17,1.17,0,0,1,.77-1.37"/><path id="path70" class="cls-4" d="M705.82,218.64a1,1,0,1,0-1.45-.59,1.18,1.18,0,0,0,1.45.59"/></g></g></svg>