<svg id="Layer_1" data-name="Layer 1" xmlns="http://www.w3.org/2000/svg" viewBox="0 0 1372 886.09"><defs><style>.cls-1{fill:#2f265f;}.cls-2{fill:#403363;}.cls-3{fill:#534269;}.cls-4{fill:#6a5271;}.cls-5{fill:#82637a;}.cls-6{fill:#98767f;}.cls-7{fill:#a0808e;}.cls-8{fill:#fff;}</style></defs><title>6</title><g id="_6" data-name="6"><path class="cls-1" d="M0,0H1372V126.62H0Z"/><path class="cls-2" d="M0,126.62H1372V253.23H0Z"/><path class="cls-3" d="M0,253.13H1372V379.75H0Z"/><path class="cls-4" d="M0,379.75H1372V506.37H0Z"/><path class="cls-5" d="M0,506.37H1372V633H0Z"/><path class="cls-6" d="M0,632.88H1372V759.5H0Z"/><path class="cls-7" d="M0,759.4H1372V886H0Z"/><g id="Stars"><path class="cls-8" d="M29.89,31.58l-7.84-4.8L13.62,30.5l2.26-9L9.7,14.62l9.21-.68L23.52,6l3.53,8.53,9,2-7,6Z"/><path class="cls-8" d="M59.29,58l-9-4.22-8.62,5.1,1.18-10-7.45-6.56,9.8-2,4-9.21L54,40l10,1-6.86,7.25Z"/><path class="cls-8" d="M99.47,45.1l-3.92-8-8.92-1.28,6.47-6.27L91.53,20.7l7.94,4.12,7.94-4.12-1.57,8.82,6.47,6.27-8.82,1.28Z"/><path class="cls-8" d="M86.63,99.2,81.44,88.71,69.87,87.05l8.43-8.24-2-11.56,10.29,5.49L97,67.25l-2,11.56,8.43,8.24L91.83,88.71Z"/><path class="cls-8" d="M179.83,67.25,176.3,69l-.49,3.92-2.74-2.84-3.82.69L171,67.25l-1.76-3.43,3.82.69,2.74-2.85.49,3.92Z"/><path class="cls-8" d="M124,124.19l-10-2.65-7.84,6.67-.58-10.29-8.73-5.49,9.61-3.63,2.45-10.09,6.47,8,10.38-.78-5.68,8.62Z"/><path class="cls-8" d="M238.63,113.51l-6.76-7.26-9.8,1.57,4.7-8.72-4.51-8.82,9.8,1.76,7-7,1.28,9.8,8.82,4.5-8.92,4.32Z"/><path class="cls-8" d="M212.17,160.94l-1.67-3.53-3.92-.49,2.85-2.74-.69-3.83,3.43,1.77,3.43-1.77-.59,3.83,2.75,2.74-3.83.49Z"/><path class="cls-8" d="M338.59,136l-11.76-6.18L315.07,136l2.25-13-9.5-9.31L321,111.74l5.88-11.95,5.88,11.95,13.13,1.86-9.5,9.31Z"/><path class="cls-8" d="M157.78,155.65l-6.27-6.08-8.43,1.76,3.72-7.84L142.59,136l8.62,1.17,5.88-6.37,1.47,8.53,7.94,3.63L158.76,147Z"/><path class="cls-8" d="M272.44,177.11l-12.05-6-11.76,6.47,2-13.33-9.8-9.21,13.32-2.16,5.69-12.25,6.17,12,13.43,1.66-9.51,9.61Z"/><path class="cls-8" d="M428.26,160.94l-16.46-6.86-15,9.6,1.47-17.74-13.82-11.27,17.35-4.11,6.47-16.66,9.31,15.29,17.74,1-11.57,13.52Z"/><path class="cls-8" d="M370.93,215.33l-5.19-6.18-8,.89,4.21-6.86-3.23-7.35,7.84,1.86,6-5.39.59,8,7,4.12-7.44,3Z"/><path class="cls-8" d="M506.17,203.86l-11.86-8.52-13.72,4.9,4.51-13.92-8.92-11.47,14.6-.09,8.14-12.06,4.6,13.92,13.92,4-11.66,8.62Z"/><path class="cls-8" d="M476.18,265.31l-13.23-7-13.23,7,2.45-14.7-10.68-10.49,14.8-2.15L463,224.54,469.52,238l14.8,2.15-10.69,10.49Z"/><path class="cls-8" d="M542.92,330l-14.31-15.78-21.17,2.84L518,298.53l-9.21-19.21,20.87,4.41,15.39-14.8,2.35,21.27,18.72,10.09L546.74,309Z"/><path class="cls-8" d="M613.48,369.58l-12.25,6.08-2,13.52-9.51-9.8-13.52,2.25,6.37-12.05-6.37-12.05,13.52,2.25,9.51-9.8,2,13.52Z"/><path class="cls-8" d="M653.17,330l-22.64-6.27-18,15.19-1.08-23.52-20-12.35,22.05-8.33,5.68-22.84,14.61,18.43,23.52-1.77-12.94,19.7Z"/><path class="cls-8" d="M731.08,330l-15.29-2.26L705.31,339l-2.55-15.19-14-6.56,13.63-7.16,1.86-15.28,11.07,10.78,15.19-2.94-7,13.81Z"/><path class="cls-8" d="M666.4,378.5l-8-2.65-6.76,5.2v-8.53l-7-4.8,8-2.55,2.45-8.13,4.9,6.86,8.53-.3-5,6.86Z"/><path class="cls-8" d="M744.31,381.05,739,383.59l-.79,5.79-4.11-4.12-5.78,1,2.74-5.19-2.74-5.2,5.78,1,4.11-4.21.79,5.78Z"/><path class="cls-8" d="M804.58,338.91l-17.84-7.45-16.26,10.39L772,322.64l-15-12.25L775.87,306l7-18,10,16.46,19.3,1.18-12.54,14.6Z"/><path class="cls-8" d="M907.48,314.9l-9.7,12.74,5,15.19-15.1-5.3L874.85,347l.29-16-12.94-9.41,15.29-4.61,4.9-15.19L891.51,315Z"/><path class="cls-8" d="M957.07,330l-10.29-6.08L935.9,329l2.55-11.66-8.23-8.82,11.95-1.18L948,296.86l4.81,11,11.85,2.25-9,7.94Z"/><path class="cls-8" d="M994.21,305.39l-4.9-3.92-6,1.76,2.26-5.88-3.53-5.09,6.17.29,3.82-4.9,1.67,6,5.88,2.16-5.29,3.33Z"/><path class="cls-8" d="M999.6,349.1l-3-6.08-6.66-1,4.8-4.7-1.08-6.76,6,3.23,6-3.23-1.08,6.76,4.8,4.7-6.66,1Z"/><path class="cls-8" d="M1063.3,330l-6.47-6.47-9,1.67,4.11-8.24-4.31-8,9,1.47,6.37-6.67,1.37,9.12,8.23,3.92-8.13,4.11Z"/><path class="cls-8" d="M1063.3,369l-5.39-6.17-8.23.88,4.21-7.06-3.33-7.54,8,1.86,6.07-5.49.69,8.14,7.15,4.11L1065,361Z"/><path class="cls-8" d="M1104.46,345.47l-4.61-2.64-4.7,2.25,1.08-5.1-3.63-3.82,5.2-.49,2.45-4.6,2.15,4.7,5.2,1-3.92,3.53Z"/><path class="cls-8" d="M1137.19,372.62l-8.43,1.47-3.52,7.84-4-7.55-8.53-1,5.88-6.17-1.66-8.43,7.74,3.72,7.45-4.21-1.18,8.53Z"/><path class="cls-8" d="M1179.43,358.31l-8.62-4.12-8.33,4.71,1.37-9.51-7.06-6.37,9.41-1.66,3.92-8.73,4.51,8.43,9.41,1.08-6.57,6.86Z"/><path class="cls-8" d="M1200,389.38l-4-3.53L1190.8,387l2.25-4.8-2.74-4.6,5.29.58,3.43-4,1.08,5.19,5,2.06-4.71,2.64Z"/><path class="cls-8" d="M1242.64,374.19l-3.33-2.26-3.63,1.47,1.08-3.82-2.55-3,4-.1,2.06-3.33,1.37,3.73,3.82,1-3.13,2.45Z"/><path class="cls-8" d="M1263.22,419.66l-14.5-2.65-10.39,10.39-1.86-14.6-13.14-6.67,13.23-6.37,2.36-14.5L1249,395.94l14.5-2.25-7,12.84Z"/><path class="cls-8" d="M1323.88,413.78l-6-2.55-5.48,3.43.68-6.47-5-4.21,6.28-1.37,2.45-6,3.33,5.58,6.47.4-4.32,4.9Z"/><path class="cls-8" d="M1347,455.33l-1.86-3.72L1341,451l2.94-2.94-.68-4.12,3.72,2,3.63-2-.69,4.12,3,2.94-4.22.59Z"/><path class="cls-8" d="M1308.1,463.76l-9-6-10.1,4,2.94-10.49-6.86-8.23,10.78-.49,5.79-9.11,3.72,10.09,10.49,2.65-8.43,6.76Z"/><path class="cls-8" d="M1291.15,372.62l-6.47-3.82-6.86,3,1.77-7.25-5.1-5.58,7.55-.59,3.72-6.57,2.84,7,7.35,1.47-5.68,4.9Z"/><path class="cls-8" d="M1353,489.63l-2.94-5.88-6.47-.88,4.7-4.51-1.07-6.47,5.78,3,5.68-3-1.08,6.47,4.71,4.51-6.47.88Z"/><path class="cls-8" d="M472.26,294.81l-5.09-2.55-5.1,2.74.88-5.68-4.21-3.92,5.68-1,2.45-5.2,2.65,5.1,5.68.78-4,4Z"/><path class="cls-8" d="M514.7,247.18l-6.47-2.26-5.69,4,.2-7-5.59-4,6.67-2,2.15-6.57,3.92,5.68h7l-4.21,5.49Z"/><path class="cls-8" d="M414.15,248.94l-5.39-4.6-6.86,1.86,2.74-6.57-3.92-5.88,7.06.49,4.41-5.49,1.66,6.86,6.67,2.55-6.08,3.73Z"/><path class="cls-8" d="M425.22,203.86,421,202.49l-3.43,2.65v-4.41L414,198.28l4.22-1.38,1.17-4.21,2.65,3.53,4.31-.1-2.55,3.63Z"/><path class="cls-8" d="M322,177.6l-7.94-2.35-6.37,5.19-.29-8.23-7-4.51,7.84-2.74,2.06-7.94,5.09,6.47,8.23-.4-4.7,6.77Z"/><path class="cls-8" d="M193.26,125.36,186.79,123l-5.59,4,.2-6.86-5.49-4.12,6.57-2,2.25-6.56,3.82,5.78,7,.1-4.31,5.39Z"/><path class="cls-8" d="M154.55,94.69l-6-2.06-5.1,3.82.1-6.37-5.19-3.62,6.07-1.86,1.86-6.08,3.63,5.19,6.37-.09-3.82,5.09Z"/><path class="cls-8" d="M123.19,67.25l-2-.59-1.67,1.18V65.78l-1.67-1.18,2-.58.59-2.06,1.28,1.76,2-.1-1.27,1.67Z"/><path class="cls-8" d="M357.7,168.68l-6.08-2.74-5.68,3.43.78-6.67-5-4.31,6.46-1.37,2.65-6.08,3.23,5.78,6.67.59-4.51,4.9Z"/><path class="cls-8" d="M580.06,324.4l-3.53-1.47-3.23,2.16.29-3.82-2.94-2.45,3.73-.89,1.37-3.62,2,3.33,3.82.2-2.45,2.84Z"/><path class="cls-8" d="M704.82,358.9l-5.2-2.65L694.53,359l1-5.79-4.22-4,5.69-.89,2.54-5.19,2.65,5.19,5.78.79-4.11,4Z"/><path class="cls-8" d="M762.34,368.6l-6-4.12-6.86,2.45,2.16-6.95-4.51-5.69,7.25-.1,4.12-6.07,2.35,6.86,7,2-5.78,4.41Z"/><path class="cls-8" d="M840.74,345.47l-7.15-1.86-5.59,4.9-.49-7.35-6.37-3.72,6.86-2.85,1.57-7.15,4.8,5.59,7.35-.69-3.92,6.27Z"/><path class="cls-8" d="M796.94,351.84l-2-1-2,1,.39-2.15-1.57-1.57,2.16-.3,1-2.05,1,2.05,2.25.3-1.57,1.57Z"/><path class="cls-8" d="M841.72,313.43l-1.08-2.26-2.54-.39L840,309l-.49-2.45,2.25,1.17,2.26-1.17-.49,2.45,1.86,1.76-2.55.39Z"/><path class="cls-8" d="M879.94,287.16l-3-1.27-2.64,1.86.19-3.23-2.54-2.06,3.13-.79,1.08-3,1.76,2.74,3.24.1L879.06,284Z"/><path class="cls-8" d="M868.18,303.72l-4.8-.78L860,306.47l-.69-4.8-4.41-2.16,4.41-2.16.69-4.9,3.43,3.53,4.8-.88-2.25,4.31Z"/><path class="cls-8" d="M982.06,319.7l-2.55-.79-2.16,1.67v-2.74l-2.25-1.47,2.55-.89.68-2.54,1.67,2.15,2.65-.1-1.57,2.16Z"/><path class="cls-8" d="M1025,324.4l-4.51-1.27-3.62,3-.2-4.71-3.92-2.55,4.41-1.56,1.18-4.51,2.84,3.62,4.7-.29-2.64,3.92Z"/><path class="cls-8" d="M1087.7,362.23l-2.15-2.25-3,.39,1.57-2.75-1.38-2.84,3,.69,2.26-2.16.39,3.14,2.74,1.47-2.84,1.27Z"/><path class="cls-8" d="M1137.19,347l-4.9-1.37-3.92,3.23-.19-5.09-4.32-2.65,4.71-1.86,1.27-4.9,3.14,3.92,5.09-.3-2.74,4.22Z"/><path class="cls-8" d="M1160.22,381.05l-4.51-4-5.88,1.47,2.45-5.49-3.23-5.1,6,.49,3.92-4.6,1.27,5.88,5.59,2.25-5.2,3.14Z"/><path class="cls-8" d="M1200.7,357.23l-3.63-2.74-4.31,1.37,1.47-4.31-2.65-3.73,4.51.1,2.74-3.72,1.28,4.41,4.41,1.47-3.82,2.55Z"/><path class="cls-8" d="M1285.07,396.63l-2.54-1.28-2.45,1.47.29-2.84-2.06-1.86,2.75-.49,1.17-2.65,1.37,2.55,2.75.3-1.86,2.05Z"/></g></g></svg>