<svg id="_6" data-name="6" xmlns="http://www.w3.org/2000/svg" viewBox="0 0 1372 726.87"><defs><style>.cls-1{fill:#534269;}.cls-2{fill:#6a5271;}.cls-3{fill:#98767f;}.cls-4{fill:#82637a;}.cls-5{fill:#fff;}</style></defs><title>6</title><path id="path5131" class="cls-1" d="M0,0H1372V126.62H0Z"/><path id="path5133" class="cls-2" d="M0,126.62H1372V253.23H0Z"/><path id="path5137" class="cls-3" d="M0,379.75H1372V726.87H0Z"/><path id="path5135" class="cls-4" d="M0,253.23H1372V379.85H0Z"/><g id="stars"><path id="path5155" class="cls-5" d="M29,30.61l-7.84-4.8-8.43,3.73,2.25-9L8.82,13.66,18,13,22.64,5l3.53,8.52,9,2-7,6Z"/><path id="path5157" class="cls-5" d="M58.41,57.07l-9-4.21L40.77,58l1.17-10L34.5,41.39l9.8-2,4-9.21L53.12,39l10,1-6.86,7.25Z"/><path id="path5159" class="cls-5" d="M98.59,44.14l-3.92-8-8.92-1.27,6.47-6.27-1.57-8.82,7.94,4.11,7.94-4.11L105,28.56l6.47,6.27-8.82,1.27Z"/><path id="path5161" class="cls-5" d="M85.75,98.23,80.56,87.75,69,86.08l8.43-8.23-2-11.56,10.29,5.48,10.39-5.48-2,11.56,8.43,8.23L90.94,87.75Z"/><path id="path5163" class="cls-5" d="M179,66.29l-3.53,1.76L174.93,72l-2.74-2.84-3.83.68,1.77-3.52-1.77-3.43,3.83.68,2.74-2.84.49,3.92Z"/><path id="path5165" class="cls-5" d="M123.09,117.22l-10-2.64-7.84,6.66L104.66,111l-8.72-5.49,9.61-3.62L108,91.74l6.46,8L124.85,99l-5.68,8.62Z"/><path id="path5167" class="cls-5" d="M237.75,106.54,231,99.29l-9.8,1.57,4.7-8.72-4.51-8.82,9.8,1.76,7-7,1.27,9.8,8.82,4.51-8.91,4.31Z"/><path id="path5169" class="cls-5" d="M211.29,154l-1.67-3.52L205.7,150l2.84-2.75-.68-3.82,3.43,1.76,3.43-1.76-.59,3.82,2.74,2.75-3.82.49Z"/><path id="path5171" class="cls-5" d="M337.71,129,326,122.81,314.19,129l2.25-13-9.5-9.31,13.13-1.86,5.88-12,5.88,12L345,106.64,335.45,116Z"/><path id="path5173" class="cls-5" d="M156.9,148.68l-6.27-6.07-8.43,1.76,3.72-7.84L141.71,129l8.62,1.18,5.88-6.37,1.47,8.53,7.94,3.62-7.74,4.12Z"/><path id="path5175" class="cls-5" d="M271.56,170.14l-12.06-6-11.76,6.46,2-13.32-9.8-9.22,13.33-2.15,5.69-12.25,6.17,11.95,13.43,1.67-9.51,9.6Z"/><path id="path5177" class="cls-5" d="M427.38,154l-16.47-6.86-15,9.61L397.39,139l-13.82-11.27,17.35-4.12,6.47-16.66,9.31,15.29,17.73,1-11.56,13.53Z"/><path id="path5179" class="cls-5" d="M370.05,192.36l-5.2-6.17-8,.88,4.21-6.86-3.23-7.35,7.84,1.86,6-5.39.58,8,7,4.12-7.45,3Z"/><path id="path5181" class="cls-5" d="M505.29,180.9l-11.86-8.53-13.72,4.9,4.51-13.91-8.92-11.47,14.6-.1,8.14-12,4.6,13.91,13.92,4L504.9,166.3Z"/><path id="path5183" class="cls-5" d="M475.3,242.34l-13.23-7-13.23,7,2.45-14.7-10.68-10.48,14.8-2.16,6.66-13.42L468.64,215l14.79,2.16-10.68,10.48Z"/><path id="path5185" class="cls-5" d="M542,293l-14.31-15.77-21.17,2.84,10.59-18.52-9.22-19.21,20.88,4.41L544.19,232l2.36,21.27,18.71,10.09-19.4,8.72Z"/><path id="path5187" class="cls-5" d="M612.6,322.62l-12.25,6.07-2,13.53-9.51-9.8-13.52,2.25,6.37-12.05-6.37-12.06,13.52,2.26,9.51-9.8,2,13.52Z"/><path id="path5189" class="cls-5" d="M652.29,293l-22.64-6.27-18,15.19-1.08-23.52-20-12.35,22.05-8.33,5.68-22.83,14.6,18.42,23.52-1.76-12.93,19.7Z"/><path id="path5191" class="cls-5" d="M730.2,297l-15.29-2.25L704.42,306l-2.54-15.19-14-6.57,13.62-7.15,1.87-15.29,11.07,10.78,15.19-2.94-7,13.82Z"/><path id="path5193" class="cls-5" d="M665.52,331.53l-8-2.64-6.76,5.19v-8.52l-7-4.81,8-2.54,2.45-8.14,4.9,6.86,8.52-.29-5,6.86Z"/><path id="path5195" class="cls-5" d="M743.43,348.08l-5.29,2.55-.79,5.78-4.11-4.11-5.79,1,2.75-5.2-2.75-5.19,5.79,1,4.11-4.22.79,5.79Z"/><path id="path5197" class="cls-5" d="M803.7,295.94l-17.84-7.45-16.27,10.39,1.57-19.21-15-12.25L775,263,782,245l10,16.47,19.3,1.17-12.54,14.6Z"/><path id="path5199" class="cls-5" d="M906.6,259.93l-9.7,12.74,5,15.19-15.09-5.29L874,292.08l.3-16-12.94-9.41,15.29-4.6,4.9-15.19L890.62,260Z"/><path id="path5201" class="cls-5" d="M944.82,243l-16.56-3.72-12.45,11.56L914.14,234l-14.79-8.33,15.58-6.77,3.23-16.66L929.43,215l16.86-2-8.63,14.7Z"/><path id="path5203" class="cls-5" d="M956.19,275,945.9,269,935,274l2.55-11.66-8.24-8.82,12-1.17,5.78-10.49,4.8,11,11.86,2.25-9,7.94Z"/><path id="path5205" class="cls-5" d="M993.33,232.43l-4.9-3.92-6,1.76,2.25-5.88-3.52-5.1,6.17.3,3.82-4.9,1.67,6,5.88,2.15-5.29,3.33Z"/><path id="path5207" class="cls-5" d="M998.72,276.13l-3-6.07-6.66-1,4.8-4.71-1.08-6.76,6,3.24,6-3.24-1.08,6.76,4.8,4.71-6.66,1Z"/><path id="path5209" class="cls-5" d="M1062.42,257l-6.47-6.46-9,1.66,4.12-8.23-4.31-8,9,1.47,6.37-6.66,1.38,9.11,8.23,3.92-8.14,4.12Z"/><path id="path5211" class="cls-5" d="M1062.42,296l-5.39-6.18-8.23.89,4.21-7.06-3.33-7.55,8,1.87,6.08-5.49.69,8.13,7.15,4.12-7.55,3.23Z"/><path id="path5213" class="cls-5" d="M1103.58,272.51l-4.61-2.65-4.7,2.26,1.08-5.1-3.63-3.82,5.19-.49,2.45-4.61,2.16,4.71,5.19,1-3.92,3.52Z"/><path id="path5215" class="cls-5" d="M1136.31,299.65l-8.43,1.47-3.53,7.84-4-7.54-8.53-1,5.88-6.18-1.67-8.42,7.75,3.72,7.44-4.21-1.17,8.52Z"/><path id="path5217" class="cls-5" d="M1178.55,285.35l-8.63-4.12-8.33,4.7,1.38-9.5-7.06-6.37,9.41-1.67,3.92-8.72,4.51,8.43,9.4,1.08-6.56,6.86Z"/><path id="path5219" class="cls-5" d="M1199.13,316.41l-4-3.53-5.19,1.18,2.25-4.8-2.74-4.61,5.29.59,3.43-4,1.08,5.2,5,2.05-4.7,2.65Z"/><path id="path5221" class="cls-5" d="M1241.76,301.22l-3.33-2.25-3.63,1.47,1.08-3.82-2.55-3,4-.1,2.06-3.33,1.37,3.72,3.82,1-3.14,2.45Z"/><path id="path5223" class="cls-5" d="M1262.34,346.69l-14.51-2.64-10.38,10.39-1.87-14.61-13.13-6.66,13.23-6.37,2.35-14.5,10.1,10.68,14.5-2.26-7,12.84Z"/><path id="path5225" class="cls-5" d="M1323,340.81l-6-2.54-5.49,3.43.69-6.47-5-4.22,6.27-1.37,2.45-6,3.34,5.59,6.46.39-4.31,4.9Z"/><path id="path5227" class="cls-5" d="M1346.13,382.37l-1.86-3.73-4.12-.59,2.94-2.94-.69-4.11,3.73,2,3.62-2-.68,4.11,3,2.94-4.22.59Z"/><path id="path5229" class="cls-5" d="M1307.22,390.79l-9-6-10.1,4,2.94-10.48-6.86-8.23,10.78-.49,5.78-9.12,3.73,10.1,10.48,2.64-8.42,6.76Z"/><path id="path5231" class="cls-5" d="M1290.27,299.65l-6.47-3.82-6.86,3,1.76-7.25-5.09-5.59,7.54-.59,3.73-6.56,2.84,7,7.35,1.47-5.68,4.9Z"/><path id="path5233" class="cls-5" d="M1352.11,416.67l-2.94-5.88-6.47-.89,4.7-4.5-1.08-6.47,5.79,3,5.68-3-1.08,6.47,4.71,4.5-6.47.89Z"/><path id="path5235" class="cls-5" d="M463.38,261.84l-5.1-2.55L453.19,262l.88-5.69-4.21-3.92,5.68-1,2.45-5.19,2.65,5.1,5.68.78-4,4Z"/><path id="path5237" class="cls-5" d="M513.81,224.21,507.35,222l-5.69,4,.2-7-5.59-4,6.67-2,2.15-6.56,3.92,5.68h7l-4.21,5.49Z"/><path id="path5239" class="cls-5" d="M413.27,226l-5.39-4.61L401,223.23l2.74-6.56-3.92-5.88,7.06.49,4.41-5.49,1.66,6.86,6.67,2.55-6.08,3.72Z"/><path id="path5241" class="cls-5" d="M424.34,180.9l-4.21-1.37-3.43,2.64v-4.41l-3.63-2.45,4.21-1.37,1.18-4.21,2.65,3.52,4.31-.09-2.55,3.62Z"/><path id="path5243" class="cls-5" d="M321.15,170.63l-7.94-2.35-6.37,5.2-.3-8.24-7-4.5,7.84-2.75,2.05-7.94,5.1,6.47,8.23-.39-4.7,6.76Z"/><path id="path5245" class="cls-5" d="M192.37,118.4l-6.46-2.35-5.59,4,.2-6.86L175,109.09l6.56-2,2.26-6.57,3.82,5.79,7,.09-4.31,5.39Z"/><path id="path5247" class="cls-5" d="M153.66,87.73l-6-2.06-5.1,3.82.1-6.37-5.2-3.63,6.08-1.86,1.86-6.07,3.63,5.19,6.37-.1-3.82,5.1Z"/><path id="path5249" class="cls-5" d="M122.3,66.29l-2-.59-1.66,1.17V64.82L117,63.64l2-.59.59-2.06,1.27,1.77,2.06-.1-1.27,1.67Z"/><path id="path5251" class="cls-5" d="M356.82,161.72,350.74,159l-5.68,3.43.78-6.66-5-4.31,6.47-1.38L350,144l3.23,5.78,6.67.59-4.51,4.9Z"/><path id="path5253" class="cls-5" d="M579.18,287.44,575.65,286l-3.23,2.15.29-3.82-2.94-2.45,3.73-.88,1.37-3.63,2,3.34,3.82.19-2.45,2.84Z"/><path id="path5255" class="cls-5" d="M703.93,325.93l-5.19-2.64-5.1,2.74,1-5.78-4.21-4,5.68-.88,2.55-5.19,2.65,5.19,5.78.78-4.12,4Z"/><path id="path5257" class="cls-5" d="M761.46,335.64l-6-4.12L748.62,334l2.16-7-4.51-5.68,7.25-.1,4.12-6.08L760,322l7,2-5.78,4.41Z"/><path id="path5259" class="cls-5" d="M839.86,290.51l-7.15-1.86-5.59,4.9-.49-7.35-6.37-3.73,6.86-2.84,1.57-7.15,4.8,5.58,7.35-.68-3.92,6.27Z"/><path id="path5261" class="cls-5" d="M796.05,308.88l-2-1-2,1,.4-2.16L791,305.15l2.15-.29,1-2.06,1,2.06,2.26.29-1.57,1.57Z"/><path id="path5263" class="cls-5" d="M840.84,258.46l-1.08-2.25-2.55-.39,1.87-1.77-.49-2.45,2.25,1.18,2.25-1.18-.49,2.45,1.87,1.77-2.55.39Z"/><path id="path5265" class="cls-5" d="M879.06,232.2l-3-1.28-2.64,1.87.19-3.24L871,227.49l3.14-.78,1.08-3,1.76,2.75,3.24.09-2.06,2.55Z"/><path id="path5267" class="cls-5" d="M867.3,248.76l-4.8-.78-3.43,3.52-.69-4.8L854,244.55l4.41-2.16.69-4.9L862.5,241l4.8-.88-2.25,4.31Z"/><path id="path5269" class="cls-5" d="M981.18,246.73l-2.55-.78-2.16,1.67v-2.75l-2.25-1.47,2.55-.88.68-2.55,1.67,2.16,2.64-.1-1.56,2.16Z"/><path id="path5271" class="cls-5" d="M1024.1,251.44l-4.51-1.28-3.62,3-.2-4.7-3.92-2.55,4.41-1.57,1.18-4.51,2.84,3.63,4.7-.29-2.64,3.92Z"/><path id="path5273" class="cls-5" d="M1086.82,289.27l-2.16-2.26-3,.39,1.56-2.74-1.37-2.84,3,.68,2.25-2.15.4,3.13,2.74,1.47-2.84,1.28Z"/><path id="path5275" class="cls-5" d="M1136.31,274.08l-4.9-1.38-3.92,3.24-.2-5.1L1123,268.2l4.71-1.87,1.27-4.9,3.14,3.92,5.09-.29-2.74,4.21Z"/><path id="path5277" class="cls-5" d="M1159.34,308.08l-4.51-4-5.88,1.47,2.45-5.48-3.23-5.1,6,.49,3.92-4.61,1.27,5.88,5.59,2.26-5.2,3.13Z"/><path id="path5279" class="cls-5" d="M1199.81,284.27l-3.62-2.75-4.31,1.38,1.47-4.32-2.65-3.72,4.51.1,2.74-3.73,1.28,4.41,4.41,1.47-3.83,2.55Z"/><path id="path5281" class="cls-5" d="M1284.19,323.66l-2.55-1.27-2.45,1.47.3-2.84-2.06-1.86,2.74-.49,1.18-2.65,1.37,2.55,2.75.29-1.87,2.06Z"/></g></svg>