<?xml version="1.0" encoding="utf-8"?>
<!-- Generator: Adobe Illustrator 22.0.1, SVG Export Plug-In . SVG Version: 6.00 Build 0)  -->
<svg version="1.1" id="Layer_1" xmlns="http://www.w3.org/2000/svg" xmlns:xlink="http://www.w3.org/1999/xlink" x="0px" y="0px"
	 viewBox="0 0 445.2 292.3" style="enable-background:new 0 0 445.2 292.3;" xml:space="preserve">
<style type="text/css">
	.st0{fill:#FF0000;}
	.st1{fill:#FFFF00;}
	.st2{fill:#0000FF;}
	.st3{fill:#FFFFFF;}
	.st4{font-family:'Courier-Bold';}
	.st5{font-size:17.22px;}
	.st6{fill:none;stroke:#FF0000;stroke-width:3;stroke-miterlimit:10;}
	.st7{font-size:57.07px;}
	.st8{letter-spacing:17;}
	.st9{font-size:13.29px;}
</style>
<title>about_lsb</title>
<rect x="15.5" y="13.4" class="st0" width="79" height="79"/>
<path d="M94,13.9v78H16v-78L94,13.9 M95,12.9H15v80h80V12.9z"/>
<rect x="94.5" y="13.4" width="79" height="79"/>
<path d="M173,13.9v78H95v-78L173,13.9 M174,12.9H94v80h80V12.9z"/>
<rect x="15.5" y="92.4" class="st1" width="79" height="79"/>
<path d="M94,92.9v78H16v-78H94 M95,91.9H15v80h80V91.9z"/>
<rect x="94.5" y="92.4" class="st2" width="79" height="79"/>
<path d="M173,92.9v78H95v-78H173 M174,91.9H94v80h80V91.9z"/>
<text transform="matrix(1 0 0 1 192.27 42.62)" class="st3 st4 st5">111111</text>
<text transform="matrix(1 0 0 1 254.27 42.62)" class="st0 st4 st5">01</text>
<text transform="matrix(1 0 0 1 192.27 63.28)" class="st3 st4 st5">111111</text>
<text transform="matrix(1 0 0 1 254.27 63.28)" class="st0 st4 st5">10</text>
<text transform="matrix(1 0 0 1 192.27 83.94)" class="st3 st4 st5">111111</text>
<text transform="matrix(1 0 0 1 254.27 83.94)" class="st0 st4 st5">00</text>
<text transform="matrix(1 0 0 1 192.27 117.23)" class="st3 st4 st5">111111</text>
<text transform="matrix(1 0 0 1 254.27 117.23)" class="st0 st4 st5">00</text>
<text transform="matrix(1 0 0 1 192.27 137.89)" class="st3 st4 st5">111111</text>
<text transform="matrix(1 0 0 1 254.27 137.89)" class="st0 st4 st5">01</text>
<text transform="matrix(1 0 0 1 192.27 158.55)" class="st3 st4 st5">000000</text>
<text transform="matrix(1 0 0 1 254.27 158.55)" class="st0 st4 st5">01</text>
<text transform="matrix(1 0 0 1 297.36 42.62)" class="st3 st4 st5">000000</text>
<text transform="matrix(1 0 0 1 359.36 42.62)" class="st0 st4 st5">11</text>
<text transform="matrix(1 0 0 1 297.36 63.28)" class="st3 st4 st5">000000</text>
<text transform="matrix(1 0 0 1 359.36 63.28)" class="st0 st4 st5">01</text>
<text transform="matrix(1 0 0 1 297.36 83.94)" class="st3 st4 st5">000000</text>
<text transform="matrix(1 0 0 1 359.36 83.94)" class="st0 st4 st5">10</text>
<text transform="matrix(1 0 0 1 297.36 118.67)" class="st3 st4 st5">000000</text>
<text transform="matrix(1 0 0 1 359.36 118.67)" class="st0 st4 st5">11</text>
<text transform="matrix(1 0 0 1 297.36 139.33)" class="st3 st4 st5">000000</text>
<text transform="matrix(1 0 0 1 359.36 139.33)" class="st0 st4 st5">01</text>
<text transform="matrix(1 0 0 1 297.36 159.99)" class="st3 st4 st5">111111</text>
<text transform="matrix(1 0 0 1 359.36 159.99)" class="st0 st4 st5">00</text>
<path class="st6" d="M190.5,179.4c0,0,9.1,14,21.8,14h65.3l10,17l9-17c0,0,59.5,2,70.4-2s15.6-14,15.6-14"/>
<text transform="matrix(1 0 0 1 170.77 261.3)" class="st3 st4 st7 st8">C A T</text>
<text transform="matrix(1 0 0 1 144.27 281.11)" class="st0 st4 st9">01 10 00 11</text>
<text transform="matrix(1 0 0 1 246.27 281.11)" class="st0 st4 st9">01 10 00 01</text>
<text transform="matrix(1 0 0 1 348.27 281.11)" class="st0 st4 st9">01 11 01 00</text>
</svg>
