<svg id="Layer_1" data-name="Layer 1" xmlns="http://www.w3.org/2000/svg" viewBox="0 0 445.19 292.33"><defs><style>.cls-1,.cls-5,.cls-8{fill:red;}.cls-2{fill:#ff0;}.cls-3{fill:blue;}.cls-4{font-size:17.22px;}.cls-4,.cls-7,.cls-8{font-family:CourierNewPS-BoldMT, Courier New;font-weight:700;}.cls-5{letter-spacing:0em;}.cls-6{fill:none;stroke:red;stroke-miterlimit:10;stroke-width:3px;}.cls-7{font-size:57.07px;letter-spacing:0.3em;}.cls-8{font-size:13.29px;}</style></defs><title>about_lsb</title><rect class="cls-1" x="15.52" y="13.39" width="79" height="79"/><path d="M94,13.89v78H16v-78H94m1-1H15v80H95v-80Z"/><rect x="94.52" y="13.39" width="79" height="79"/><path d="M173,13.89v78H95v-78h78m1-1H94v80h80v-80Z"/><rect class="cls-2" x="15.52" y="92.39" width="79" height="79"/><path d="M94,92.89v78H16v-78H94m1-1H15v80H95v-80Z"/><rect class="cls-3" x="94.52" y="92.39" width="79" height="79"/><path d="M173,92.89v78H95v-78h78m1-1H94v80h80v-80Z"/><text class="cls-4" transform="translate(192.27 42.62)">111111<tspan class="cls-5" x="62" y="0">01</tspan><tspan x="0" y="20.66">111111</tspan><tspan class="cls-5" x="62" y="20.66">10</tspan><tspan x="0" y="41.32">111111</tspan><tspan class="cls-5" x="62" y="41.32">00</tspan></text><text class="cls-4" transform="translate(192.27 117.23)">111111<tspan class="cls-5" x="62" y="0">00</tspan><tspan x="0" y="20.66">111111</tspan><tspan class="cls-5" x="62" y="20.66">01</tspan><tspan x="0" y="41.32">000000</tspan><tspan class="cls-5" x="62" y="41.32">01</tspan></text><text class="cls-4" transform="translate(297.36 42.62)">000000<tspan class="cls-5" x="62" y="0">11</tspan><tspan x="0" y="20.66">000000</tspan><tspan class="cls-5" x="62" y="20.66">01</tspan><tspan x="0" y="41.32">000000</tspan><tspan class="cls-5" x="62" y="41.32">10</tspan></text><text class="cls-4" transform="translate(297.36 118.67)">000000<tspan class="cls-5" x="62" y="0">11</tspan><tspan x="0" y="20.66">000000</tspan><tspan class="cls-5" x="62" y="20.66">01</tspan><tspan x="0" y="41.32">111111</tspan><tspan class="cls-5" x="62" y="41.32">00</tspan></text><path class="cls-6" d="M190.52,179.39s9.14,14,21.75,14h65.25l10,17,9-17s59.45,2,70.37-2,15.63-14,15.63-14"/><text class="cls-7" transform="translate(170.77 261.3)">C A T</text><text class="cls-8" transform="translate(144.27 281.11)">01 10 00 11</text><text class="cls-8" transform="translate(246.27 281.11)">01 10 00 01</text><text class="cls-8" transform="translate(348.27 281.11)">01 11 01 00 </text></svg>