<?xml version="1.0" encoding="UTF-8" standalone="no"?><!-- Generator: Gravit.io --><svg xmlns="http://www.w3.org/2000/svg" xmlns:xlink="http://www.w3.org/1999/xlink" style="isolation:isolate" viewBox="0 0 2056 1024" width="2056pt" height="1024pt"><defs><clipPath id="_clipPath_PLTHeTBfM0d5EJyzUILByLler7EC1iuz"><rect width="2056" height="1024"/></clipPath></defs><g clip-path="url(#_clipPath_PLTHeTBfM0d5EJyzUILByLler7EC1iuz)"><rect width="2056" height="1024" style="fill:rgb(0,0,0)" fill-opacity="0"/><g style="isolation:isolate"/><g><path d=" M 685.875 739.624 L 727.5 739.624 L 727.5 697.999 L 769.124 697.999 L 769.124 656.374 L 810.749 656.374 L 810.749 614.749 L 852.374 614.749 L 852.374 406.625 L 685.875 406.625 L 685.875 739.624 Z " fill="rgb(127,192,127)"/><path d=" M 1018.874 198.5 L 1018.874 73.625 L 977.249 73.625 L 977.249 32 L 727.5 32 L 727.5 73.625 L 685.875 73.625 L 685.875 365 L 644.25 365 L 644.25 406.625 L 602.625 406.625 L 602.625 448.25 L 561 448.25 L 561 489.875 L 519.375 489.875 L 519.375 531.5 L 477.75 531.5 L 477.75 573.124 L 436.125 573.124 L 436.125 614.749 L 352.875 614.749 L 352.875 573.124 L 311.25 573.124 L 311.25 531.5 L 269.625 531.5 L 269.625 489.875 L 228 489.875 L 228 614.749 L 269.625 614.749 L 269.625 697.999 L 311.25 697.999 L 311.25 781.249 L 352.875 781.249 L 352.875 822.874 L 436.125 822.874 L 436.125 864.499 L 477.75 864.499 L 477.75 989.374 L 561 989.374 L 561 947.749 L 519.375 947.749 L 519.375 906.124 L 561 906.124 L 561 864.499 L 602.625 864.499 L 602.625 906.124 L 644.25 906.124 L 644.25 989.374 L 727.5 989.374 L 727.5 947.749 L 685.875 947.749 L 685.875 697.999 L 727.5 697.999 L 727.5 531.5 L 769.124 531.5 L 769.124 489.875 L 893.999 489.875 L 893.999 531.5 L 935.624 531.5 L 935.624 448.25 L 810.749 448.25 L 810.749 406.625 L 852.374 406.625 L 852.374 281.75 L 977.249 281.75 L 977.249 240.125 L 852.374 240.125 L 852.374 198.5 L 1018.874 198.5 Z " fill="rgb(63,127,63)"/><path d=" M 852.374 73.625 L 810.749 73.625 L 810.749 115.25 L 852.374 115.25 L 852.374 73.625 Z " fill="rgb(0,0,0)"/><path d=" M 1074.828 188.907 L 1074.828 198.459 L 1082.247 198.459 L 1082.247 198.459 Q 1084.381 198.459 1085.184 197.25 L 1085.184 197.25 L 1085.184 197.25 Q 1085.986 196.041 1085.986 193.581 L 1085.986 193.581 L 1085.986 193.581 Q 1085.986 188.907 1082.49 188.907 L 1082.49 188.907 L 1074.828 188.907 Z  M 1074.828 214.617 L 1068.792 214.617 L 1068.792 184.618 L 1081.738 184.618 L 1081.738 184.618 Q 1087.551 184.618 1089.655 186.976 L 1089.655 186.976 L 1089.655 186.976 Q 1091.759 189.333 1091.759 193.368 L 1091.759 193.368 L 1091.759 193.368 Q 1091.759 197.402 1090.59 199.242 L 1090.59 199.242 L 1090.59 199.242 Q 1089.421 201.081 1087.348 201.894 L 1087.348 201.894 L 1093.141 214.617 L 1086.881 214.617 L 1081.617 202.768 L 1074.828 202.768 L 1074.828 214.617 Z " fill="rgb(255,0,0)"/><path d=" M 1149.582 199.984 L 1149.582 199.984 L 1149.582 199.984 Q 1144.521 199.984 1144.521 205.339 L 1144.521 205.339 L 1144.521 205.339 Q 1144.521 210.695 1149.674 210.695 L 1149.674 210.695 L 1149.674 210.695 Q 1154.826 210.695 1154.826 205.39 L 1154.826 205.39 L 1154.826 205.39 Q 1154.826 202.768 1153.607 201.376 L 1153.607 201.376 L 1153.607 201.376 Q 1152.387 199.984 1149.582 199.984 Z  M 1153.891 184.598 L 1147.347 196.244 L 1147.347 196.244 Q 1149.135 195.715 1150.517 195.715 L 1150.517 195.715 L 1150.517 195.715 Q 1155.476 195.715 1157.926 198.012 L 1157.926 198.012 L 1157.926 198.012 Q 1160.375 200.309 1160.375 205.512 L 1160.375 205.512 L 1160.375 205.512 Q 1160.375 210.715 1157.692 212.93 L 1157.692 212.93 L 1157.692 212.93 Q 1155.009 215.146 1149.41 215.146 L 1149.41 215.146 L 1149.41 215.146 Q 1143.81 215.146 1141.28 212.808 L 1141.28 212.808 L 1141.28 212.808 Q 1138.749 210.471 1138.749 205.359 L 1138.749 205.359 L 1138.749 205.359 Q 1138.749 200.248 1141.493 195.004 L 1141.493 195.004 L 1147.387 184.598 L 1153.891 184.598 Z  M 1177.793 210.593 L 1177.793 210.593 L 1177.793 210.593 Q 1183.138 210.593 1183.138 205.959 L 1183.138 205.959 L 1183.138 205.959 Q 1183.138 203.764 1182.579 202.758 L 1182.579 202.758 L 1182.579 202.758 Q 1182.02 201.752 1180.618 201.294 L 1180.618 201.294 L 1180.618 201.294 Q 1179.216 200.837 1176.553 200.837 L 1176.553 200.837 L 1176.553 196.793 L 1176.553 196.793 Q 1181.472 196.793 1182.407 195.289 L 1182.407 195.289 L 1182.407 195.289 Q 1182.976 194.354 1182.976 192.453 L 1182.976 192.453 L 1182.976 192.453 Q 1182.976 190.553 1181.817 189.587 L 1181.817 189.587 L 1181.817 189.587 Q 1180.659 188.622 1177.732 188.622 L 1177.732 188.622 L 1177.732 188.622 Q 1174.805 188.622 1173.657 189.709 L 1173.657 189.709 L 1173.657 189.709 Q 1172.509 190.797 1172.529 193.622 L 1172.529 193.622 L 1167.082 193.622 L 1167.082 193.622 Q 1167.122 188.337 1169.927 186.203 L 1169.927 186.203 L 1169.927 186.203 Q 1172.732 184.069 1177.701 184.069 L 1177.701 184.069 L 1177.701 184.069 Q 1182.671 184.069 1185.638 186.234 L 1185.638 186.234 L 1185.638 186.234 Q 1188.606 188.398 1188.606 192.24 L 1188.606 192.24 L 1188.606 192.24 Q 1188.606 195.329 1187.427 196.803 L 1187.427 196.803 L 1187.427 196.803 Q 1186.248 198.276 1184.053 198.764 L 1184.053 198.764 L 1184.053 198.764 Q 1188.87 200.065 1188.87 205.959 L 1188.87 205.959 L 1188.87 205.959 Q 1188.87 210.044 1186.268 212.605 L 1186.268 212.605 L 1186.268 212.605 Q 1183.667 215.166 1177.996 215.166 L 1177.996 215.166 L 1177.996 215.166 Q 1172.326 215.166 1169.704 212.758 L 1169.704 212.758 L 1169.704 212.758 Q 1167.082 210.349 1166.96 205.756 L 1166.96 205.756 L 1172.407 205.756 L 1172.407 205.756 Q 1172.448 208.52 1173.698 209.556 L 1173.698 209.556 L 1173.698 209.556 Q 1174.947 210.593 1177.793 210.593 Z " fill="rgb(63,127,63)"/><path d=" M 1146.615 297.867 L 1124.095 297.867 L 1124.095 293.619 L 1132.875 293.619 L 1132.875 272.644 L 1124.542 273.742 L 1124.014 269.331 L 1134.745 267.868 L 1138.912 267.868 L 1138.912 293.619 L 1146.615 293.619 L 1146.615 297.867 Z  M 1168.24 276.14 L 1168.24 276.14 L 1168.24 276.14 Q 1168.24 271.872 1163.606 271.872 L 1163.606 271.872 L 1163.606 271.872 Q 1160.7 271.872 1159.511 273.163 L 1159.511 273.163 L 1159.511 273.163 Q 1158.322 274.453 1158.322 277.705 L 1158.322 277.705 L 1152.123 277.705 L 1152.123 277.705 Q 1152.123 272.278 1154.724 269.799 L 1154.724 269.799 L 1154.724 269.799 Q 1157.326 267.319 1163.342 267.319 L 1163.342 267.319 L 1163.342 267.319 Q 1171.391 267.319 1173.484 272.705 L 1173.484 272.705 L 1173.484 272.705 Q 1174.094 274.27 1174.094 276.181 L 1174.094 276.181 L 1174.094 276.181 Q 1174.094 279.311 1172.63 281.648 L 1172.63 281.648 L 1172.63 281.648 Q 1171.167 283.985 1167.854 286.811 L 1167.854 286.811 L 1160.334 293.254 L 1173.586 293.254 L 1173.586 297.867 L 1153.81 297.867 L 1153.078 293.274 L 1164.196 283.254 L 1164.196 283.254 Q 1166.553 281.14 1167.397 279.656 L 1167.397 279.656 L 1167.397 279.656 Q 1168.24 278.173 1168.24 276.14 Z  M 1191.39 297.867 L 1185.008 297.867 L 1196.065 272.583 L 1182.366 272.583 L 1182.366 267.868 L 1202.65 267.868 L 1202.65 272.055 L 1191.39 297.867 Z " fill="rgb(63,127,63)"/><path d=" M 1149.582 366.483 L 1149.582 366.483 L 1149.582 366.483 Q 1144.521 366.483 1144.521 371.839 L 1144.521 371.839 L 1144.521 371.839 Q 1144.521 377.194 1149.674 377.194 L 1149.674 377.194 L 1149.674 377.194 Q 1154.826 377.194 1154.826 371.89 L 1154.826 371.89 L 1154.826 371.89 Q 1154.826 369.268 1153.607 367.876 L 1153.607 367.876 L 1153.607 367.876 Q 1152.387 366.483 1149.582 366.483 Z  M 1153.891 351.098 L 1147.347 362.744 L 1147.347 362.744 Q 1149.135 362.215 1150.517 362.215 L 1150.517 362.215 L 1150.517 362.215 Q 1155.476 362.215 1157.926 364.512 L 1157.926 364.512 L 1157.926 364.512 Q 1160.375 366.809 1160.375 372.012 L 1160.375 372.012 L 1160.375 372.012 Q 1160.375 377.215 1157.692 379.43 L 1157.692 379.43 L 1157.692 379.43 Q 1155.009 381.646 1149.41 381.646 L 1149.41 381.646 L 1149.41 381.646 Q 1143.81 381.646 1141.28 379.308 L 1141.28 379.308 L 1141.28 379.308 Q 1138.749 376.971 1138.749 371.859 L 1138.749 371.859 L 1138.749 371.859 Q 1138.749 366.748 1141.493 361.504 L 1141.493 361.504 L 1147.387 351.098 L 1153.891 351.098 Z  M 1177.793 377.093 L 1177.793 377.093 L 1177.793 377.093 Q 1183.138 377.093 1183.138 372.459 L 1183.138 372.459 L 1183.138 372.459 Q 1183.138 370.264 1182.579 369.258 L 1182.579 369.258 L 1182.579 369.258 Q 1182.02 368.252 1180.618 367.794 L 1180.618 367.794 L 1180.618 367.794 Q 1179.216 367.337 1176.553 367.337 L 1176.553 367.337 L 1176.553 363.292 L 1176.553 363.292 Q 1181.472 363.292 1182.407 361.788 L 1182.407 361.788 L 1182.407 361.788 Q 1182.976 360.853 1182.976 358.953 L 1182.976 358.953 L 1182.976 358.953 Q 1182.976 357.053 1181.817 356.087 L 1181.817 356.087 L 1181.817 356.087 Q 1180.659 355.122 1177.732 355.122 L 1177.732 355.122 L 1177.732 355.122 Q 1174.805 355.122 1173.657 356.209 L 1173.657 356.209 L 1173.657 356.209 Q 1172.509 357.297 1172.529 360.122 L 1172.529 360.122 L 1167.082 360.122 L 1167.082 360.122 Q 1167.122 354.837 1169.927 352.703 L 1169.927 352.703 L 1169.927 352.703 Q 1172.732 350.569 1177.701 350.569 L 1177.701 350.569 L 1177.701 350.569 Q 1182.671 350.569 1185.638 352.734 L 1185.638 352.734 L 1185.638 352.734 Q 1188.606 354.898 1188.606 358.74 L 1188.606 358.74 L 1188.606 358.74 Q 1188.606 361.829 1187.427 363.303 L 1187.427 363.303 L 1187.427 363.303 Q 1186.248 364.776 1184.053 365.264 L 1184.053 365.264 L 1184.053 365.264 Q 1188.87 366.565 1188.87 372.459 L 1188.87 372.459 L 1188.87 372.459 Q 1188.87 376.544 1186.268 379.105 L 1186.268 379.105 L 1186.268 379.105 Q 1183.667 381.666 1177.996 381.666 L 1177.996 381.666 L 1177.996 381.666 Q 1172.326 381.666 1169.704 379.257 L 1169.704 379.257 L 1169.704 379.257 Q 1167.082 376.849 1166.96 372.256 L 1166.96 372.256 L 1172.407 372.256 L 1172.407 372.256 Q 1172.448 375.02 1173.698 376.056 L 1173.698 376.056 L 1173.698 376.056 Q 1174.947 377.093 1177.793 377.093 Z " fill="rgb(63,127,63)"/><path d=" M 1085.803 297.278 L 1085.803 297.278 L 1085.803 297.278 Q 1084.98 297.725 1083.507 298.06 L 1083.507 298.06 L 1083.507 298.06 Q 1082.033 298.396 1079.554 298.396 L 1079.554 298.396 L 1079.554 298.396 Q 1077.094 298.396 1074.737 297.867 L 1074.737 297.867 L 1074.737 297.867 Q 1070.326 296.892 1068.629 294.361 L 1068.629 294.361 L 1068.629 294.361 Q 1066.932 291.831 1066.932 288.03 L 1066.932 288.03 L 1066.932 278.01 L 1066.932 278.01 Q 1066.932 271.811 1070.875 269.352 L 1070.875 269.352 L 1070.875 269.352 Q 1074.066 267.36 1080.204 267.36 L 1080.204 267.36 L 1080.204 267.36 Q 1090.061 267.38 1091.891 272.909 L 1091.891 272.909 L 1091.891 272.909 Q 1092.5 274.778 1092.5 277.4 L 1092.5 277.4 L 1092.5 277.868 L 1086.566 278.315 L 1086.566 277.116 L 1086.566 277.116 Q 1086.566 274.189 1085.143 273.142 L 1085.143 273.142 L 1085.143 273.142 Q 1083.72 272.096 1080.153 272.096 L 1080.153 272.096 L 1080.153 272.096 Q 1076.586 272.096 1074.787 273.234 L 1074.787 273.234 L 1074.787 273.234 Q 1072.989 274.372 1072.989 277.299 L 1072.989 277.299 L 1072.989 288.64 L 1072.989 288.64 Q 1072.989 291.628 1074.838 292.644 L 1074.838 292.644 L 1074.838 292.644 Q 1076.688 293.66 1080.204 293.66 L 1080.204 293.66 L 1080.204 293.66 Q 1083.72 293.66 1085.397 292.644 L 1085.397 292.644 L 1085.397 292.644 Q 1087.074 291.628 1087.074 288.64 L 1087.074 288.64 L 1087.074 286.445 L 1081.017 286.445 L 1081.017 282.481 L 1092.521 282.481 L 1092.521 297.867 L 1089.33 297.867 L 1088.374 294.412 L 1088.374 294.412 Q 1088.11 295.306 1087.368 296.068 L 1087.368 296.068 L 1087.368 296.068 Q 1086.627 296.831 1085.803 297.278 Z " fill="rgb(0,255,0)"/><path d=" M 1075.113 355.244 L 1075.113 363.191 L 1081.352 363.191 L 1081.352 363.191 Q 1084.238 363.191 1084.787 361.666 L 1084.787 361.666 L 1084.787 361.666 Q 1085.092 360.813 1085.092 359.116 L 1085.092 359.116 L 1085.092 359.116 Q 1085.092 357.419 1084.716 356.646 L 1084.716 356.646 L 1084.716 356.646 Q 1084.34 355.874 1083.344 355.559 L 1083.344 355.559 L 1083.344 355.559 Q 1082.348 355.244 1080.234 355.244 L 1080.234 355.244 L 1075.113 355.244 Z  M 1075.113 366.829 L 1075.113 376.89 L 1080.966 376.89 L 1080.966 376.89 Q 1082.795 376.89 1083.822 376.707 L 1083.822 376.707 L 1083.822 376.707 Q 1084.848 376.524 1085.488 375.934 L 1085.488 375.934 L 1085.488 375.934 Q 1086.129 375.345 1086.322 374.43 L 1086.322 374.43 L 1086.322 374.43 Q 1086.515 373.516 1086.515 372.184 L 1086.515 372.184 L 1086.515 372.184 Q 1086.515 370.853 1086.433 370.182 L 1086.433 370.182 L 1086.433 370.182 Q 1086.23 368.475 1085.153 367.652 L 1085.153 367.652 L 1085.153 367.652 Q 1084.076 366.829 1081.576 366.829 L 1081.576 366.829 L 1075.113 366.829 Z  M 1082.084 381.117 L 1069.076 381.117 L 1069.076 351.118 L 1080.621 351.118 L 1080.621 351.118 Q 1086.799 351.118 1089.076 353.049 L 1089.076 353.049 L 1089.076 353.049 Q 1090.255 354.065 1090.752 355.467 L 1090.752 355.467 L 1090.752 355.467 Q 1091.25 356.87 1091.25 359.166 L 1091.25 359.166 L 1091.25 359.166 Q 1091.25 361.463 1090.437 362.835 L 1090.437 362.835 L 1090.437 362.835 Q 1089.624 364.207 1087.409 364.776 L 1087.409 364.776 L 1087.409 364.776 Q 1090.417 365.183 1091.474 367.052 L 1091.474 367.052 L 1091.474 367.052 Q 1092.531 368.922 1092.531 372.012 L 1092.531 372.012 L 1092.531 372.012 Q 1092.531 372.195 1092.531 372.378 L 1092.531 372.378 L 1092.531 372.378 Q 1092.531 376.808 1090.092 378.963 L 1090.092 378.963 L 1090.092 378.963 Q 1087.653 381.117 1082.084 381.117 L 1082.084 381.117 Z " fill="rgb(0,0,255)"/><path d=" M 810.749 448.25 L 852.374 448.25 L 852.374 406.625 L 810.749 406.625 L 810.749 448.25 Z " fill="none" vector-effect="non-scaling-stroke" stroke-width="2" stroke="rgb(255,255,255)" stroke-linejoin="miter" stroke-linecap="square" stroke-miterlimit="3"/><path d=" M 810.749 406.625 L 852.374 406.625 L 852.374 365 L 810.749 365 L 810.749 406.625 Z " fill="none" vector-effect="non-scaling-stroke" stroke-width="2" stroke="rgb(255,255,255)" stroke-linejoin="miter" stroke-linecap="square" stroke-miterlimit="3"/><path d=" M 1098.628 131.896 L 1098.628 131.896 L 1098.628 131.896 Q 1089.807 131.896 1087.003 127.506 L 1087.003 127.506 L 1087.003 127.506 Q 1085.417 125.067 1085.417 121.185 L 1085.417 121.185 L 1085.417 111.795 L 1085.417 111.795 Q 1085.417 105.474 1089.34 102.953 L 1089.34 102.953 L 1089.34 102.953 Q 1092.572 100.88 1098.71 100.86 L 1098.71 100.86 L 1098.71 100.86 Q 1107.266 100.86 1110.01 105.535 L 1110.01 105.535 L 1110.01 105.535 Q 1111.555 108.157 1111.555 112.1 L 1111.555 112.1 L 1111.555 120.86 L 1111.555 120.86 Q 1111.555 126.998 1107.693 129.721 L 1107.693 129.721 L 1107.693 129.721 Q 1104.604 131.896 1098.628 131.896 Z  M 1091.474 121.855 L 1091.474 121.855 Q 1091.474 124.803 1093.283 125.981 L 1093.283 125.981 L 1093.283 125.981 Q 1095.092 127.16 1098.679 127.16 L 1098.679 127.16 L 1098.679 127.16 Q 1102.266 127.16 1103.882 125.992 L 1103.882 125.992 L 1103.882 125.992 Q 1105.498 124.823 1105.498 121.855 L 1105.498 121.855 L 1105.498 110.982 L 1105.498 110.982 Q 1105.498 108.055 1103.852 106.825 L 1103.852 106.825 L 1103.852 106.825 Q 1102.205 105.596 1098.679 105.596 L 1098.679 105.596 L 1098.679 105.596 Q 1095.153 105.596 1093.313 106.815 L 1093.313 106.815 L 1093.313 106.815 Q 1091.474 108.035 1091.474 110.982 L 1091.474 110.982 L 1091.474 121.855 Z  M 1123.587 131.367 L 1118.059 131.367 L 1118.059 109.539 L 1123.587 109.539 L 1123.587 112.14 L 1123.587 112.14 Q 1124.075 111.205 1125.619 110.474 L 1125.619 110.474 L 1125.619 110.474 Q 1128.282 109.193 1130.762 109.193 L 1130.762 109.193 L 1130.762 109.193 Q 1131.046 109.193 1131.29 109.213 L 1131.29 109.213 L 1131.168 113.908 L 1131.168 113.908 Q 1127.53 114.091 1125.132 115.27 L 1125.132 115.27 L 1125.132 115.27 Q 1123.79 115.921 1123.587 116.734 L 1123.587 116.734 L 1123.587 131.367 Z  M 1140.599 106.429 L 1135.07 106.429 L 1135.07 101.531 L 1140.599 101.531 L 1140.599 106.429 Z  M 1140.599 131.367 L 1135.07 131.367 L 1135.07 109.539 L 1140.599 109.539 L 1140.599 131.367 Z  M 1155.802 127.038 L 1155.802 127.038 L 1155.802 127.038 Q 1158.505 127.038 1159.846 126.063 L 1159.846 126.063 L 1159.846 114.457 L 1159.846 114.457 Q 1159.846 113.969 1158.688 113.441 L 1158.688 113.441 L 1158.688 113.441 Q 1157.509 112.933 1155.68 112.933 L 1155.68 112.933 L 1155.68 112.933 Q 1151.899 112.933 1151.899 115.982 L 1151.899 115.982 L 1151.899 124.132 L 1151.899 124.132 Q 1151.899 127.038 1155.802 127.038 Z  M 1155.517 140.331 L 1155.517 140.331 L 1155.517 140.331 Q 1150.7 140.331 1148.302 139.192 L 1148.302 139.192 L 1149.44 135.432 L 1149.44 135.432 Q 1152.509 136.286 1155.1 136.286 L 1155.1 136.286 L 1155.1 136.286 Q 1157.692 136.286 1158.769 135.26 L 1158.769 135.26 L 1158.769 135.26 Q 1159.846 134.233 1159.846 131.977 L 1159.846 131.977 L 1159.846 129.579 L 1159.846 129.579 Q 1157.936 130.717 1154.43 130.717 L 1154.43 130.717 L 1154.43 130.717 Q 1150.924 130.717 1148.647 128.918 L 1148.647 128.918 L 1148.647 128.918 Q 1146.371 127.12 1146.371 123.929 L 1146.371 123.929 L 1146.371 116.104 L 1146.371 116.104 Q 1146.371 113.156 1148.292 111.114 L 1148.292 111.114 L 1148.292 111.114 Q 1150.212 109.071 1154.684 109.071 L 1154.684 109.071 L 1154.684 109.071 Q 1156.411 109.071 1158.068 109.65 L 1158.068 109.65 L 1158.068 109.65 Q 1159.724 110.23 1160.802 111.104 L 1160.802 111.104 L 1161.269 109.518 L 1165.375 109.518 L 1165.375 131.611 L 1165.375 131.611 Q 1165.375 140.331 1155.517 140.331 Z  M 1177.366 106.429 L 1171.838 106.429 L 1171.838 101.531 L 1177.366 101.531 L 1177.366 106.429 Z  M 1177.366 131.367 L 1171.838 131.367 L 1171.838 109.539 L 1177.366 109.539 L 1177.366 131.367 Z  M 1197.488 131.367 L 1197.488 116.022 L 1197.488 116.022 Q 1197.488 113.197 1193.646 113.197 L 1193.646 113.197 L 1193.646 113.197 Q 1192 113.197 1190.699 114.061 L 1190.699 114.061 L 1190.699 114.061 Q 1189.398 114.925 1189.398 116.429 L 1189.398 116.429 L 1189.398 131.367 L 1183.87 131.367 L 1183.87 109.539 L 1189.398 109.539 L 1189.398 111.47 L 1189.398 111.47 Q 1192.183 109.031 1195.902 109.031 L 1195.902 109.031 L 1195.902 109.031 Q 1199.622 109.031 1201.319 110.941 L 1201.319 110.941 L 1201.319 110.941 Q 1203.016 112.852 1203.016 115.717 L 1203.016 115.717 L 1203.016 131.367 L 1197.488 131.367 Z  M 1213.89 125.392 L 1213.89 125.392 L 1213.89 125.392 Q 1213.89 128.014 1216.735 128.014 L 1216.735 128.014 L 1216.735 128.014 Q 1217.853 128.014 1219.093 127.424 L 1219.093 127.424 L 1219.093 127.424 Q 1220.333 126.835 1221.044 125.758 L 1221.044 125.758 L 1221.044 120.311 L 1221.044 120.311 Q 1220.068 121.103 1217.609 122.008 L 1217.609 122.008 L 1217.609 122.008 Q 1215.15 122.912 1214.52 123.675 L 1214.52 123.675 L 1214.52 123.675 Q 1213.89 124.437 1213.89 125.392 Z  M 1221.491 128.949 L 1221.491 128.949 Q 1220.536 130.189 1218.757 131.012 L 1218.757 131.012 L 1218.757 131.012 Q 1216.979 131.835 1214.438 131.835 L 1214.438 131.835 L 1214.438 131.835 Q 1211.898 131.835 1210.14 130.189 L 1210.14 130.189 L 1210.14 130.189 Q 1208.382 128.542 1208.382 125.981 L 1208.382 125.981 L 1208.382 125.981 Q 1208.382 123.42 1209.977 121.876 L 1209.977 121.876 L 1209.977 121.876 Q 1211.573 120.331 1216.085 118.908 L 1216.085 118.908 L 1216.085 118.908 Q 1218.828 118.034 1219.936 117.343 L 1219.936 117.343 L 1219.936 117.343 Q 1221.044 116.652 1221.044 115.433 L 1221.044 115.433 L 1221.044 115.433 Q 1221.044 112.913 1217.609 112.933 L 1217.609 112.933 L 1217.609 112.933 Q 1215.678 112.933 1214.946 113.675 L 1214.946 113.675 L 1214.946 113.675 Q 1214.215 114.417 1214.215 115.819 L 1214.215 115.819 L 1214.215 116.673 L 1209.032 116.673 L 1209.032 116.022 L 1209.032 116.022 Q 1209.032 112.75 1211.207 110.911 L 1211.207 110.911 L 1211.207 110.911 Q 1213.381 109.071 1217.894 109.071 L 1217.894 109.071 L 1217.894 109.071 Q 1222.406 109.071 1224.448 110.982 L 1224.448 110.982 L 1224.448 110.982 Q 1226.491 112.892 1226.491 116.469 L 1226.491 116.469 L 1226.491 125.107 L 1226.491 125.107 Q 1226.491 126.571 1226.857 127.038 L 1226.857 127.038 L 1226.857 127.038 Q 1227.223 127.506 1228.259 127.506 L 1228.259 127.506 L 1228.036 131.53 L 1226.877 131.53 L 1226.877 131.53 Q 1224.621 131.53 1223.361 130.91 L 1223.361 130.91 L 1223.361 130.91 Q 1222.101 130.29 1221.491 128.949 L 1221.491 128.949 Z  M 1242.995 131.611 L 1240.678 131.611 L 1240.678 131.611 Q 1236.917 131.611 1235.109 129.904 L 1235.109 129.904 L 1235.109 129.904 Q 1233.3 128.197 1233.3 124.193 L 1233.3 124.193 L 1233.3 100.575 L 1238.828 100.575 L 1238.828 124.111 L 1238.828 124.111 Q 1238.828 125.941 1239.682 126.723 L 1239.682 126.723 L 1239.682 126.723 Q 1240.535 127.506 1242.73 127.506 L 1242.73 127.506 L 1243.421 127.506 L 1242.995 131.611 Z " fill="rgb(255,255,255)"/><path d=" M 1423.813 131.367 L 1410.785 131.367 L 1410.785 101.368 L 1423.793 101.368 L 1423.793 101.368 Q 1430.988 101.368 1433.467 105.636 L 1433.467 105.636 L 1433.467 105.636 Q 1434.849 108.035 1434.849 111.835 L 1434.849 111.835 L 1434.849 121.042 L 1434.849 121.042 Q 1434.849 128.644 1429.077 130.615 L 1429.077 130.615 L 1429.077 130.615 Q 1426.882 131.367 1423.813 131.367 L 1423.813 131.367 Z  M 1416.821 106.063 L 1416.821 126.672 L 1423.285 126.672 L 1423.285 126.672 Q 1426.374 126.672 1427.594 125.534 L 1427.594 125.534 L 1427.594 125.534 Q 1428.813 124.396 1428.813 121.815 L 1428.813 121.815 L 1428.813 111.043 L 1428.813 111.043 Q 1428.813 108.502 1427.563 107.283 L 1427.563 107.283 L 1427.563 107.283 Q 1426.313 106.063 1423.285 106.063 L 1423.285 106.063 L 1416.821 106.063 Z  M 1445.886 125.392 L 1445.886 125.392 L 1445.886 125.392 Q 1445.886 128.014 1448.731 128.014 L 1448.731 128.014 L 1448.731 128.014 Q 1449.849 128.014 1451.089 127.424 L 1451.089 127.424 L 1451.089 127.424 Q 1452.329 126.835 1453.04 125.758 L 1453.04 125.758 L 1453.04 120.311 L 1453.04 120.311 Q 1452.064 121.103 1449.605 122.008 L 1449.605 122.008 L 1449.605 122.008 Q 1447.146 122.912 1446.516 123.675 L 1446.516 123.675 L 1446.516 123.675 Q 1445.886 124.437 1445.886 125.392 Z  M 1453.487 128.949 L 1453.487 128.949 Q 1452.532 130.189 1450.753 131.012 L 1450.753 131.012 L 1450.753 131.012 Q 1448.975 131.835 1446.434 131.835 L 1446.434 131.835 L 1446.434 131.835 Q 1443.894 131.835 1442.136 130.189 L 1442.136 130.189 L 1442.136 130.189 Q 1440.378 128.542 1440.378 125.981 L 1440.378 125.981 L 1440.378 125.981 Q 1440.378 123.42 1441.973 121.876 L 1441.973 121.876 L 1441.973 121.876 Q 1443.569 120.331 1448.081 118.908 L 1448.081 118.908 L 1448.081 118.908 Q 1450.825 118.034 1451.932 117.343 L 1451.932 117.343 L 1451.932 117.343 Q 1453.04 116.652 1453.04 115.433 L 1453.04 115.433 L 1453.04 115.433 Q 1453.04 112.913 1449.605 112.933 L 1449.605 112.933 L 1449.605 112.933 Q 1447.674 112.933 1446.943 113.675 L 1446.943 113.675 L 1446.943 113.675 Q 1446.211 114.417 1446.211 115.819 L 1446.211 115.819 L 1446.211 116.673 L 1441.028 116.673 L 1441.028 116.022 L 1441.028 116.022 Q 1441.028 112.75 1443.203 110.911 L 1443.203 110.911 L 1443.203 110.911 Q 1445.378 109.071 1449.89 109.071 L 1449.89 109.071 L 1449.89 109.071 Q 1454.402 109.071 1456.444 110.982 L 1456.444 110.982 L 1456.444 110.982 Q 1458.487 112.892 1458.487 116.469 L 1458.487 116.469 L 1458.487 125.107 L 1458.487 125.107 Q 1458.487 126.571 1458.853 127.038 L 1458.853 127.038 L 1458.853 127.038 Q 1459.219 127.506 1460.255 127.506 L 1460.255 127.506 L 1460.032 131.53 L 1458.873 131.53 L 1458.873 131.53 Q 1456.617 131.53 1455.357 130.91 L 1455.357 130.91 L 1455.357 130.91 Q 1454.097 130.29 1453.487 128.949 L 1453.487 128.949 Z  M 1476.82 131.611 L 1475.458 131.611 L 1475.458 131.611 Q 1470.479 131.611 1468.324 130.107 L 1468.324 130.107 L 1468.324 130.107 Q 1466.17 128.603 1466.17 124.437 L 1466.17 124.437 L 1466.17 113.055 L 1463.263 113.055 L 1463.263 109.539 L 1466.332 109.539 L 1466.84 102.527 L 1471.698 102.527 L 1471.698 109.539 L 1476.881 109.539 L 1476.881 113.055 L 1471.698 113.055 L 1471.698 124.051 L 1471.698 124.051 Q 1471.698 126.083 1472.663 126.794 L 1472.663 126.794 L 1472.663 126.794 Q 1473.629 127.506 1476.373 127.506 L 1476.373 127.506 L 1477.023 127.506 L 1476.82 131.611 Z  M 1486.271 125.392 L 1486.271 125.392 L 1486.271 125.392 Q 1486.271 128.014 1489.116 128.014 L 1489.116 128.014 L 1489.116 128.014 Q 1490.234 128.014 1491.474 127.424 L 1491.474 127.424 L 1491.474 127.424 Q 1492.714 126.835 1493.425 125.758 L 1493.425 125.758 L 1493.425 120.311 L 1493.425 120.311 Q 1492.45 121.103 1489.99 122.008 L 1489.99 122.008 L 1489.99 122.008 Q 1487.531 122.912 1486.901 123.675 L 1486.901 123.675 L 1486.901 123.675 Q 1486.271 124.437 1486.271 125.392 Z  M 1493.872 128.949 L 1493.872 128.949 Q 1492.917 130.189 1491.139 131.012 L 1491.139 131.012 L 1491.139 131.012 Q 1489.36 131.835 1486.82 131.835 L 1486.82 131.835 L 1486.82 131.835 Q 1484.279 131.835 1482.521 130.189 L 1482.521 130.189 L 1482.521 130.189 Q 1480.763 128.542 1480.763 125.981 L 1480.763 125.981 L 1480.763 125.981 Q 1480.763 123.42 1482.358 121.876 L 1482.358 121.876 L 1482.358 121.876 Q 1483.954 120.331 1488.466 118.908 L 1488.466 118.908 L 1488.466 118.908 Q 1491.21 118.034 1492.317 117.343 L 1492.317 117.343 L 1492.317 117.343 Q 1493.425 116.652 1493.425 115.433 L 1493.425 115.433 L 1493.425 115.433 Q 1493.425 112.913 1489.99 112.933 L 1489.99 112.933 L 1489.99 112.933 Q 1488.059 112.933 1487.328 113.675 L 1487.328 113.675 L 1487.328 113.675 Q 1486.596 114.417 1486.596 115.819 L 1486.596 115.819 L 1486.596 116.673 L 1481.413 116.673 L 1481.413 116.022 L 1481.413 116.022 Q 1481.413 112.75 1483.588 110.911 L 1483.588 110.911 L 1483.588 110.911 Q 1485.763 109.071 1490.275 109.071 L 1490.275 109.071 L 1490.275 109.071 Q 1494.787 109.071 1496.83 110.982 L 1496.83 110.982 L 1496.83 110.982 Q 1498.872 112.892 1498.872 116.469 L 1498.872 116.469 L 1498.872 125.107 L 1498.872 125.107 Q 1498.872 126.571 1499.238 127.038 L 1499.238 127.038 L 1499.238 127.038 Q 1499.604 127.506 1500.64 127.506 L 1500.64 127.506 L 1500.417 131.53 L 1499.258 131.53 L 1499.258 131.53 Q 1497.002 131.53 1495.742 130.91 L 1495.742 130.91 L 1495.742 130.91 Q 1494.482 130.29 1493.872 128.949 L 1493.872 128.949 Z " fill="rgb(192,0,0)"/><path d=" M 1301.286 215.969 L 1278.766 215.969 L 1278.766 211.721 L 1287.546 211.721 L 1287.546 190.746 L 1279.213 191.843 L 1278.685 187.433 L 1289.416 185.97 L 1293.583 185.97 L 1293.583 211.721 L 1301.286 211.721 L 1301.286 215.969 Z  M 1330.147 215.969 L 1307.627 215.969 L 1307.627 211.721 L 1316.407 211.721 L 1316.407 190.746 L 1308.074 191.843 L 1307.546 187.433 L 1318.277 185.97 L 1322.444 185.97 L 1322.444 211.721 L 1330.147 211.721 L 1330.147 215.969 Z  M 1359.008 215.969 L 1336.488 215.969 L 1336.488 211.721 L 1345.268 211.721 L 1345.268 190.746 L 1336.935 191.843 L 1336.407 187.433 L 1347.138 185.97 L 1351.305 185.97 L 1351.305 211.721 L 1359.008 211.721 L 1359.008 215.969 Z  M 1387.869 215.969 L 1365.349 215.969 L 1365.349 211.721 L 1374.129 211.721 L 1374.129 190.746 L 1365.796 191.843 L 1365.268 187.433 L 1375.999 185.97 L 1380.166 185.97 L 1380.166 211.721 L 1387.869 211.721 L 1387.869 215.969 Z  M 1238.645 215.969 L 1232.588 215.969 L 1232.588 210.197 L 1238.645 210.197 L 1238.645 215.969 Z  M 1254.254 215.969 L 1248.198 215.969 L 1248.198 210.197 L 1254.254 210.197 L 1254.254 215.969 Z  M 1269.864 215.969 L 1263.807 215.969 L 1263.807 210.197 L 1269.864 210.197 L 1269.864 215.969 Z " fill="rgb(255,255,255)"/><path d=" M 1666.907 216.518 L 1666.907 216.518 L 1666.907 216.518 Q 1664.264 216.518 1661.988 215.623 L 1661.988 215.623 L 1661.988 215.623 Q 1659.712 214.729 1658.37 213.205 L 1658.37 213.205 L 1658.37 213.205 Q 1655.647 210.136 1655.647 205.847 L 1655.647 205.847 L 1655.647 196.234 L 1655.647 196.234 Q 1655.647 190.665 1659.549 187.636 L 1659.549 187.636 L 1659.549 187.636 Q 1662.415 185.421 1667.211 185.421 L 1667.211 185.421 L 1667.211 185.421 Q 1673.959 185.421 1676.805 190.096 L 1676.805 190.096 L 1676.805 190.096 Q 1678.41 192.738 1678.41 196.315 L 1678.41 196.315 L 1678.41 205.766 L 1678.41 205.766 Q 1678.41 209.18 1676.744 211.863 L 1676.744 211.863 L 1676.744 211.863 Q 1673.858 216.497 1666.907 216.518 Z  M 1667.211 211.945 L 1667.211 211.945 L 1667.211 211.945 Q 1670.646 211.945 1671.906 209.18 L 1671.906 209.18 L 1671.906 209.18 Q 1672.557 207.798 1672.557 205.949 L 1672.557 205.949 L 1672.557 196.071 L 1672.557 196.071 Q 1672.557 193.774 1671.561 192.067 L 1671.561 192.067 L 1671.561 192.067 Q 1670.362 189.994 1667.008 189.994 L 1667.008 189.994 L 1667.008 189.994 Q 1663.655 189.994 1662.394 192.799 L 1662.394 192.799 L 1662.394 192.799 Q 1661.744 194.201 1661.744 196.071 L 1661.744 196.071 L 1661.744 205.949 L 1661.744 205.949 Q 1661.744 208.916 1663.258 210.43 L 1663.258 210.43 L 1663.258 210.43 Q 1664.772 211.945 1667.211 211.945 Z " fill="rgb(192,0,0)"/><path d=" M 1592.66 215.969 L 1570.141 215.969 L 1570.141 211.721 L 1578.921 211.721 L 1578.921 190.746 L 1570.588 191.843 L 1570.059 187.433 L 1580.791 185.97 L 1584.957 185.97 L 1584.957 211.721 L 1592.66 211.721 L 1592.66 215.969 Z  M 1621.522 215.969 L 1599.002 215.969 L 1599.002 211.721 L 1607.782 211.721 L 1607.782 190.746 L 1599.449 191.843 L 1598.92 187.433 L 1609.652 185.97 L 1613.818 185.97 L 1613.818 211.721 L 1621.522 211.721 L 1621.522 215.969 Z  M 1650.383 215.969 L 1627.863 215.969 L 1627.863 211.721 L 1636.643 211.721 L 1636.643 190.746 L 1628.31 191.843 L 1627.782 187.433 L 1638.513 185.97 L 1642.68 185.97 L 1642.68 211.721 L 1650.383 211.721 L 1650.383 215.969 Z  M 1530.02 215.969 L 1523.963 215.969 L 1523.963 210.197 L 1530.02 210.197 L 1530.02 215.969 Z  M 1545.629 215.969 L 1539.572 215.969 L 1539.572 210.197 L 1545.629 210.197 L 1545.629 215.969 Z  M 1561.238 215.969 L 1555.182 215.969 L 1555.182 210.197 L 1561.238 210.197 L 1561.238 215.969 Z " fill="rgb(255,255,255)"/><path d=" M 1732.332 199.984 L 1732.332 199.984 L 1732.332 199.984 Q 1727.271 199.984 1727.271 205.339 L 1727.271 205.339 L 1727.271 205.339 Q 1727.271 210.695 1732.423 210.695 L 1732.423 210.695 L 1732.423 210.695 Q 1737.575 210.695 1737.575 205.39 L 1737.575 205.39 L 1737.575 205.39 Q 1737.575 202.768 1736.356 201.376 L 1736.356 201.376 L 1736.356 201.376 Q 1735.137 199.984 1732.332 199.984 Z  M 1736.641 184.598 L 1730.096 196.244 L 1730.096 196.244 Q 1731.885 195.715 1733.267 195.715 L 1733.267 195.715 L 1733.267 195.715 Q 1738.226 195.715 1740.675 198.012 L 1740.675 198.012 L 1740.675 198.012 Q 1743.124 200.309 1743.124 205.512 L 1743.124 205.512 L 1743.124 205.512 Q 1743.124 210.715 1740.441 212.93 L 1740.441 212.93 L 1740.441 212.93 Q 1737.758 215.146 1732.159 215.146 L 1732.159 215.146 L 1732.159 215.146 Q 1726.559 215.146 1724.029 212.808 L 1724.029 212.808 L 1724.029 212.808 Q 1721.499 210.471 1721.499 205.359 L 1721.499 205.359 L 1721.499 205.359 Q 1721.499 200.248 1724.242 195.004 L 1724.242 195.004 L 1730.137 184.598 L 1736.641 184.598 Z  M 1765.42 192.89 L 1765.42 192.89 L 1765.42 192.89 Q 1765.42 188.622 1760.786 188.622 L 1760.786 188.622 L 1760.786 188.622 Q 1757.88 188.622 1756.691 189.913 L 1756.691 189.913 L 1756.691 189.913 Q 1755.502 191.203 1755.502 194.455 L 1755.502 194.455 L 1749.303 194.455 L 1749.303 194.455 Q 1749.303 189.029 1751.904 186.549 L 1751.904 186.549 L 1751.904 186.549 Q 1754.506 184.069 1760.522 184.069 L 1760.522 184.069 L 1760.522 184.069 Q 1768.571 184.069 1770.664 189.455 L 1770.664 189.455 L 1770.664 189.455 Q 1771.274 191.02 1771.274 192.931 L 1771.274 192.931 L 1771.274 192.931 Q 1771.274 196.061 1769.81 198.398 L 1769.81 198.398 L 1769.81 198.398 Q 1768.347 200.736 1765.034 203.561 L 1765.034 203.561 L 1757.514 210.004 L 1770.766 210.004 L 1770.766 214.617 L 1750.99 214.617 L 1750.258 210.024 L 1761.376 200.004 L 1761.376 200.004 Q 1763.733 197.89 1764.577 196.406 L 1764.577 196.406 L 1764.577 196.406 Q 1765.42 194.923 1765.42 192.89 Z " fill="rgb(62,126,63)"/><path d=" M 1729.364 299.219 L 1706.845 299.219 L 1706.845 294.971 L 1715.625 294.971 L 1715.625 273.996 L 1707.292 275.093 L 1706.763 270.683 L 1717.495 269.22 L 1721.661 269.22 L 1721.661 294.971 L 1729.364 294.971 L 1729.364 299.219 Z  M 1750.99 277.492 L 1750.99 277.492 L 1750.99 277.492 Q 1750.99 273.224 1746.356 273.224 L 1746.356 273.224 L 1746.356 273.224 Q 1743.449 273.224 1742.26 274.514 L 1742.26 274.514 L 1742.26 274.514 Q 1741.071 275.805 1741.071 279.057 L 1741.071 279.057 L 1734.872 279.057 L 1734.872 279.057 Q 1734.872 273.63 1737.474 271.15 L 1737.474 271.15 L 1737.474 271.15 Q 1740.075 268.671 1746.092 268.671 L 1746.092 268.671 L 1746.092 268.671 Q 1754.14 268.671 1756.234 274.057 L 1756.234 274.057 L 1756.234 274.057 Q 1756.843 275.622 1756.843 277.532 L 1756.843 277.532 L 1756.843 277.532 Q 1756.843 280.662 1755.38 283 L 1755.38 283 L 1755.38 283 Q 1753.917 285.337 1750.604 288.162 L 1750.604 288.162 L 1743.083 294.605 L 1756.335 294.605 L 1756.335 299.219 L 1736.559 299.219 L 1735.828 294.625 L 1746.945 284.605 L 1746.945 284.605 Q 1749.303 282.492 1750.146 281.008 L 1750.146 281.008 L 1750.146 281.008 Q 1750.99 279.524 1750.99 277.492 Z  M 1775.623 284.585 L 1775.623 284.585 L 1775.623 284.585 Q 1770.562 284.585 1770.562 289.941 L 1770.562 289.941 L 1770.562 289.941 Q 1770.562 295.296 1775.715 295.296 L 1775.715 295.296 L 1775.715 295.296 Q 1780.867 295.296 1780.867 289.991 L 1780.867 289.991 L 1780.867 289.991 Q 1780.867 287.37 1779.648 285.977 L 1779.648 285.977 L 1779.648 285.977 Q 1778.428 284.585 1775.623 284.585 Z  M 1779.932 269.199 L 1773.388 280.845 L 1773.388 280.845 Q 1775.176 280.317 1776.558 280.317 L 1776.558 280.317 L 1776.558 280.317 Q 1781.517 280.317 1783.967 282.614 L 1783.967 282.614 L 1783.967 282.614 Q 1786.416 284.91 1786.416 290.113 L 1786.416 290.113 L 1786.416 290.113 Q 1786.416 295.316 1783.733 297.532 L 1783.733 297.532 L 1783.733 297.532 Q 1781.05 299.747 1775.451 299.747 L 1775.451 299.747 L 1775.451 299.747 Q 1769.851 299.747 1767.321 297.41 L 1767.321 297.41 L 1767.321 297.41 Q 1764.79 295.073 1764.79 289.961 L 1764.79 289.961 L 1764.79 289.961 Q 1764.79 284.849 1767.534 279.605 L 1767.534 279.605 L 1773.428 269.199 L 1779.932 269.199 Z " fill="rgb(62,126,63)"/><path d=" M 1732.332 366.483 L 1732.332 366.483 L 1732.332 366.483 Q 1727.271 366.483 1727.271 371.839 L 1727.271 371.839 L 1727.271 371.839 Q 1727.271 377.194 1732.423 377.194 L 1732.423 377.194 L 1732.423 377.194 Q 1737.575 377.194 1737.575 371.89 L 1737.575 371.89 L 1737.575 371.89 Q 1737.575 369.268 1736.356 367.876 L 1736.356 367.876 L 1736.356 367.876 Q 1735.137 366.483 1732.332 366.483 Z  M 1736.641 351.098 L 1730.096 362.744 L 1730.096 362.744 Q 1731.885 362.215 1733.267 362.215 L 1733.267 362.215 L 1733.267 362.215 Q 1738.226 362.215 1740.675 364.512 L 1740.675 364.512 L 1740.675 364.512 Q 1743.124 366.809 1743.124 372.012 L 1743.124 372.012 L 1743.124 372.012 Q 1743.124 377.215 1740.441 379.43 L 1740.441 379.43 L 1740.441 379.43 Q 1737.758 381.646 1732.159 381.646 L 1732.159 381.646 L 1732.159 381.646 Q 1726.559 381.646 1724.029 379.308 L 1724.029 379.308 L 1724.029 379.308 Q 1721.499 376.971 1721.499 371.859 L 1721.499 371.859 L 1721.499 371.859 Q 1721.499 366.748 1724.242 361.504 L 1724.242 361.504 L 1730.137 351.098 L 1736.641 351.098 Z  M 1760.542 377.093 L 1760.542 377.093 L 1760.542 377.093 Q 1765.888 377.093 1765.888 372.459 L 1765.888 372.459 L 1765.888 372.459 Q 1765.888 370.264 1765.329 369.258 L 1765.329 369.258 L 1765.329 369.258 Q 1764.77 368.252 1763.367 367.794 L 1763.367 367.794 L 1763.367 367.794 Q 1761.965 367.337 1759.303 367.337 L 1759.303 367.337 L 1759.303 363.292 L 1759.303 363.292 Q 1764.221 363.292 1765.156 361.788 L 1765.156 361.788 L 1765.156 361.788 Q 1765.725 360.853 1765.725 358.953 L 1765.725 358.953 L 1765.725 358.953 Q 1765.725 357.053 1764.567 356.087 L 1764.567 356.087 L 1764.567 356.087 Q 1763.408 355.122 1760.481 355.122 L 1760.481 355.122 L 1760.481 355.122 Q 1757.555 355.122 1756.406 356.209 L 1756.406 356.209 L 1756.406 356.209 Q 1755.258 357.297 1755.278 360.122 L 1755.278 360.122 L 1749.831 360.122 L 1749.831 360.122 Q 1749.872 354.837 1752.677 352.703 L 1752.677 352.703 L 1752.677 352.703 Q 1755.482 350.569 1760.451 350.569 L 1760.451 350.569 L 1760.451 350.569 Q 1765.42 350.569 1768.388 352.734 L 1768.388 352.734 L 1768.388 352.734 Q 1771.355 354.898 1771.355 358.74 L 1771.355 358.74 L 1771.355 358.74 Q 1771.355 361.829 1770.176 363.303 L 1770.176 363.303 L 1770.176 363.303 Q 1768.997 364.776 1766.802 365.264 L 1766.802 365.264 L 1766.802 365.264 Q 1771.619 366.565 1771.619 372.459 L 1771.619 372.459 L 1771.619 372.459 Q 1771.619 376.544 1769.018 379.105 L 1769.018 379.105 L 1769.018 379.105 Q 1766.416 381.666 1760.746 381.666 L 1760.746 381.666 L 1760.746 381.666 Q 1755.075 381.666 1752.453 379.257 L 1752.453 379.257 L 1752.453 379.257 Q 1749.831 376.849 1749.709 372.256 L 1749.709 372.256 L 1755.156 372.256 L 1755.156 372.256 Q 1755.197 375.02 1756.447 376.056 L 1756.447 376.056 L 1756.447 376.056 Q 1757.697 377.093 1760.542 377.093 Z " fill="rgb(62,126,63)"/><path d=" M 1729.364 465.043 L 1706.845 465.043 L 1706.845 460.795 L 1715.625 460.795 L 1715.625 439.82 L 1707.292 440.917 L 1706.763 436.507 L 1717.495 435.044 L 1721.661 435.044 L 1721.661 460.795 L 1729.364 460.795 L 1729.364 465.043 Z  M 1750.99 443.316 L 1750.99 443.316 L 1750.99 443.316 Q 1750.99 439.048 1746.356 439.048 L 1746.356 439.048 L 1746.356 439.048 Q 1743.449 439.048 1742.26 440.338 L 1742.26 440.338 L 1742.26 440.338 Q 1741.071 441.629 1741.071 444.881 L 1741.071 444.881 L 1734.872 444.881 L 1734.872 444.881 Q 1734.872 439.454 1737.474 436.974 L 1737.474 436.974 L 1737.474 436.974 Q 1740.075 434.495 1746.092 434.495 L 1746.092 434.495 L 1746.092 434.495 Q 1754.14 434.495 1756.234 439.881 L 1756.234 439.881 L 1756.234 439.881 Q 1756.843 441.446 1756.843 443.356 L 1756.843 443.356 L 1756.843 443.356 Q 1756.843 446.486 1755.38 448.824 L 1755.38 448.824 L 1755.38 448.824 Q 1753.917 451.161 1750.604 453.986 L 1750.604 453.986 L 1743.083 460.429 L 1756.335 460.429 L 1756.335 465.043 L 1736.559 465.043 L 1735.828 460.449 L 1746.945 450.429 L 1746.945 450.429 Q 1749.303 448.316 1750.146 446.832 L 1750.146 446.832 L 1750.146 446.832 Q 1750.99 445.348 1750.99 443.316 Z  M 1774.14 465.043 L 1767.758 465.043 L 1778.814 439.759 L 1765.115 439.759 L 1765.115 435.044 L 1785.399 435.044 L 1785.399 439.231 L 1774.14 465.043 Z " fill="rgb(127,193,126)"/><path d=" M 1729.364 549.644 L 1706.845 549.644 L 1706.845 545.397 L 1715.625 545.397 L 1715.625 524.421 L 1707.292 525.519 L 1706.763 521.109 L 1717.495 519.645 L 1721.661 519.645 L 1721.661 545.397 L 1729.364 545.397 L 1729.364 549.644 Z  M 1741.031 528.476 L 1741.031 528.476 L 1741.031 528.476 Q 1741.031 531.372 1742.159 532.49 L 1742.159 532.49 L 1742.159 532.49 Q 1743.287 533.608 1746.081 533.608 L 1746.081 533.608 L 1746.081 533.608 Q 1748.876 533.608 1749.902 532.46 L 1749.902 532.46 L 1749.902 532.46 Q 1750.929 531.312 1750.929 528.395 L 1750.929 528.395 L 1750.929 528.395 Q 1750.929 525.478 1749.923 524.462 L 1749.923 524.462 L 1749.923 524.462 Q 1748.917 523.446 1746.102 523.446 L 1746.102 523.446 L 1746.102 523.446 Q 1743.287 523.446 1742.159 524.513 L 1742.159 524.513 L 1742.159 524.513 Q 1741.031 525.58 1741.031 528.476 Z  M 1741.722 549.644 L 1748.266 537.673 L 1748.266 537.673 Q 1747.006 538.08 1744.852 538.08 L 1744.852 538.08 L 1744.852 538.08 Q 1740.299 538.08 1737.769 535.925 L 1737.769 535.925 L 1737.769 535.925 Q 1735.238 533.771 1735.238 528.558 L 1735.238 528.558 L 1735.238 528.558 Q 1735.238 523.344 1737.901 521.22 L 1737.901 521.22 L 1737.901 521.22 Q 1740.563 519.096 1746.203 519.096 L 1746.203 519.096 L 1746.203 519.096 Q 1751.843 519.096 1754.353 521.342 L 1754.353 521.342 L 1754.353 521.342 Q 1756.864 523.588 1756.864 528.629 L 1756.864 528.629 L 1756.864 528.629 Q 1756.864 533.669 1754.12 538.913 L 1754.12 538.913 L 1748.226 549.644 L 1741.722 549.644 Z  M 1774.973 545.62 L 1774.973 545.62 L 1774.973 545.62 Q 1780.318 545.62 1780.318 540.986 L 1780.318 540.986 L 1780.318 540.986 Q 1780.318 538.791 1779.759 537.785 L 1779.759 537.785 L 1779.759 537.785 Q 1779.2 536.779 1777.798 536.322 L 1777.798 536.322 L 1777.798 536.322 Q 1776.396 535.864 1773.733 535.864 L 1773.733 535.864 L 1773.733 531.82 L 1773.733 531.82 Q 1778.652 531.82 1779.587 530.316 L 1779.587 530.316 L 1779.587 530.316 Q 1780.156 529.381 1780.156 527.48 L 1780.156 527.48 L 1780.156 527.48 Q 1780.156 525.58 1778.997 524.615 L 1778.997 524.615 L 1778.997 524.615 Q 1777.839 523.649 1774.912 523.649 L 1774.912 523.649 L 1774.912 523.649 Q 1771.985 523.649 1770.837 524.736 L 1770.837 524.736 L 1770.837 524.736 Q 1769.688 525.824 1769.709 528.649 L 1769.709 528.649 L 1764.262 528.649 L 1764.262 528.649 Q 1764.302 523.365 1767.107 521.23 L 1767.107 521.23 L 1767.107 521.23 Q 1769.912 519.096 1774.881 519.096 L 1774.881 519.096 L 1774.881 519.096 Q 1779.851 519.096 1782.818 521.261 L 1782.818 521.261 L 1782.818 521.261 Q 1785.786 523.426 1785.786 527.267 L 1785.786 527.267 L 1785.786 527.267 Q 1785.786 530.356 1784.607 531.83 L 1784.607 531.83 L 1784.607 531.83 Q 1783.428 533.303 1781.233 533.791 L 1781.233 533.791 L 1781.233 533.791 Q 1786.05 535.092 1786.05 540.986 L 1786.05 540.986 L 1786.05 540.986 Q 1786.05 545.071 1783.448 547.632 L 1783.448 547.632 L 1783.448 547.632 Q 1780.847 550.193 1775.176 550.193 L 1775.176 550.193 L 1775.176 550.193 Q 1769.506 550.193 1766.884 547.785 L 1766.884 547.785 L 1766.884 547.785 Q 1764.262 545.376 1764.14 540.783 L 1764.14 540.783 L 1769.587 540.783 L 1769.587 540.783 Q 1769.627 543.547 1770.877 544.584 L 1770.877 544.584 L 1770.877 544.584 Q 1772.127 545.62 1774.973 545.62 Z " fill="rgb(127,193,126)"/><path d=" M 1729.364 631.543 L 1706.845 631.543 L 1706.845 627.295 L 1715.625 627.295 L 1715.625 606.32 L 1707.292 607.417 L 1706.763 603.007 L 1717.495 601.543 L 1721.661 601.543 L 1721.661 627.295 L 1729.364 627.295 L 1729.364 631.543 Z  M 1750.99 609.816 L 1750.99 609.816 L 1750.99 609.816 Q 1750.99 605.547 1746.356 605.547 L 1746.356 605.547 L 1746.356 605.547 Q 1743.449 605.547 1742.26 606.838 L 1742.26 606.838 L 1742.26 606.838 Q 1741.071 608.129 1741.071 611.381 L 1741.071 611.381 L 1734.872 611.381 L 1734.872 611.381 Q 1734.872 605.954 1737.474 603.474 L 1737.474 603.474 L 1737.474 603.474 Q 1740.075 600.995 1746.092 600.995 L 1746.092 600.995 L 1746.092 600.995 Q 1754.14 600.995 1756.234 606.381 L 1756.234 606.381 L 1756.234 606.381 Q 1756.843 607.946 1756.843 609.856 L 1756.843 609.856 L 1756.843 609.856 Q 1756.843 612.986 1755.38 615.324 L 1755.38 615.324 L 1755.38 615.324 Q 1753.917 617.661 1750.604 620.486 L 1750.604 620.486 L 1743.083 626.929 L 1756.335 626.929 L 1756.335 631.543 L 1736.559 631.543 L 1735.828 626.949 L 1746.945 616.929 L 1746.945 616.929 Q 1749.303 614.815 1750.146 613.332 L 1750.146 613.332 L 1750.146 613.332 Q 1750.99 611.848 1750.99 609.816 Z  M 1775.623 616.909 L 1775.623 616.909 L 1775.623 616.909 Q 1770.562 616.909 1770.562 622.264 L 1770.562 622.264 L 1770.562 622.264 Q 1770.562 627.62 1775.715 627.62 L 1775.715 627.62 L 1775.715 627.62 Q 1780.867 627.62 1780.867 622.315 L 1780.867 622.315 L 1780.867 622.315 Q 1780.867 619.693 1779.648 618.301 L 1779.648 618.301 L 1779.648 618.301 Q 1778.428 616.909 1775.623 616.909 Z  M 1779.932 601.523 L 1773.388 613.169 L 1773.388 613.169 Q 1775.176 612.641 1776.558 612.641 L 1776.558 612.641 L 1776.558 612.641 Q 1781.517 612.641 1783.967 614.937 L 1783.967 614.937 L 1783.967 614.937 Q 1786.416 617.234 1786.416 622.437 L 1786.416 622.437 L 1786.416 622.437 Q 1786.416 627.64 1783.733 629.856 L 1783.733 629.856 L 1783.733 629.856 Q 1781.05 632.071 1775.451 632.071 L 1775.451 632.071 L 1775.451 632.071 Q 1769.851 632.071 1767.321 629.734 L 1767.321 629.734 L 1767.321 629.734 Q 1764.79 627.396 1764.79 622.285 L 1764.79 622.285 L 1764.79 622.285 Q 1764.79 617.173 1767.534 611.929 L 1767.534 611.929 L 1773.428 601.523 L 1779.932 601.523 Z " fill="rgb(127,193,126)"/><path d=" M 1666.907 299.768 L 1666.907 299.768 L 1666.907 299.768 Q 1664.264 299.768 1661.988 298.873 L 1661.988 298.873 L 1661.988 298.873 Q 1659.712 297.979 1658.37 296.455 L 1658.37 296.455 L 1658.37 296.455 Q 1655.647 293.386 1655.647 289.097 L 1655.647 289.097 L 1655.647 279.484 L 1655.647 279.484 Q 1655.647 273.915 1659.549 270.886 L 1659.549 270.886 L 1659.549 270.886 Q 1662.415 268.671 1667.211 268.671 L 1667.211 268.671 L 1667.211 268.671 Q 1673.959 268.671 1676.805 273.345 L 1676.805 273.345 L 1676.805 273.345 Q 1678.41 275.988 1678.41 279.565 L 1678.41 279.565 L 1678.41 289.016 L 1678.41 289.016 Q 1678.41 292.43 1676.744 295.113 L 1676.744 295.113 L 1676.744 295.113 Q 1673.858 299.747 1666.907 299.768 Z  M 1667.211 295.195 L 1667.211 295.195 L 1667.211 295.195 Q 1670.646 295.195 1671.906 292.43 L 1671.906 292.43 L 1671.906 292.43 Q 1672.557 291.048 1672.557 289.199 L 1672.557 289.199 L 1672.557 279.321 L 1672.557 279.321 Q 1672.557 277.024 1671.561 275.317 L 1671.561 275.317 L 1671.561 275.317 Q 1670.362 273.244 1667.008 273.244 L 1667.008 273.244 L 1667.008 273.244 Q 1663.655 273.244 1662.394 276.049 L 1662.394 276.049 L 1662.394 276.049 Q 1661.744 277.451 1661.744 279.321 L 1661.744 279.321 L 1661.744 289.199 L 1661.744 289.199 Q 1661.744 292.166 1663.258 293.68 L 1663.258 293.68 L 1663.258 293.68 Q 1664.772 295.195 1667.211 295.195 Z " fill="rgb(192,0,0)"/><path d=" M 1592.66 299.219 L 1570.141 299.219 L 1570.141 294.971 L 1578.921 294.971 L 1578.921 273.996 L 1570.588 275.093 L 1570.059 270.683 L 1580.791 269.22 L 1584.957 269.22 L 1584.957 294.971 L 1592.66 294.971 L 1592.66 299.219 Z  M 1621.522 299.219 L 1599.002 299.219 L 1599.002 294.971 L 1607.782 294.971 L 1607.782 273.996 L 1599.449 275.093 L 1598.92 270.683 L 1609.652 269.22 L 1613.818 269.22 L 1613.818 294.971 L 1621.522 294.971 L 1621.522 299.219 Z  M 1650.383 299.219 L 1627.863 299.219 L 1627.863 294.971 L 1636.643 294.971 L 1636.643 273.996 L 1628.31 275.093 L 1627.782 270.683 L 1638.513 269.22 L 1642.68 269.22 L 1642.68 294.971 L 1650.383 294.971 L 1650.383 299.219 Z  M 1530.02 299.219 L 1523.963 299.219 L 1523.963 293.447 L 1530.02 293.447 L 1530.02 299.219 Z  M 1545.629 299.219 L 1539.572 299.219 L 1539.572 293.447 L 1545.629 293.447 L 1545.629 299.219 Z  M 1561.238 299.219 L 1555.182 299.219 L 1555.182 293.447 L 1561.238 293.447 L 1561.238 299.219 Z " fill="rgb(255,255,255)"/><path d=" M 1679.244 381.117 L 1656.724 381.117 L 1656.724 376.869 L 1665.504 376.869 L 1665.504 355.894 L 1657.171 356.992 L 1656.643 352.581 L 1667.374 351.118 L 1671.541 351.118 L 1671.541 376.869 L 1679.244 376.869 L 1679.244 381.117 Z " fill="rgb(192,0,0)"/><path d=" M 1592.66 381.117 L 1570.141 381.117 L 1570.141 376.869 L 1578.921 376.869 L 1578.921 355.894 L 1570.588 356.992 L 1570.059 352.581 L 1580.791 351.118 L 1584.957 351.118 L 1584.957 376.869 L 1592.66 376.869 L 1592.66 381.117 Z  M 1621.522 381.117 L 1599.002 381.117 L 1599.002 376.869 L 1607.782 376.869 L 1607.782 355.894 L 1599.449 356.992 L 1598.92 352.581 L 1609.652 351.118 L 1613.818 351.118 L 1613.818 376.869 L 1621.522 376.869 L 1621.522 381.117 Z  M 1650.383 381.117 L 1627.863 381.117 L 1627.863 376.869 L 1636.643 376.869 L 1636.643 355.894 L 1628.31 356.992 L 1627.782 352.581 L 1638.513 351.118 L 1642.68 351.118 L 1642.68 376.869 L 1650.383 376.869 L 1650.383 381.117 Z  M 1530.02 381.117 L 1523.963 381.117 L 1523.963 375.345 L 1530.02 375.345 L 1530.02 381.117 Z  M 1545.629 381.117 L 1539.572 381.117 L 1539.572 375.345 L 1545.629 375.345 L 1545.629 381.117 Z  M 1561.238 381.117 L 1555.182 381.117 L 1555.182 375.345 L 1561.238 375.345 L 1561.238 381.117 Z " fill="rgb(255,255,255)"/><path d=" M 1301.286 299.219 L 1278.766 299.219 L 1278.766 294.971 L 1287.546 294.971 L 1287.546 273.996 L 1279.213 275.093 L 1278.685 270.683 L 1289.416 269.22 L 1293.583 269.22 L 1293.583 294.971 L 1301.286 294.971 L 1301.286 299.219 Z  M 1330.147 299.219 L 1307.627 299.219 L 1307.627 294.971 L 1316.407 294.971 L 1316.407 273.996 L 1308.074 275.093 L 1307.546 270.683 L 1318.277 269.22 L 1322.444 269.22 L 1322.444 294.971 L 1330.147 294.971 L 1330.147 299.219 Z  M 1359.008 299.219 L 1336.488 299.219 L 1336.488 294.971 L 1345.268 294.971 L 1345.268 273.996 L 1336.935 275.093 L 1336.407 270.683 L 1347.138 269.22 L 1351.305 269.22 L 1351.305 294.971 L 1359.008 294.971 L 1359.008 299.219 Z  M 1387.869 299.219 L 1365.349 299.219 L 1365.349 294.971 L 1374.129 294.971 L 1374.129 273.996 L 1365.796 275.093 L 1365.268 270.683 L 1375.999 269.22 L 1380.166 269.22 L 1380.166 294.971 L 1387.869 294.971 L 1387.869 299.219 Z  M 1238.645 299.219 L 1232.588 299.219 L 1232.588 293.447 L 1238.645 293.447 L 1238.645 299.219 Z  M 1254.254 299.219 L 1248.198 299.219 L 1248.198 293.447 L 1254.254 293.447 L 1254.254 299.219 Z  M 1269.864 299.219 L 1263.807 299.219 L 1263.807 293.447 L 1269.864 293.447 L 1269.864 299.219 Z " fill="rgb(255,255,255)"/><path d=" M 1454.514 216.518 L 1454.514 216.518 L 1454.514 216.518 Q 1451.871 216.518 1449.595 215.623 L 1449.595 215.623 L 1449.595 215.623 Q 1447.319 214.729 1445.977 213.205 L 1445.977 213.205 L 1445.977 213.205 Q 1443.254 210.136 1443.254 205.847 L 1443.254 205.847 L 1443.254 196.234 L 1443.254 196.234 Q 1443.254 190.665 1447.156 187.636 L 1447.156 187.636 L 1447.156 187.636 Q 1450.022 185.421 1454.818 185.421 L 1454.818 185.421 L 1454.818 185.421 Q 1461.566 185.421 1464.412 190.096 L 1464.412 190.096 L 1464.412 190.096 Q 1466.017 192.738 1466.017 196.315 L 1466.017 196.315 L 1466.017 205.766 L 1466.017 205.766 Q 1466.017 209.18 1464.351 211.863 L 1464.351 211.863 L 1464.351 211.863 Q 1461.465 216.497 1454.514 216.518 Z  M 1454.818 211.945 L 1454.818 211.945 L 1454.818 211.945 Q 1458.253 211.945 1459.513 209.18 L 1459.513 209.18 L 1459.513 209.18 Q 1460.164 207.798 1460.164 205.949 L 1460.164 205.949 L 1460.164 196.071 L 1460.164 196.071 Q 1460.164 193.774 1459.168 192.067 L 1459.168 192.067 L 1459.168 192.067 Q 1457.969 189.994 1454.615 189.994 L 1454.615 189.994 L 1454.615 189.994 Q 1451.262 189.994 1450.001 192.799 L 1450.001 192.799 L 1450.001 192.799 Q 1449.351 194.201 1449.351 196.071 L 1449.351 196.071 L 1449.351 205.949 L 1449.351 205.949 Q 1449.351 208.916 1450.865 210.43 L 1450.865 210.43 L 1450.865 210.43 Q 1452.379 211.945 1454.818 211.945 Z " fill="rgb(192,0,0)"/><path d=" M 1454.514 298.416 L 1454.514 298.416 L 1454.514 298.416 Q 1451.871 298.416 1449.595 297.522 L 1449.595 297.522 L 1449.595 297.522 Q 1447.319 296.627 1445.977 295.103 L 1445.977 295.103 L 1445.977 295.103 Q 1443.254 292.034 1443.254 287.746 L 1443.254 287.746 L 1443.254 278.132 L 1443.254 278.132 Q 1443.254 272.563 1447.156 269.535 L 1447.156 269.535 L 1447.156 269.535 Q 1450.022 267.319 1454.818 267.319 L 1454.818 267.319 L 1454.818 267.319 Q 1461.566 267.319 1464.412 271.994 L 1464.412 271.994 L 1464.412 271.994 Q 1466.017 274.636 1466.017 278.213 L 1466.017 278.213 L 1466.017 287.664 L 1466.017 287.664 Q 1466.017 291.079 1464.351 293.762 L 1464.351 293.762 L 1464.351 293.762 Q 1461.465 298.396 1454.514 298.416 Z  M 1454.818 293.843 L 1454.818 293.843 L 1454.818 293.843 Q 1458.253 293.843 1459.513 291.079 L 1459.513 291.079 L 1459.513 291.079 Q 1460.164 289.697 1460.164 287.847 L 1460.164 287.847 L 1460.164 277.969 L 1460.164 277.969 Q 1460.164 275.673 1459.168 273.965 L 1459.168 273.965 L 1459.168 273.965 Q 1457.969 271.892 1454.615 271.892 L 1454.615 271.892 L 1454.615 271.892 Q 1451.262 271.892 1450.001 274.697 L 1450.001 274.697 L 1450.001 274.697 Q 1449.351 276.099 1449.351 277.969 L 1449.351 277.969 L 1449.351 287.847 L 1449.351 287.847 Q 1449.351 290.815 1450.865 292.329 L 1450.865 292.329 L 1450.865 292.329 Q 1452.379 293.843 1454.818 293.843 Z " fill="rgb(192,0,0)"/><path d=" M 1466.851 381.117 L 1444.331 381.117 L 1444.331 376.869 L 1453.111 376.869 L 1453.111 355.894 L 1444.778 356.992 L 1444.25 352.581 L 1454.981 351.118 L 1459.148 351.118 L 1459.148 376.869 L 1466.851 376.869 L 1466.851 381.117 Z " fill="rgb(192,0,0)"/><path d=" M 1466.851 464.367 L 1444.331 464.367 L 1444.331 460.119 L 1453.111 460.119 L 1453.111 439.144 L 1444.778 440.242 L 1444.25 435.831 L 1454.981 434.368 L 1459.148 434.368 L 1459.148 460.119 L 1466.851 460.119 L 1466.851 464.367 Z " fill="rgb(192,0,0)"/><path d=" M 1466.851 546.265 L 1444.331 546.265 L 1444.331 542.018 L 1453.111 542.018 L 1453.111 521.042 L 1444.778 522.14 L 1444.25 517.73 L 1454.981 516.266 L 1459.148 516.266 L 1459.148 542.018 L 1466.851 542.018 L 1466.851 546.265 Z " fill="rgb(192,0,0)"/><path d=" M 1454.514 630.064 L 1454.514 630.064 L 1454.514 630.064 Q 1451.871 630.064 1449.595 629.17 L 1449.595 629.17 L 1449.595 629.17 Q 1447.319 628.276 1445.977 626.751 L 1445.977 626.751 L 1445.977 626.751 Q 1443.254 623.682 1443.254 619.394 L 1443.254 619.394 L 1443.254 609.78 L 1443.254 609.78 Q 1443.254 604.211 1447.156 601.183 L 1447.156 601.183 L 1447.156 601.183 Q 1450.022 598.967 1454.818 598.967 L 1454.818 598.967 L 1454.818 598.967 Q 1461.566 598.967 1464.412 603.642 L 1464.412 603.642 L 1464.412 603.642 Q 1466.017 606.284 1466.017 609.861 L 1466.017 609.861 L 1466.017 619.312 L 1466.017 619.312 Q 1466.017 622.727 1464.351 625.41 L 1464.351 625.41 L 1464.351 625.41 Q 1461.465 630.044 1454.514 630.064 Z  M 1454.818 625.491 L 1454.818 625.491 L 1454.818 625.491 Q 1458.253 625.491 1459.513 622.727 L 1459.513 622.727 L 1459.513 622.727 Q 1460.164 621.345 1460.164 619.495 L 1460.164 619.495 L 1460.164 609.617 L 1460.164 609.617 Q 1460.164 607.321 1459.168 605.613 L 1459.168 605.613 L 1459.168 605.613 Q 1457.969 603.54 1454.615 603.54 L 1454.615 603.54 L 1454.615 603.54 Q 1451.262 603.54 1450.001 606.345 L 1450.001 606.345 L 1450.001 606.345 Q 1449.351 607.748 1449.351 609.617 L 1449.351 609.617 L 1449.351 619.495 L 1449.351 619.495 Q 1449.351 622.463 1450.865 623.977 L 1450.865 623.977 L 1450.865 623.977 Q 1452.379 625.491 1454.818 625.491 Z " fill="rgb(192,0,0)"/><path d=" M 1442.055 712.765 L 1435.998 712.765 L 1435.998 706.993 L 1442.055 706.993 L 1442.055 712.765 Z  M 1457.664 712.765 L 1451.607 712.765 L 1451.607 706.993 L 1457.664 706.993 L 1457.664 712.765 Z  M 1473.273 712.765 L 1467.216 712.765 L 1467.216 706.993 L 1473.273 706.993 L 1473.273 712.765 Z " fill="rgb(192,0,0)"/><path d=" M 1301.286 381.117 L 1278.766 381.117 L 1278.766 376.869 L 1287.546 376.869 L 1287.546 355.894 L 1279.213 356.992 L 1278.685 352.581 L 1289.416 351.118 L 1293.583 351.118 L 1293.583 376.869 L 1301.286 376.869 L 1301.286 381.117 Z  M 1330.147 381.117 L 1307.627 381.117 L 1307.627 376.869 L 1316.407 376.869 L 1316.407 355.894 L 1308.074 356.992 L 1307.546 352.581 L 1318.277 351.118 L 1322.444 351.118 L 1322.444 376.869 L 1330.147 376.869 L 1330.147 381.117 Z  M 1359.008 381.117 L 1336.488 381.117 L 1336.488 376.869 L 1345.268 376.869 L 1345.268 355.894 L 1336.935 356.992 L 1336.407 352.581 L 1347.138 351.118 L 1351.305 351.118 L 1351.305 376.869 L 1359.008 376.869 L 1359.008 381.117 Z  M 1387.869 381.117 L 1365.349 381.117 L 1365.349 376.869 L 1374.129 376.869 L 1374.129 355.894 L 1365.796 356.992 L 1365.268 352.581 L 1375.999 351.118 L 1380.166 351.118 L 1380.166 376.869 L 1387.869 376.869 L 1387.869 381.117 Z  M 1238.645 381.117 L 1232.588 381.117 L 1232.588 375.345 L 1238.645 375.345 L 1238.645 381.117 Z  M 1254.254 381.117 L 1248.198 381.117 L 1248.198 375.345 L 1254.254 375.345 L 1254.254 381.117 Z  M 1269.864 381.117 L 1263.807 381.117 L 1263.807 375.345 L 1269.864 375.345 L 1269.864 381.117 Z " fill="rgb(255,255,255)"/><path d=" M 1301.286 463.691 L 1278.766 463.691 L 1278.766 459.443 L 1287.546 459.443 L 1287.546 438.468 L 1279.213 439.566 L 1278.685 435.155 L 1289.416 433.692 L 1293.583 433.692 L 1293.583 459.443 L 1301.286 459.443 L 1301.286 463.691 Z  M 1330.147 463.691 L 1307.627 463.691 L 1307.627 459.443 L 1316.407 459.443 L 1316.407 438.468 L 1308.074 439.566 L 1307.546 435.155 L 1318.277 433.692 L 1322.444 433.692 L 1322.444 459.443 L 1330.147 459.443 L 1330.147 463.691 Z  M 1359.008 463.691 L 1336.488 463.691 L 1336.488 459.443 L 1345.268 459.443 L 1345.268 438.468 L 1336.935 439.566 L 1336.407 435.155 L 1347.138 433.692 L 1351.305 433.692 L 1351.305 459.443 L 1359.008 459.443 L 1359.008 463.691 Z  M 1387.869 463.691 L 1365.349 463.691 L 1365.349 459.443 L 1374.129 459.443 L 1374.129 438.468 L 1365.796 439.566 L 1365.268 435.155 L 1375.999 433.692 L 1380.166 433.692 L 1380.166 459.443 L 1387.869 459.443 L 1387.869 463.691 Z  M 1238.645 463.691 L 1232.588 463.691 L 1232.588 457.919 L 1238.645 457.919 L 1238.645 463.691 Z  M 1254.254 463.691 L 1248.198 463.691 L 1248.198 457.919 L 1254.254 457.919 L 1254.254 463.691 Z  M 1269.864 463.691 L 1263.807 463.691 L 1263.807 457.919 L 1269.864 457.919 L 1269.864 463.691 Z " fill="rgb(255,255,255)"/><path d=" M 1288.949 547.49 L 1288.949 547.49 L 1288.949 547.49 Q 1286.306 547.49 1284.03 546.596 L 1284.03 546.596 L 1284.03 546.596 Q 1281.754 545.701 1280.412 544.177 L 1280.412 544.177 L 1280.412 544.177 Q 1277.689 541.108 1277.689 536.819 L 1277.689 536.819 L 1277.689 527.206 L 1277.689 527.206 Q 1277.689 521.637 1281.591 518.609 L 1281.591 518.609 L 1281.591 518.609 Q 1284.457 516.393 1289.254 516.393 L 1289.254 516.393 L 1289.254 516.393 Q 1296.001 516.393 1298.847 521.068 L 1298.847 521.068 L 1298.847 521.068 Q 1300.452 523.71 1300.452 527.287 L 1300.452 527.287 L 1300.452 536.738 L 1300.452 536.738 Q 1300.452 540.153 1298.786 542.836 L 1298.786 542.836 L 1298.786 542.836 Q 1295.9 547.47 1288.949 547.49 Z  M 1289.254 542.917 L 1289.254 542.917 L 1289.254 542.917 Q 1292.688 542.917 1293.949 540.153 L 1293.949 540.153 L 1293.949 540.153 Q 1294.599 538.771 1294.599 536.921 L 1294.599 536.921 L 1294.599 527.043 L 1294.599 527.043 Q 1294.599 524.747 1293.603 523.039 L 1293.603 523.039 L 1293.603 523.039 Q 1292.404 520.966 1289.05 520.966 L 1289.05 520.966 L 1289.05 520.966 Q 1285.697 520.966 1284.437 523.771 L 1284.437 523.771 L 1284.437 523.771 Q 1283.786 525.173 1283.786 527.043 L 1283.786 527.043 L 1283.786 536.921 L 1283.786 536.921 Q 1283.786 539.889 1285.3 541.403 L 1285.3 541.403 L 1285.3 541.403 Q 1286.815 542.917 1289.254 542.917 Z  M 1317.81 547.49 L 1317.81 547.49 L 1317.81 547.49 Q 1315.168 547.49 1312.891 546.596 L 1312.891 546.596 L 1312.891 546.596 Q 1310.615 545.701 1309.273 544.177 L 1309.273 544.177 L 1309.273 544.177 Q 1306.55 541.108 1306.55 536.819 L 1306.55 536.819 L 1306.55 527.206 L 1306.55 527.206 Q 1306.55 521.637 1310.452 518.609 L 1310.452 518.609 L 1310.452 518.609 Q 1313.318 516.393 1318.115 516.393 L 1318.115 516.393 L 1318.115 516.393 Q 1324.862 516.393 1327.708 521.068 L 1327.708 521.068 L 1327.708 521.068 Q 1329.313 523.71 1329.313 527.287 L 1329.313 527.287 L 1329.313 536.738 L 1329.313 536.738 Q 1329.313 540.153 1327.647 542.836 L 1327.647 542.836 L 1327.647 542.836 Q 1324.761 547.47 1317.81 547.49 Z  M 1318.115 542.917 L 1318.115 542.917 L 1318.115 542.917 Q 1321.549 542.917 1322.81 540.153 L 1322.81 540.153 L 1322.81 540.153 Q 1323.46 538.771 1323.46 536.921 L 1323.46 536.921 L 1323.46 527.043 L 1323.46 527.043 Q 1323.46 524.747 1322.464 523.039 L 1322.464 523.039 L 1322.464 523.039 Q 1321.265 520.966 1317.911 520.966 L 1317.911 520.966 L 1317.911 520.966 Q 1314.558 520.966 1313.298 523.771 L 1313.298 523.771 L 1313.298 523.771 Q 1312.647 525.173 1312.647 527.043 L 1312.647 527.043 L 1312.647 536.921 L 1312.647 536.921 Q 1312.647 539.889 1314.161 541.403 L 1314.161 541.403 L 1314.161 541.403 Q 1315.676 542.917 1318.115 542.917 Z  M 1346.671 547.49 L 1346.671 547.49 L 1346.671 547.49 Q 1344.029 547.49 1341.752 546.596 L 1341.752 546.596 L 1341.752 546.596 Q 1339.476 545.701 1338.134 544.177 L 1338.134 544.177 L 1338.134 544.177 Q 1335.411 541.108 1335.411 536.819 L 1335.411 536.819 L 1335.411 527.206 L 1335.411 527.206 Q 1335.411 521.637 1339.313 518.609 L 1339.313 518.609 L 1339.313 518.609 Q 1342.179 516.393 1346.976 516.393 L 1346.976 516.393 L 1346.976 516.393 Q 1353.723 516.393 1356.569 521.068 L 1356.569 521.068 L 1356.569 521.068 Q 1358.175 523.71 1358.175 527.287 L 1358.175 527.287 L 1358.175 536.738 L 1358.175 536.738 Q 1358.175 540.153 1356.508 542.836 L 1356.508 542.836 L 1356.508 542.836 Q 1353.622 547.47 1346.671 547.49 Z  M 1346.976 542.917 L 1346.976 542.917 L 1346.976 542.917 Q 1350.411 542.917 1351.671 540.153 L 1351.671 540.153 L 1351.671 540.153 Q 1352.321 538.771 1352.321 536.921 L 1352.321 536.921 L 1352.321 527.043 L 1352.321 527.043 Q 1352.321 524.747 1351.325 523.039 L 1351.325 523.039 L 1351.325 523.039 Q 1350.126 520.966 1346.772 520.966 L 1346.772 520.966 L 1346.772 520.966 Q 1343.419 520.966 1342.159 523.771 L 1342.159 523.771 L 1342.159 523.771 Q 1341.508 525.173 1341.508 527.043 L 1341.508 527.043 L 1341.508 536.921 L 1341.508 536.921 Q 1341.508 539.889 1343.022 541.403 L 1343.022 541.403 L 1343.022 541.403 Q 1344.537 542.917 1346.976 542.917 Z  M 1375.532 547.49 L 1375.532 547.49 L 1375.532 547.49 Q 1372.89 547.49 1370.613 546.596 L 1370.613 546.596 L 1370.613 546.596 Q 1368.337 545.701 1366.995 544.177 L 1366.995 544.177 L 1366.995 544.177 Q 1364.272 541.108 1364.272 536.819 L 1364.272 536.819 L 1364.272 527.206 L 1364.272 527.206 Q 1364.272 521.637 1368.174 518.609 L 1368.174 518.609 L 1368.174 518.609 Q 1371.04 516.393 1375.837 516.393 L 1375.837 516.393 L 1375.837 516.393 Q 1382.584 516.393 1385.43 521.068 L 1385.43 521.068 L 1385.43 521.068 Q 1387.036 523.71 1387.036 527.287 L 1387.036 527.287 L 1387.036 536.738 L 1387.036 536.738 Q 1387.036 540.153 1385.369 542.836 L 1385.369 542.836 L 1385.369 542.836 Q 1382.483 547.47 1375.532 547.49 Z  M 1375.837 542.917 L 1375.837 542.917 L 1375.837 542.917 Q 1379.272 542.917 1380.532 540.153 L 1380.532 540.153 L 1380.532 540.153 Q 1381.182 538.771 1381.182 536.921 L 1381.182 536.921 L 1381.182 527.043 L 1381.182 527.043 Q 1381.182 524.747 1380.186 523.039 L 1380.186 523.039 L 1380.186 523.039 Q 1378.987 520.966 1375.633 520.966 L 1375.633 520.966 L 1375.633 520.966 Q 1372.28 520.966 1371.02 523.771 L 1371.02 523.771 L 1371.02 523.771 Q 1370.369 525.173 1370.369 527.043 L 1370.369 527.043 L 1370.369 536.921 L 1370.369 536.921 Q 1370.369 539.889 1371.884 541.403 L 1371.884 541.403 L 1371.884 541.403 Q 1373.398 542.917 1375.837 542.917 Z  M 1238.645 546.941 L 1232.588 546.941 L 1232.588 541.169 L 1238.645 541.169 L 1238.645 546.941 Z  M 1254.254 546.941 L 1248.198 546.941 L 1248.198 541.169 L 1254.254 541.169 L 1254.254 546.941 Z  M 1269.864 546.941 L 1263.807 546.941 L 1263.807 541.169 L 1269.864 541.169 L 1269.864 546.941 Z " fill="rgb(255,255,255)"/><path d=" M 1301.286 628.84 L 1278.766 628.84 L 1278.766 624.592 L 1287.546 624.592 L 1287.546 603.617 L 1279.213 604.714 L 1278.685 600.304 L 1289.416 598.84 L 1293.583 598.84 L 1293.583 624.592 L 1301.286 624.592 L 1301.286 628.84 Z  M 1330.147 628.84 L 1307.627 628.84 L 1307.627 624.592 L 1316.407 624.592 L 1316.407 603.617 L 1308.074 604.714 L 1307.546 600.304 L 1318.277 598.84 L 1322.444 598.84 L 1322.444 624.592 L 1330.147 624.592 L 1330.147 628.84 Z  M 1359.008 628.84 L 1336.488 628.84 L 1336.488 624.592 L 1345.268 624.592 L 1345.268 603.617 L 1336.935 604.714 L 1336.407 600.304 L 1347.138 598.84 L 1351.305 598.84 L 1351.305 624.592 L 1359.008 624.592 L 1359.008 628.84 Z  M 1387.869 628.84 L 1365.349 628.84 L 1365.349 624.592 L 1374.129 624.592 L 1374.129 603.617 L 1365.796 604.714 L 1365.268 600.304 L 1375.999 598.84 L 1380.166 598.84 L 1380.166 624.592 L 1387.869 624.592 L 1387.869 628.84 Z  M 1238.645 628.84 L 1232.588 628.84 L 1232.588 623.067 L 1238.645 623.067 L 1238.645 628.84 Z  M 1254.254 628.84 L 1248.198 628.84 L 1248.198 623.067 L 1254.254 623.067 L 1254.254 628.84 Z  M 1269.864 628.84 L 1263.807 628.84 L 1263.807 623.067 L 1269.864 623.067 L 1269.864 628.84 Z " fill="rgb(255,255,255)"/><path d=" M 1684.589 131.367 L 1664.711 131.367 L 1664.711 101.368 L 1684.365 101.368 L 1684.365 105.921 L 1670.728 105.921 L 1670.728 113.888 L 1682.821 113.888 L 1682.821 118.238 L 1670.728 118.238 L 1670.728 126.815 L 1684.589 126.815 L 1684.589 131.367 Z  M 1704.019 131.367 L 1704.019 116.022 L 1704.019 116.022 Q 1704.019 113.197 1700.178 113.197 L 1700.178 113.197 L 1700.178 113.197 Q 1698.532 113.197 1697.231 114.061 L 1697.231 114.061 L 1697.231 114.061 Q 1695.93 114.925 1695.93 116.429 L 1695.93 116.429 L 1695.93 131.367 L 1690.402 131.367 L 1690.402 109.539 L 1695.93 109.539 L 1695.93 111.47 L 1695.93 111.47 Q 1698.715 109.031 1702.434 109.031 L 1702.434 109.031 L 1702.434 109.031 Q 1706.154 109.031 1707.851 110.941 L 1707.851 110.941 L 1707.851 110.941 Q 1709.548 112.852 1709.548 115.717 L 1709.548 115.717 L 1709.548 131.367 L 1704.019 131.367 Z  M 1724.507 131.835 L 1724.507 131.835 L 1724.507 131.835 Q 1718.165 131.835 1716.316 128.989 L 1716.316 128.989 L 1716.316 128.989 Q 1715.157 127.241 1715.157 124.721 L 1715.157 124.721 L 1715.157 115.982 L 1715.157 115.982 Q 1715.157 112.709 1717.535 110.89 L 1717.535 110.89 L 1717.535 110.89 Q 1719.913 109.071 1724.303 109.071 L 1724.303 109.071 L 1724.303 109.071 Q 1728.694 109.071 1730.919 110.809 L 1730.919 110.809 L 1730.919 110.809 Q 1733.145 112.547 1733.145 117.16 L 1733.145 117.16 L 1727.942 117.567 L 1727.942 117.567 Q 1727.942 114.62 1727.23 113.766 L 1727.23 113.766 L 1727.23 113.766 Q 1726.803 113.238 1726.173 113.075 L 1726.173 113.075 L 1726.173 113.075 Q 1725.564 112.933 1724.06 112.933 L 1724.06 112.933 L 1724.06 112.933 Q 1720.686 112.933 1720.686 116.002 L 1720.686 116.002 L 1720.686 124.823 L 1720.686 124.823 Q 1720.686 126.53 1721.57 127.241 L 1721.57 127.241 L 1721.57 127.241 Q 1722.454 127.953 1724.192 127.953 L 1724.192 127.953 L 1724.192 127.953 Q 1725.929 127.953 1726.641 127.638 L 1726.641 127.638 L 1726.641 127.638 Q 1727.352 127.323 1727.657 126.439 L 1727.657 126.439 L 1727.657 126.439 Q 1727.962 125.555 1727.962 123.644 L 1727.962 123.644 L 1733.124 123.644 L 1733.124 123.644 Q 1733.084 126.042 1732.677 127.546 L 1732.677 127.546 L 1732.677 127.546 Q 1732.271 129.01 1731.254 130.026 L 1731.254 130.026 L 1731.254 130.026 Q 1729.425 131.815 1724.507 131.835 Z  M 1747.128 131.835 L 1747.128 131.835 L 1747.128 131.835 Q 1737.657 131.835 1737.657 124.762 L 1737.657 124.762 L 1737.657 116.165 L 1737.657 116.165 Q 1737.657 112.811 1740.147 110.941 L 1740.147 110.941 L 1740.147 110.941 Q 1742.636 109.071 1747.118 109.071 L 1747.118 109.071 L 1747.118 109.071 Q 1751.6 109.071 1754.099 110.951 L 1754.099 110.951 L 1754.099 110.951 Q 1756.599 112.831 1756.599 116.165 L 1756.599 116.165 L 1756.599 124.762 L 1756.599 124.762 Q 1756.599 130.026 1751.6 131.347 L 1751.6 131.347 L 1751.6 131.347 Q 1749.73 131.835 1747.128 131.835 Z  M 1747.128 127.993 L 1747.128 127.993 L 1747.128 127.993 Q 1751.071 127.993 1751.071 125.006 L 1751.071 125.006 L 1751.071 115.921 L 1751.071 115.921 Q 1751.071 114.315 1750.075 113.624 L 1750.075 113.624 L 1750.075 113.624 Q 1749.079 112.933 1747.128 112.933 L 1747.128 112.933 L 1747.128 112.933 Q 1743.185 112.933 1743.185 115.921 L 1743.185 115.921 L 1743.185 125.006 L 1743.185 125.006 Q 1743.185 126.611 1744.171 127.302 L 1744.171 127.302 L 1744.171 127.302 Q 1745.157 127.993 1747.128 127.993 Z  M 1767.168 124.863 L 1767.168 124.863 Q 1767.168 126.489 1768.123 127.221 L 1768.123 127.221 L 1768.123 127.221 Q 1769.079 127.953 1771.193 127.953 L 1771.193 127.953 L 1771.193 127.953 Q 1773.306 127.953 1774.77 127.079 L 1774.77 127.079 L 1774.77 113.685 L 1774.77 113.685 Q 1773.184 112.933 1771.193 112.933 L 1771.193 112.933 L 1771.193 112.933 Q 1769.201 112.933 1768.184 113.634 L 1768.184 113.634 L 1768.184 113.634 Q 1767.168 114.335 1767.168 115.941 L 1767.168 115.941 L 1767.168 124.863 Z  M 1770.319 131.835 L 1770.319 131.835 L 1770.319 131.835 Q 1765.969 131.835 1763.804 129.995 L 1763.804 129.995 L 1763.804 129.995 Q 1761.64 128.156 1761.64 124.782 L 1761.64 124.782 L 1761.64 116.063 L 1761.64 116.063 Q 1761.64 112.872 1763.886 110.972 L 1763.886 110.972 L 1763.886 110.972 Q 1766.132 109.071 1770.705 109.071 L 1770.705 109.071 L 1770.705 109.071 Q 1772.656 109.071 1774.77 109.844 L 1774.77 109.844 L 1774.77 100.555 L 1780.298 100.555 L 1780.298 131.367 L 1776.558 131.367 L 1775.969 130.087 L 1775.969 130.087 Q 1773.469 131.835 1770.319 131.835 Z  M 1791.517 115.677 L 1791.517 118.136 L 1799.363 118.136 L 1799.363 115.575 L 1799.363 115.575 Q 1799.363 113.604 1797.777 113.156 L 1797.777 113.156 L 1797.777 113.156 Q 1796.944 112.913 1795.247 112.923 L 1795.247 112.923 L 1795.247 112.923 Q 1793.55 112.933 1792.533 113.502 L 1792.533 113.502 L 1792.533 113.502 Q 1791.517 114.071 1791.517 115.677 L 1791.517 115.677 Z  M 1791.639 131.469 L 1791.639 131.469 L 1791.639 131.469 Q 1790.013 131.123 1788.712 130.311 L 1788.712 130.311 L 1788.712 130.311 Q 1785.989 128.644 1785.989 124.538 L 1785.989 124.538 L 1785.989 116.022 L 1785.989 116.022 Q 1785.989 112.73 1788.489 110.9 L 1788.489 110.9 L 1788.489 110.9 Q 1790.989 109.071 1795.298 109.071 L 1795.298 109.071 L 1795.298 109.071 Q 1804.586 109.071 1804.586 116.226 L 1804.586 116.226 L 1804.586 121.51 L 1791.517 121.51 L 1791.517 125.067 L 1791.517 125.067 Q 1791.517 126.876 1792.411 127.435 L 1792.411 127.435 L 1792.411 127.435 Q 1793.306 127.993 1795.44 127.993 L 1795.44 127.993 L 1795.44 127.993 Q 1797.574 127.993 1797.96 127.79 L 1797.96 127.79 L 1797.96 127.79 Q 1798.875 127.282 1799.139 126.561 L 1799.139 126.561 L 1799.139 126.561 Q 1799.403 125.839 1799.444 124.66 L 1799.444 124.66 L 1804.566 124.66 L 1804.566 124.66 Q 1804.444 129.701 1801.009 131.042 L 1801.009 131.042 L 1801.009 131.042 Q 1798.997 131.815 1796.131 131.825 L 1796.131 131.825 L 1796.131 131.825 Q 1793.265 131.835 1791.639 131.469 Z  M 1814.87 124.863 L 1814.87 124.863 Q 1814.87 126.489 1815.826 127.221 L 1815.826 127.221 L 1815.826 127.221 Q 1816.781 127.953 1818.895 127.953 L 1818.895 127.953 L 1818.895 127.953 Q 1821.008 127.953 1822.472 127.079 L 1822.472 127.079 L 1822.472 113.685 L 1822.472 113.685 Q 1820.886 112.933 1818.895 112.933 L 1818.895 112.933 L 1818.895 112.933 Q 1816.903 112.933 1815.886 113.634 L 1815.886 113.634 L 1815.886 113.634 Q 1814.87 114.335 1814.87 115.941 L 1814.87 115.941 L 1814.87 124.863 Z  M 1818.021 131.835 L 1818.021 131.835 L 1818.021 131.835 Q 1813.671 131.835 1811.507 129.995 L 1811.507 129.995 L 1811.507 129.995 Q 1809.342 128.156 1809.342 124.782 L 1809.342 124.782 L 1809.342 116.063 L 1809.342 116.063 Q 1809.342 112.872 1811.588 110.972 L 1811.588 110.972 L 1811.588 110.972 Q 1813.834 109.071 1818.407 109.071 L 1818.407 109.071 L 1818.407 109.071 Q 1820.358 109.071 1822.472 109.844 L 1822.472 109.844 L 1822.472 100.555 L 1828 100.555 L 1828 131.367 L 1824.26 131.367 L 1823.671 130.087 L 1823.671 130.087 Q 1821.171 131.835 1818.021 131.835 Z " fill="rgb(255,255,255)"/><path d=" M 1146.615 463.015 L 1124.095 463.015 L 1124.095 458.768 L 1132.875 458.768 L 1132.875 437.793 L 1124.542 438.89 L 1124.014 434.48 L 1134.745 433.016 L 1138.912 433.016 L 1138.912 458.768 L 1146.615 458.768 L 1146.615 463.015 Z  M 1168.24 441.288 L 1168.24 441.288 L 1168.24 441.288 Q 1168.24 437.02 1163.606 437.02 L 1163.606 437.02 L 1163.606 437.02 Q 1160.7 437.02 1159.511 438.311 L 1159.511 438.311 L 1159.511 438.311 Q 1158.322 439.601 1158.322 442.853 L 1158.322 442.853 L 1152.123 442.853 L 1152.123 442.853 Q 1152.123 437.427 1154.724 434.947 L 1154.724 434.947 L 1154.724 434.947 Q 1157.326 432.467 1163.342 432.467 L 1163.342 432.467 L 1163.342 432.467 Q 1171.391 432.467 1173.484 437.854 L 1173.484 437.854 L 1173.484 437.854 Q 1174.094 439.419 1174.094 441.329 L 1174.094 441.329 L 1174.094 441.329 Q 1174.094 444.459 1172.63 446.796 L 1172.63 446.796 L 1172.63 446.796 Q 1171.167 449.134 1167.854 451.959 L 1167.854 451.959 L 1160.334 458.402 L 1173.586 458.402 L 1173.586 463.015 L 1153.81 463.015 L 1153.078 458.422 L 1164.196 448.402 L 1164.196 448.402 Q 1166.553 446.288 1167.397 444.805 L 1167.397 444.805 L 1167.397 444.805 Q 1168.24 443.321 1168.24 441.288 Z  M 1191.39 463.015 L 1185.008 463.015 L 1196.065 437.732 L 1182.366 437.732 L 1182.366 433.016 L 1202.65 433.016 L 1202.65 437.203 L 1191.39 463.015 Z " fill="rgb(127,192,127)"/><path d=" M 1146.615 547.617 L 1124.095 547.617 L 1124.095 543.369 L 1132.875 543.369 L 1132.875 522.394 L 1124.542 523.492 L 1124.014 519.081 L 1134.745 517.618 L 1138.912 517.618 L 1138.912 543.369 L 1146.615 543.369 L 1146.615 547.617 Z  M 1158.281 526.449 L 1158.281 526.449 L 1158.281 526.449 Q 1158.281 529.345 1159.409 530.463 L 1159.409 530.463 L 1159.409 530.463 Q 1160.537 531.581 1163.332 531.581 L 1163.332 531.581 L 1163.332 531.581 Q 1166.127 531.581 1167.153 530.432 L 1167.153 530.432 L 1167.153 530.432 Q 1168.179 529.284 1168.179 526.368 L 1168.179 526.368 L 1168.179 526.368 Q 1168.179 523.451 1167.173 522.435 L 1167.173 522.435 L 1167.173 522.435 Q 1166.167 521.418 1163.352 521.418 L 1163.352 521.418 L 1163.352 521.418 Q 1160.537 521.418 1159.409 522.486 L 1159.409 522.486 L 1159.409 522.486 Q 1158.281 523.553 1158.281 526.449 Z  M 1158.972 547.617 L 1165.517 535.646 L 1165.517 535.646 Q 1164.257 536.052 1162.102 536.052 L 1162.102 536.052 L 1162.102 536.052 Q 1157.55 536.052 1155.019 533.898 L 1155.019 533.898 L 1155.019 533.898 Q 1152.489 531.743 1152.489 526.53 L 1152.489 526.53 L 1152.489 526.53 Q 1152.489 521.317 1155.151 519.193 L 1155.151 519.193 L 1155.151 519.193 Q 1157.814 517.069 1163.454 517.069 L 1163.454 517.069 L 1163.454 517.069 Q 1169.094 517.069 1171.604 519.315 L 1171.604 519.315 L 1171.604 519.315 Q 1174.114 521.561 1174.114 526.601 L 1174.114 526.601 L 1174.114 526.601 Q 1174.114 531.642 1171.37 536.886 L 1171.37 536.886 L 1165.476 547.617 L 1158.972 547.617 Z  M 1197.101 525.89 L 1197.101 525.89 L 1197.101 525.89 Q 1197.101 521.622 1192.467 521.622 L 1192.467 521.622 L 1192.467 521.622 Q 1189.561 521.622 1188.372 522.912 L 1188.372 522.912 L 1188.372 522.912 Q 1187.183 524.203 1187.183 527.455 L 1187.183 527.455 L 1180.984 527.455 L 1180.984 527.455 Q 1180.984 522.028 1183.585 519.549 L 1183.585 519.549 L 1183.585 519.549 Q 1186.187 517.069 1192.203 517.069 L 1192.203 517.069 L 1192.203 517.069 Q 1200.252 517.069 1202.345 522.455 L 1202.345 522.455 L 1202.345 522.455 Q 1202.955 524.02 1202.955 525.931 L 1202.955 525.931 L 1202.955 525.931 Q 1202.955 529.061 1201.492 531.398 L 1201.492 531.398 L 1201.492 531.398 Q 1200.028 533.735 1196.715 536.56 L 1196.715 536.56 L 1189.195 543.003 L 1202.447 543.003 L 1202.447 547.617 L 1182.671 547.617 L 1181.939 543.024 L 1193.057 533.004 L 1193.057 533.004 Q 1195.414 530.89 1196.258 529.406 L 1196.258 529.406 L 1196.258 529.406 Q 1197.101 527.922 1197.101 525.89 Z " fill="rgb(127,192,127)"/><path d=" M 1146.615 629.515 L 1124.095 629.515 L 1124.095 625.267 L 1132.875 625.267 L 1132.875 604.292 L 1124.542 605.39 L 1124.014 600.979 L 1134.745 599.516 L 1138.912 599.516 L 1138.912 625.267 L 1146.615 625.267 L 1146.615 629.515 Z  M 1168.24 607.788 L 1168.24 607.788 L 1168.24 607.788 Q 1168.24 603.52 1163.606 603.52 L 1163.606 603.52 L 1163.606 603.52 Q 1160.7 603.52 1159.511 604.811 L 1159.511 604.811 L 1159.511 604.811 Q 1158.322 606.101 1158.322 609.353 L 1158.322 609.353 L 1152.123 609.353 L 1152.123 609.353 Q 1152.123 603.927 1154.724 601.447 L 1154.724 601.447 L 1154.724 601.447 Q 1157.326 598.967 1163.342 598.967 L 1163.342 598.967 L 1163.342 598.967 Q 1171.391 598.967 1173.484 604.353 L 1173.484 604.353 L 1173.484 604.353 Q 1174.094 605.918 1174.094 607.829 L 1174.094 607.829 L 1174.094 607.829 Q 1174.094 610.959 1172.63 613.296 L 1172.63 613.296 L 1172.63 613.296 Q 1171.167 615.634 1167.854 618.459 L 1167.854 618.459 L 1160.334 624.902 L 1173.586 624.902 L 1173.586 629.515 L 1153.81 629.515 L 1153.078 624.922 L 1164.196 614.902 L 1164.196 614.902 Q 1166.553 612.788 1167.397 611.304 L 1167.397 611.304 L 1167.397 611.304 Q 1168.24 609.821 1168.24 607.788 Z  M 1191.39 629.515 L 1185.008 629.515 L 1196.065 604.231 L 1182.366 604.231 L 1182.366 599.516 L 1202.65 599.516 L 1202.65 603.703 L 1191.39 629.515 Z " fill="rgb(127,192,127)"/><path d=" M 1075.758 436.187 L 1075.758 445.739 L 1083.176 445.739 L 1083.176 445.739 Q 1085.311 445.739 1086.113 444.53 L 1086.113 444.53 L 1086.113 444.53 Q 1086.916 443.321 1086.916 440.862 L 1086.916 440.862 L 1086.916 440.862 Q 1086.916 436.187 1083.42 436.187 L 1083.42 436.187 L 1075.758 436.187 Z  M 1075.758 461.898 L 1069.722 461.898 L 1069.722 431.898 L 1082.668 431.898 L 1082.668 431.898 Q 1088.481 431.898 1090.585 434.256 L 1090.585 434.256 L 1090.585 434.256 Q 1092.688 436.614 1092.688 440.648 L 1092.688 440.648 L 1092.688 440.648 Q 1092.688 444.683 1091.52 446.522 L 1091.52 446.522 L 1091.52 446.522 Q 1090.351 448.361 1088.278 449.174 L 1088.278 449.174 L 1094.07 461.898 L 1087.81 461.898 L 1082.546 450.048 L 1075.758 450.048 L 1075.758 461.898 Z " fill="rgb(255,0,0)"/><path d=" M 1086.733 544.558 L 1086.733 544.558 L 1086.733 544.558 Q 1085.91 545.005 1084.437 545.341 L 1084.437 545.341 L 1084.437 545.341 Q 1082.963 545.676 1080.483 545.676 L 1080.483 545.676 L 1080.483 545.676 Q 1078.024 545.676 1075.666 545.148 L 1075.666 545.148 L 1075.666 545.148 Q 1071.256 544.172 1069.559 541.642 L 1069.559 541.642 L 1069.559 541.642 Q 1067.862 539.111 1067.862 535.31 L 1067.862 535.31 L 1067.862 525.29 L 1067.862 525.29 Q 1067.862 519.091 1071.805 516.632 L 1071.805 516.632 L 1071.805 516.632 Q 1074.996 514.64 1081.134 514.64 L 1081.134 514.64 L 1081.134 514.64 Q 1090.991 514.661 1092.821 520.189 L 1092.821 520.189 L 1092.821 520.189 Q 1093.43 522.059 1093.43 524.681 L 1093.43 524.681 L 1093.43 525.148 L 1087.495 525.595 L 1087.495 524.396 L 1087.495 524.396 Q 1087.495 521.469 1086.073 520.423 L 1086.073 520.423 L 1086.073 520.423 Q 1084.65 519.376 1081.083 519.376 L 1081.083 519.376 L 1081.083 519.376 Q 1077.516 519.376 1075.717 520.514 L 1075.717 520.514 L 1075.717 520.514 Q 1073.919 521.652 1073.919 524.579 L 1073.919 524.579 L 1073.919 535.92 L 1073.919 535.92 Q 1073.919 538.908 1075.768 539.924 L 1075.768 539.924 L 1075.768 539.924 Q 1077.618 540.94 1081.134 540.94 L 1081.134 540.94 L 1081.134 540.94 Q 1084.65 540.94 1086.327 539.924 L 1086.327 539.924 L 1086.327 539.924 Q 1088.004 538.908 1088.004 535.92 L 1088.004 535.92 L 1088.004 533.725 L 1081.947 533.725 L 1081.947 529.762 L 1093.451 529.762 L 1093.451 545.148 L 1090.26 545.148 L 1089.304 541.692 L 1089.304 541.692 Q 1089.04 542.587 1088.298 543.349 L 1088.298 543.349 L 1088.298 543.349 Q 1087.556 544.111 1086.733 544.558 Z " fill="rgb(0,255,0)"/><path d=" M 1076.042 602.524 L 1076.042 610.471 L 1082.282 610.471 L 1082.282 610.471 Q 1085.168 610.471 1085.717 608.947 L 1085.717 608.947 L 1085.717 608.947 Q 1086.022 608.093 1086.022 606.396 L 1086.022 606.396 L 1086.022 606.396 Q 1086.022 604.699 1085.646 603.927 L 1085.646 603.927 L 1085.646 603.927 Q 1085.27 603.154 1084.274 602.839 L 1084.274 602.839 L 1084.274 602.839 Q 1083.278 602.524 1081.164 602.524 L 1081.164 602.524 L 1076.042 602.524 Z  M 1076.042 614.109 L 1076.042 624.17 L 1081.896 624.17 L 1081.896 624.17 Q 1083.725 624.17 1084.752 623.987 L 1084.752 623.987 L 1084.752 623.987 Q 1085.778 623.804 1086.418 623.215 L 1086.418 623.215 L 1086.418 623.215 Q 1087.058 622.625 1087.252 621.711 L 1087.252 621.711 L 1087.252 621.711 Q 1087.445 620.796 1087.445 619.465 L 1087.445 619.465 L 1087.445 619.465 Q 1087.445 618.133 1087.363 617.463 L 1087.363 617.463 L 1087.363 617.463 Q 1087.16 615.755 1086.083 614.932 L 1086.083 614.932 L 1086.083 614.932 Q 1085.006 614.109 1082.506 614.109 L 1082.506 614.109 L 1076.042 614.109 Z  M 1083.014 628.397 L 1070.006 628.397 L 1070.006 598.398 L 1081.55 598.398 L 1081.55 598.398 Q 1087.729 598.398 1090.006 600.329 L 1090.006 600.329 L 1090.006 600.329 Q 1091.184 601.345 1091.682 602.748 L 1091.682 602.748 L 1091.682 602.748 Q 1092.18 604.15 1092.18 606.447 L 1092.18 606.447 L 1092.18 606.447 Q 1092.18 608.743 1091.367 610.115 L 1091.367 610.115 L 1091.367 610.115 Q 1090.554 611.487 1088.339 612.056 L 1088.339 612.056 L 1088.339 612.056 Q 1091.347 612.463 1092.404 614.333 L 1092.404 614.333 L 1092.404 614.333 Q 1093.461 616.203 1093.461 619.292 L 1093.461 619.292 L 1093.461 619.292 Q 1093.461 619.475 1093.461 619.658 L 1093.461 619.658 L 1093.461 619.658 Q 1093.461 624.089 1091.022 626.243 L 1091.022 626.243 L 1091.022 626.243 Q 1088.583 628.397 1083.014 628.397 L 1083.014 628.397 Z " fill="rgb(0,0,255)"/><path d=" M 1679.244 465.043 L 1656.724 465.043 L 1656.724 460.795 L 1665.504 460.795 L 1665.504 439.82 L 1657.171 440.917 L 1656.643 436.507 L 1667.374 435.044 L 1671.541 435.044 L 1671.541 460.795 L 1679.244 460.795 L 1679.244 465.043 Z " fill="rgb(192,0,0)"/><path d=" M 1592.66 465.043 L 1570.141 465.043 L 1570.141 460.795 L 1578.921 460.795 L 1578.921 439.82 L 1570.588 440.917 L 1570.059 436.507 L 1580.791 435.044 L 1584.957 435.044 L 1584.957 460.795 L 1592.66 460.795 L 1592.66 465.043 Z  M 1621.522 465.043 L 1599.002 465.043 L 1599.002 460.795 L 1607.782 460.795 L 1607.782 439.82 L 1599.449 440.917 L 1598.92 436.507 L 1609.652 435.044 L 1613.818 435.044 L 1613.818 460.795 L 1621.522 460.795 L 1621.522 465.043 Z  M 1650.383 465.043 L 1627.863 465.043 L 1627.863 460.795 L 1636.643 460.795 L 1636.643 439.82 L 1628.31 440.917 L 1627.782 436.507 L 1638.513 435.044 L 1642.68 435.044 L 1642.68 460.795 L 1650.383 460.795 L 1650.383 465.043 Z  M 1530.02 465.043 L 1523.963 465.043 L 1523.963 459.271 L 1530.02 459.271 L 1530.02 465.043 Z  M 1545.629 465.043 L 1539.572 465.043 L 1539.572 459.271 L 1545.629 459.271 L 1545.629 465.043 Z  M 1561.238 465.043 L 1555.182 465.043 L 1555.182 459.271 L 1561.238 459.271 L 1561.238 465.043 Z " fill="rgb(255,255,255)"/><path d=" M 1679.244 548.293 L 1656.724 548.293 L 1656.724 544.045 L 1665.504 544.045 L 1665.504 523.07 L 1657.171 524.167 L 1656.643 519.757 L 1667.374 518.294 L 1671.541 518.294 L 1671.541 544.045 L 1679.244 544.045 L 1679.244 548.293 Z " fill="rgb(192,0,0)"/><path d=" M 1580.323 548.842 L 1580.323 548.842 L 1580.323 548.842 Q 1577.681 548.842 1575.405 547.947 L 1575.405 547.947 L 1575.405 547.947 Q 1573.128 547.053 1571.787 545.529 L 1571.787 545.529 L 1571.787 545.529 Q 1569.063 542.46 1569.063 538.171 L 1569.063 538.171 L 1569.063 528.558 L 1569.063 528.558 Q 1569.063 522.989 1572.966 519.96 L 1572.966 519.96 L 1572.966 519.96 Q 1575.832 517.745 1580.628 517.745 L 1580.628 517.745 L 1580.628 517.745 Q 1587.376 517.745 1590.221 522.419 L 1590.221 522.419 L 1590.221 522.419 Q 1591.827 525.062 1591.827 528.639 L 1591.827 528.639 L 1591.827 538.09 L 1591.827 538.09 Q 1591.827 541.504 1590.161 544.187 L 1590.161 544.187 L 1590.161 544.187 Q 1587.274 548.821 1580.323 548.842 Z  M 1580.628 544.268 L 1580.628 544.268 L 1580.628 544.268 Q 1584.063 544.268 1585.323 541.504 L 1585.323 541.504 L 1585.323 541.504 Q 1585.974 540.122 1585.974 538.273 L 1585.974 538.273 L 1585.974 528.395 L 1585.974 528.395 Q 1585.974 526.098 1584.978 524.391 L 1584.978 524.391 L 1584.978 524.391 Q 1583.779 522.318 1580.425 522.318 L 1580.425 522.318 L 1580.425 522.318 Q 1577.071 522.318 1575.811 525.123 L 1575.811 525.123 L 1575.811 525.123 Q 1575.161 526.525 1575.161 528.395 L 1575.161 528.395 L 1575.161 538.273 L 1575.161 538.273 Q 1575.161 541.24 1576.675 542.754 L 1576.675 542.754 L 1576.675 542.754 Q 1578.189 544.268 1580.628 544.268 Z  M 1609.184 548.842 L 1609.184 548.842 L 1609.184 548.842 Q 1606.542 548.842 1604.266 547.947 L 1604.266 547.947 L 1604.266 547.947 Q 1601.989 547.053 1600.648 545.529 L 1600.648 545.529 L 1600.648 545.529 Q 1597.925 542.46 1597.925 538.171 L 1597.925 538.171 L 1597.925 528.558 L 1597.925 528.558 Q 1597.925 522.989 1601.827 519.96 L 1601.827 519.96 L 1601.827 519.96 Q 1604.693 517.745 1609.489 517.745 L 1609.489 517.745 L 1609.489 517.745 Q 1616.237 517.745 1619.083 522.419 L 1619.083 522.419 L 1619.083 522.419 Q 1620.688 525.062 1620.688 528.639 L 1620.688 528.639 L 1620.688 538.09 L 1620.688 538.09 Q 1620.688 541.504 1619.022 544.187 L 1619.022 544.187 L 1619.022 544.187 Q 1616.135 548.821 1609.184 548.842 Z  M 1609.489 544.268 L 1609.489 544.268 L 1609.489 544.268 Q 1612.924 544.268 1614.184 541.504 L 1614.184 541.504 L 1614.184 541.504 Q 1614.835 540.122 1614.835 538.273 L 1614.835 538.273 L 1614.835 528.395 L 1614.835 528.395 Q 1614.835 526.098 1613.839 524.391 L 1613.839 524.391 L 1613.839 524.391 Q 1612.64 522.318 1609.286 522.318 L 1609.286 522.318 L 1609.286 522.318 Q 1605.932 522.318 1604.672 525.123 L 1604.672 525.123 L 1604.672 525.123 Q 1604.022 526.525 1604.022 528.395 L 1604.022 528.395 L 1604.022 538.273 L 1604.022 538.273 Q 1604.022 541.24 1605.536 542.754 L 1605.536 542.754 L 1605.536 542.754 Q 1607.05 544.268 1609.489 544.268 Z  M 1638.045 548.842 L 1638.045 548.842 L 1638.045 548.842 Q 1635.403 548.842 1633.127 547.947 L 1633.127 547.947 L 1633.127 547.947 Q 1630.851 547.053 1629.509 545.529 L 1629.509 545.529 L 1629.509 545.529 Q 1626.786 542.46 1626.786 538.171 L 1626.786 538.171 L 1626.786 528.558 L 1626.786 528.558 Q 1626.786 522.989 1630.688 519.96 L 1630.688 519.96 L 1630.688 519.96 Q 1633.554 517.745 1638.35 517.745 L 1638.35 517.745 L 1638.35 517.745 Q 1645.098 517.745 1647.944 522.419 L 1647.944 522.419 L 1647.944 522.419 Q 1649.549 525.062 1649.549 528.639 L 1649.549 528.639 L 1649.549 538.09 L 1649.549 538.09 Q 1649.549 541.504 1647.883 544.187 L 1647.883 544.187 L 1647.883 544.187 Q 1644.997 548.821 1638.045 548.842 Z  M 1638.35 544.268 L 1638.35 544.268 L 1638.35 544.268 Q 1641.785 544.268 1643.045 541.504 L 1643.045 541.504 L 1643.045 541.504 Q 1643.696 540.122 1643.696 538.273 L 1643.696 538.273 L 1643.696 528.395 L 1643.696 528.395 Q 1643.696 526.098 1642.7 524.391 L 1642.7 524.391 L 1642.7 524.391 Q 1641.501 522.318 1638.147 522.318 L 1638.147 522.318 L 1638.147 522.318 Q 1634.794 522.318 1633.533 525.123 L 1633.533 525.123 L 1633.533 525.123 Q 1632.883 526.525 1632.883 528.395 L 1632.883 528.395 L 1632.883 538.273 L 1632.883 538.273 Q 1632.883 541.24 1634.397 542.754 L 1634.397 542.754 L 1634.397 542.754 Q 1635.911 544.268 1638.35 544.268 Z  M 1530.02 548.293 L 1523.963 548.293 L 1523.963 542.521 L 1530.02 542.521 L 1530.02 548.293 Z  M 1545.629 548.293 L 1539.572 548.293 L 1539.572 542.521 L 1545.629 542.521 L 1545.629 548.293 Z  M 1561.238 548.293 L 1555.182 548.293 L 1555.182 542.521 L 1561.238 542.521 L 1561.238 548.293 Z " fill="rgb(255,255,255)"/><path d=" M 1666.907 630.74 L 1666.907 630.74 L 1666.907 630.74 Q 1664.264 630.74 1661.988 629.846 L 1661.988 629.846 L 1661.988 629.846 Q 1659.712 628.951 1658.37 627.427 L 1658.37 627.427 L 1658.37 627.427 Q 1655.647 624.358 1655.647 620.069 L 1655.647 620.069 L 1655.647 610.456 L 1655.647 610.456 Q 1655.647 604.887 1659.549 601.858 L 1659.549 601.858 L 1659.549 601.858 Q 1662.415 599.643 1667.211 599.643 L 1667.211 599.643 L 1667.211 599.643 Q 1673.959 599.643 1676.805 604.318 L 1676.805 604.318 L 1676.805 604.318 Q 1678.41 606.96 1678.41 610.537 L 1678.41 610.537 L 1678.41 619.988 L 1678.41 619.988 Q 1678.41 623.403 1676.744 626.086 L 1676.744 626.086 L 1676.744 626.086 Q 1673.858 630.72 1666.907 630.74 Z  M 1667.211 626.167 L 1667.211 626.167 L 1667.211 626.167 Q 1670.646 626.167 1671.906 623.403 L 1671.906 623.403 L 1671.906 623.403 Q 1672.557 622.021 1672.557 620.171 L 1672.557 620.171 L 1672.557 610.293 L 1672.557 610.293 Q 1672.557 607.997 1671.561 606.289 L 1671.561 606.289 L 1671.561 606.289 Q 1670.362 604.216 1667.008 604.216 L 1667.008 604.216 L 1667.008 604.216 Q 1663.655 604.216 1662.394 607.021 L 1662.394 607.021 L 1662.394 607.021 Q 1661.744 608.423 1661.744 610.293 L 1661.744 610.293 L 1661.744 620.171 L 1661.744 620.171 Q 1661.744 623.138 1663.258 624.653 L 1663.258 624.653 L 1663.258 624.653 Q 1664.772 626.167 1667.211 626.167 Z " fill="rgb(192,0,0)"/><path d=" M 1592.66 630.191 L 1570.141 630.191 L 1570.141 625.943 L 1578.921 625.943 L 1578.921 604.968 L 1570.588 606.066 L 1570.059 601.655 L 1580.791 600.192 L 1584.957 600.192 L 1584.957 625.943 L 1592.66 625.943 L 1592.66 630.191 Z  M 1621.522 630.191 L 1599.002 630.191 L 1599.002 625.943 L 1607.782 625.943 L 1607.782 604.968 L 1599.449 606.066 L 1598.92 601.655 L 1609.652 600.192 L 1613.818 600.192 L 1613.818 625.943 L 1621.522 625.943 L 1621.522 630.191 Z  M 1650.383 630.191 L 1627.863 630.191 L 1627.863 625.943 L 1636.643 625.943 L 1636.643 604.968 L 1628.31 606.066 L 1627.782 601.655 L 1638.513 600.192 L 1642.68 600.192 L 1642.68 625.943 L 1650.383 625.943 L 1650.383 630.191 Z  M 1530.02 630.191 L 1523.963 630.191 L 1523.963 624.419 L 1530.02 624.419 L 1530.02 630.191 Z  M 1545.629 630.191 L 1539.572 630.191 L 1539.572 624.419 L 1545.629 624.419 L 1545.629 630.191 Z  M 1561.238 630.191 L 1555.182 630.191 L 1555.182 624.419 L 1561.238 624.419 L 1561.238 630.191 Z " fill="rgb(255,255,255)"/><path d=" M 852.374 365 L 1060.499 156.875 L 1809.748 156.875 L 1809.748 406.625 L 852.374 406.625 L 852.374 365 Z " fill="none" vector-effect="non-scaling-stroke" stroke-width="1" stroke="rgb(255,255,255)" stroke-linejoin="miter" stroke-linecap="square" stroke-miterlimit="3"/><path d=" M 852.374 448.25 L 1060.499 656.374 L 1809.748 656.374 L 1809.748 406.625 L 852.374 406.625 L 852.374 448.25 Z " fill="none" vector-effect="non-scaling-stroke" stroke-width="1" stroke="rgb(255,255,255)" stroke-linejoin="miter" stroke-linecap="square" stroke-miterlimit="3"/></g></g></svg>