<?xml version="1.0" standalone="no"?>
<!DOCTYPE svg PUBLIC "-//W3C//DTD SVG 20010904//EN"
 "http://www.w3.org/TR/2001/REC-SVG-20010904/DTD/svg10.dtd">
<svg version="1.0" xmlns="http://www.w3.org/2000/svg"
 width="1024.000000pt" height="1024.000000pt" viewBox="0 0 1024.000000 1024.000000"
 preserveAspectRatio="xMidYMid meet">
<metadata>
Created by potrace 1.11, written by Peter Selinger 2001-2013
</metadata>
<g transform="translate(0.000000,1024.000000) scale(0.100000,-0.100000)"
fill="#000000" stroke="none">
<path d="M6194 7377 c-406 -412 -674 -693 -674 -708 0 -3 58 13 130 37 160 55
201 59 261 30 38 -20 417 -247 459 -276 8 -6 29 -17 47 -25 17 -8 34 -19 38
-25 3 -5 23 -17 43 -27 20 -9 39 -20 42 -23 5 -6 127 -76 245 -140 33 -18 62
-36 65 -39 3 -4 43 -28 90 -55 47 -27 87 -52 90 -55 10 -12 73 -42 78 -37 2 3
1 13 -2 23 -4 10 -7 19 -7 20 1 7 -150 424 -234 648 -41 110 -122 329 -150
405 -15 41 -31 84 -36 95 -5 11 -43 112 -84 225 -42 113 -82 211 -89 218 -10
10 -71 -47 -312 -291z"/>
<path d="M4143 7218 c-12 -15 -51 -124 -123 -338 -28 -85 -55 -164 -60 -175
-13 -30 -220 -660 -220 -669 0 -10 57 1 105 18 137 52 180 67 235 87 36 13 70
24 77 25 7 1 27 9 44 18 18 9 38 16 46 16 7 0 21 4 31 10 20 12 148 59 177 65
11 3 36 11 55 19 34 15 335 126 355 131 74 21 409 151 412 160 2 6 -27 28 -64
50 -38 22 -69 43 -71 47 -2 4 -7 8 -12 8 -4 0 -55 28 -112 61 -113 68 -147 87
-227 132 -29 16 -89 50 -132 76 -43 25 -120 70 -171 100 -51 30 -101 61 -110
69 -10 8 -18 12 -18 8 0 -4 -12 1 -27 11 -27 18 -164 83 -175 83 -3 0 -10 -6
-15 -12z"/>
<path d="M5599 6458 c-107 -110 -225 -233 -264 -273 -38 -39 -119 -124 -180
-189 -119 -127 -156 -166 -364 -385 -75 -79 -146 -154 -157 -166 -32 -32 -42
-57 -39 -90 2 -16 7 -70 10 -120 3 -49 8 -112 10 -140 2 -27 7 -86 10 -130 6
-79 12 -143 20 -220 3 -22 7 -65 10 -95 3 -30 7 -68 10 -85 3 -16 7 -41 9 -55
7 -45 38 -165 46 -175 4 -5 10 -23 14 -40 4 -16 15 -47 25 -70 17 -38 32 -74
36 -85 3 -9 26 -64 42 -100 34 -78 140 -346 165 -415 6 -16 15 -34 19 -39 5
-6 9 -16 9 -23 0 -8 9 -33 20 -55 11 -23 20 -45 20 -50 0 -5 8 -27 19 -51 10
-23 47 -111 82 -196 74 -178 106 -218 221 -276 63 -31 73 -34 81 -20 5 9 6 22
4 30 -3 7 -3 16 0 19 3 3 7 27 9 53 2 26 5 68 8 93 2 25 8 81 11 125 4 44 9
89 11 100 2 11 6 57 9 103 3 46 7 95 9 110 4 24 11 103 21 222 2 19 6 62 9 95
3 33 8 89 11 125 14 148 22 243 29 310 3 30 8 84 11 120 3 36 7 85 10 110 2
25 7 75 9 112 3 38 8 92 11 121 8 77 15 152 20 227 2 36 7 88 10 115 3 28 8
74 10 104 3 30 7 80 10 110 3 31 8 85 11 121 2 36 7 85 9 110 5 43 9 94 20
225 3 33 7 80 10 105 3 25 7 79 10 120 3 41 7 92 10 114 2 21 7 72 9 115 3 42
8 99 11 126 6 52 14 165 18 248 2 27 0 50 -3 52 -4 2 -94 -86 -201 -197z"/>
<path d="M5889 6628 c0 -13 -2 -30 -4 -38 -8 -39 -14 -81 -20 -155 -3 -44 -8
-98 -10 -120 -3 -22 -7 -76 -10 -120 -4 -44 -8 -96 -10 -115 -2 -19 -6 -67 -9
-107 -4 -39 -8 -95 -11 -125 -3 -29 -7 -82 -10 -118 -3 -36 -7 -83 -9 -105 -9
-89 -28 -308 -40 -457 -3 -32 -7 -83 -11 -114 -3 -31 -8 -82 -10 -113 -3 -31
-7 -81 -10 -111 -4 -30 -8 -75 -10 -100 -8 -104 -16 -187 -20 -225 -3 -22 -7
-71 -10 -110 -3 -38 -8 -95 -12 -125 -8 -64 -8 -109 0 -116 5 -5 103 44 214
107 21 12 63 36 93 52 30 17 152 84 270 150 118 66 238 132 265 147 28 15 123
69 213 119 90 50 168 91 173 91 5 0 9 4 9 8 0 4 12 13 28 19 30 13 141 73 217
118 78 47 80 48 157 89 40 21 88 48 108 59 19 11 62 34 95 52 67 35 133 72
245 135 119 68 183 100 197 100 17 0 17 18 -1 35 -13 13 -29 23 -123 76 -37
20 -188 108 -228 132 -11 7 -39 25 -62 40 -24 15 -43 25 -43 21 0 -4 -8 0 -17
8 -10 8 -81 52 -158 98 -77 46 -159 96 -182 112 -24 16 -43 26 -43 22 0 -4 -8
0 -17 8 -10 8 -36 25 -58 38 -125 72 -236 136 -410 239 -77 46 -156 92 -175
103 -19 11 -53 33 -75 48 -33 22 -110 68 -227 135 -10 6 -64 38 -119 73 -56
34 -108 62 -115 62 -8 0 -14 -10 -15 -22z"/>
<path d="M5455 6554 c-88 -30 -164 -56 -170 -57 -5 -2 -14 -5 -20 -8 -5 -4
-28 -12 -50 -18 -22 -7 -49 -16 -60 -21 -35 -15 -191 -70 -199 -70 -4 0 -22
-6 -39 -14 -18 -8 -63 -26 -102 -39 -85 -29 -334 -119 -430 -155 -38 -14 -74
-27 -80 -28 -5 -2 -48 -17 -95 -34 -47 -17 -123 -45 -170 -61 -47 -17 -107
-39 -135 -49 -27 -11 -158 -58 -290 -105 -132 -48 -283 -103 -335 -122 -52
-19 -99 -36 -105 -38 -5 -1 -17 -5 -25 -8 -17 -7 -99 -36 -115 -41 -5 -2 -17
-6 -25 -9 -8 -3 -94 -34 -190 -68 -96 -33 -188 -67 -205 -74 -16 -6 -59 -22
-95 -35 -36 -12 -78 -28 -95 -35 -16 -7 -66 -25 -110 -40 -44 -16 -91 -33
-105 -38 -14 -6 -27 -11 -30 -12 -18 -5 -66 -21 -133 -47 l-78 -30 25 -19 c21
-17 204 -107 366 -181 30 -14 98 -46 150 -71 177 -84 363 -170 370 -172 3 0
34 -15 70 -31 36 -17 81 -38 100 -47 19 -8 70 -31 112 -51 42 -20 82 -36 88
-36 5 0 10 -4 10 -10 0 -5 4 -10 10 -10 9 0 66 -25 195 -85 33 -16 62 -29 65
-30 3 -1 25 -11 50 -22 118 -54 173 -79 267 -124 56 -27 104 -49 107 -49 2 0
74 -34 161 -75 86 -41 158 -75 160 -75 2 0 84 -39 182 -86 290 -140 323 -155
323 -139 0 6 -28 81 -45 120 -7 17 -33 80 -58 140 -25 61 -53 128 -62 149 -9
22 -18 69 -20 105 -3 36 -7 89 -9 116 -3 28 -8 82 -11 120 -6 76 -12 147 -19
210 -2 22 -7 81 -11 130 -4 50 -9 106 -11 125 -2 19 -6 62 -8 95 -3 33 -7 74
-10 92 -6 29 1 39 83 125 49 51 103 109 121 128 18 19 107 113 199 209 200
210 201 210 376 396 322 341 345 365 329 365 -5 0 -81 -25 -169 -56z"/>
<path d="M8095 6278 c-16 -5 -39 -13 -50 -18 -11 -5 -103 -39 -205 -75 -178
-65 -506 -185 -562 -207 -16 -6 -28 -14 -28 -18 0 -7 194 -140 205 -140 2 0
24 -13 48 -30 25 -16 48 -30 51 -30 4 0 19 -8 34 -19 15 -10 88 -56 162 -101
151 -93 305 -199 370 -257 44 -39 144 -128 190 -170 42 -39 48 -31 34 50 -14
79 -60 334 -68 382 -3 17 -8 41 -11 55 -3 14 -8 41 -11 60 -4 19 -8 44 -11 55
-9 47 -33 172 -37 198 -3 15 -7 35 -10 45 -3 9 -8 33 -10 52 -4 31 -15 85 -31
158 -6 24 -14 26 -60 10z"/>
<path d="M2813 6163 c-27 -63 -47 -108 -48 -113 -1 -3 -6 -16 -12 -30 -56
-130 -165 -410 -160 -410 8 1 113 36 222 75 72 26 189 67 260 92 72 24 137 47
145 50 8 3 20 7 25 9 78 21 92 36 53 59 -9 6 -44 29 -77 53 -33 23 -63 42 -66
42 -3 0 -11 5 -18 11 -7 5 -27 20 -46 32 -19 12 -42 27 -50 32 -9 6 -29 19
-46 29 -16 11 -40 29 -52 40 -13 11 -23 16 -23 11 0 -4 -8 -2 -17 6 -23 18
-61 39 -70 39 -5 0 -14 -12 -20 -27z"/>
<path d="M1201 5573 c-12 -8 -21 -11 -21 -6 0 4 -4 3 -8 -3 -4 -5 -23 -18 -42
-27 -19 -10 -42 -22 -50 -27 -8 -6 -53 -33 -100 -61 -47 -28 -97 -58 -112 -67
-30 -18 -36 -31 -15 -33 6 -1 23 -3 37 -5 22 -3 549 -7 575 -5 7 1 7 4 0 9 -5
4 -35 36 -65 72 -30 36 -63 73 -74 83 -10 9 -16 17 -12 17 11 0 -65 64 -79 66
-8 1 -23 -5 -34 -13z"/>
<path d="M14 5290 c-15 -6 -13 -9 14 -18 18 -6 32 -9 32 -6 0 3 9 0 21 -6 11
-7 33 -14 47 -16 15 -3 79 -18 142 -33 139 -34 256 -61 290 -68 14 -2 45 -9
70 -14 25 -6 56 -13 70 -15 40 -8 149 -33 240 -54 70 -16 215 -50 280 -65 8
-2 47 -11 85 -20 39 -9 77 -18 85 -20 8 -2 44 -10 80 -18 36 -8 101 -22 145
-32 44 -9 87 -20 95 -23 20 -7 28 -9 71 -16 20 -3 42 -8 50 -10 8 -3 25 -8 39
-10 14 -3 34 -7 45 -10 33 -8 158 -36 185 -42 14 -3 41 -9 60 -14 19 -5 46
-11 60 -14 30 -6 117 -24 145 -31 20 -5 38 -9 110 -24 45 -10 274 -61 290 -65
6 -2 21 -6 35 -9 14 -4 36 -9 50 -12 14 -2 43 -9 65 -14 22 -5 51 -12 65 -15
14 -2 57 -12 95 -21 39 -10 79 -19 90 -21 11 -2 74 -15 140 -29 141 -29 158
-31 130 -11 -11 7 -23 14 -27 16 -4 1 -42 19 -84 41 -43 21 -84 39 -91 39 -7
0 -13 5 -13 10 0 6 -5 10 -11 10 -6 0 -48 17 -92 39 -99 47 -219 103 -306 143
-36 16 -111 52 -169 79 -57 27 -106 49 -108 49 -2 0 -69 32 -150 70 -80 39
-148 70 -149 70 -2 0 -50 22 -107 49 -262 125 -240 123 -1203 146 -88 2 -261
7 -385 10 -377 10 -506 12 -526 5z"/>
<path d="M7837 5260 c-42 -22 -123 -66 -180 -98 -56 -33 -147 -83 -202 -112
-55 -29 -125 -66 -155 -83 -30 -16 -91 -50 -135 -74 -44 -24 -87 -48 -95 -54
-8 -5 -28 -16 -45 -25 -16 -9 -51 -28 -76 -42 -83 -48 -367 -206 -429 -238
-19 -11 -37 -21 -40 -24 -3 -3 -30 -18 -60 -34 -106 -55 -185 -98 -195 -106
-5 -4 -50 -29 -100 -56 -124 -66 -171 -92 -256 -141 -118 -68 -134 -78 -137
-85 -2 -5 -9 -8 -16 -8 -7 0 -25 -13 -40 -29 -26 -28 -29 -36 -33 -135 l-6
-106 94 -1 c52 0 148 -2 214 -4 66 -2 203 -6 305 -9 102 -3 282 -8 400 -12
281 -8 599 -11 626 -6 11 2 21 10 21 18 0 14 12 44 70 172 18 41 33 76 33 78
0 3 9 24 19 47 10 23 53 123 94 222 41 99 83 198 93 220 10 22 18 42 19 45 0
3 6 14 12 25 6 11 11 22 11 25 1 10 133 324 191 455 41 91 51 112 70 157 11
26 17 50 12 52 -4 3 -42 -13 -84 -34z"/>
<path d="M8089 5297 c-10 -28 -17 -103 -24 -236 -10 -217 -16 -318 -21 -396
-2 -44 -7 -118 -9 -165 -2 -47 -7 -128 -11 -180 -9 -141 -13 -380 -7 -396 3
-8 11 -14 18 -14 12 0 109 38 190 75 17 7 77 32 135 55 58 23 119 48 135 55
17 7 71 30 120 50 50 20 109 46 132 56 24 10 45 19 48 19 4 0 45 18 193 86 39
19 72 39 72 46 0 11 -652 665 -861 864 -62 59 -106 92 -110 81z"/>
<path d="M7910 5063 c-41 -92 -74 -170 -72 -175 1 -4 -2 -8 -8 -8 -6 0 -10 -6
-10 -13 0 -8 -15 -49 -34 -93 -44 -102 -67 -158 -67 -162 1 -1 -8 -19 -19 -39
-11 -21 -20 -41 -20 -45 0 -4 -11 -31 -24 -60 -13 -29 -70 -161 -126 -293 -56
-132 -106 -244 -111 -250 -5 -5 -9 -16 -9 -25 0 -8 -6 -26 -13 -40 -7 -14 -24
-58 -37 -99 -22 -69 -23 -79 -11 -150 6 -42 14 -89 16 -104 3 -16 7 -32 10
-37 3 -4 7 -23 10 -41 5 -27 39 -169 79 -329 13 -50 37 -127 44 -136 9 -13
100 -74 111 -74 5 0 14 -7 21 -15 7 -9 15 -13 18 -11 3 3 17 -3 31 -13 46 -33
153 -82 166 -78 12 5 24 67 30 162 8 118 16 275 21 383 2 65 6 158 9 207 2 50
7 144 10 210 3 66 8 154 10 195 11 220 18 341 20 395 6 128 15 303 19 370 3
39 8 126 12 195 3 69 8 145 9 170 8 105 7 152 -1 160 -6 6 -40 -58 -84 -157z"/>
<path d="M9427 5103 c-66 -148 -167 -414 -167 -442 0 -18 30 -10 127 35 119
55 302 136 313 138 3 1 54 25 114 54 85 41 106 55 97 65 -11 14 -41 28 -211
101 -58 24 -135 58 -172 75 -36 17 -68 31 -71 31 -2 0 -16 -26 -30 -57z"/>
<path d="M9245 5125 c-123 -28 -196 -48 -292 -80 -41 -14 -82 -27 -91 -29 -9
-1 -24 -6 -32 -9 -8 -3 -59 -20 -112 -37 -54 -17 -101 -36 -104 -42 -8 -13
332 -350 420 -417 61 -48 68 -47 83 9 3 14 9 27 12 30 4 3 26 57 50 120 24 63
68 178 98 255 75 192 83 214 75 218 -4 2 -52 -6 -107 -18z"/>
<path d="M9955 4870 c-52 -18 -136 -55 -217 -95 -27 -13 -48 -22 -48 -20 0 2
-31 -12 -70 -31 -38 -18 -75 -34 -82 -34 -25 0 8 -18 72 -39 36 -12 74 -26 85
-31 40 -16 423 -133 475 -145 8 -2 27 -6 43 -10 21 -6 27 -4 27 9 0 36 -200
400 -225 409 -5 3 -32 -3 -60 -13z"/>
<path d="M5200 2940 c0 -6 8 -32 19 -59 10 -28 16 -52 13 -55 -3 -4 0 -6 6 -6
7 0 12 -7 12 -15 0 -8 4 -23 10 -33 9 -17 62 -143 73 -174 4 -10 17 -18 29
-19 13 0 52 -2 88 -4 311 -14 398 -16 404 -6 7 11 -77 70 -179 126 -27 15
-129 71 -225 125 -188 105 -250 135 -250 120z"/>
<path d="M7530 2831 c0 -9 8 -32 31 -86 59 -141 71 -157 124 -170 44 -10 325
-16 325 -7 0 24 -87 78 -310 195 -136 70 -170 84 -170 68z"/>
</g>
</svg>
