<svg id="_3" data-name="3" xmlns="http://www.w3.org/2000/svg" viewBox="0 0 1372 726.87"><defs><style>.cls-1{fill:#3e2e70;}.cls-2{fill:#c98e3a;}.cls-3{fill:#ebd790;}.cls-4{fill:#812024;}.cls-5{fill:#ac272d;}.cls-6{fill:#621b1d;}</style></defs><title>3</title><path id="path5149" class="cls-1" d="M885.14,556,642.26,604.46,506.31,591.23,397.56,611.81l-166-27.93L0,605V726.87H1372v-193Z"/><g id="g5299"><path id="path5295" class="cls-1" d="M705.22,586.3,698.36,578h6.86l-8.13-8.23h5.39l-12.25-15.29L678,569.74h5.39L675.23,578h6.86l-6.86,8.33Z"/><path id="path5297" class="cls-1" d="M688.36,586.3h3.73V599h-3.73Z"/></g><g id="g5979"><path id="path24" class="cls-2" d="M764.17,236.81a60.52,60.52,0,0,0,15.28-14.36h0l0,0a59.45,59.45,0,0,0,6.47-10.86L865.68,43.14,700.74,135a60,60,0,1,0,63.43,101.81"/><path id="path26" class="cls-3" d="M703.68,149.15,834.38,77,767.46,216.21l-63.78-67.06"/><path id="path28" class="cls-4" d="M758.81,223.51a45.82,45.82,0,0,0,5.93-4.6c1-.86,1.85-1.76,2.72-2.7-.4.28-.8.56-1.21.82A46.37,46.37,0,0,1,707,146.62a46.37,46.37,0,0,0,51.84,76.89"/><path id="path30" class="cls-5" d="M694.82,183.06a46.37,46.37,0,0,0,71.43,34c.41-.26.81-.54,1.21-.82a46.37,46.37,0,0,0-53-73.84,45.71,45.71,0,0,0-4.66,2.43c-1,.57-1.9,1.18-2.81,1.82a46.26,46.26,0,0,0-12.15,36.44"/><path id="path32" class="cls-6" d="M709.79,179.41a10.15,10.15,0,0,1,11,7.75,9.46,9.46,0,0,0,0-1.3A10.17,10.17,0,1,0,700.48,188a10.86,10.86,0,0,0,.23,1.29,10.16,10.16,0,0,1,9.08-9.88"/><path id="path34" class="cls-4" d="M711.66,197a10.17,10.17,0,0,0,9.08-9.88,10.15,10.15,0,0,0-20,2.13A10.16,10.16,0,0,0,711.66,197"/><path id="path36" class="cls-6" d="M766.84,186.9a5.73,5.73,0,0,1,6.17,4.38,4.58,4.58,0,0,0,0-.74,5.74,5.74,0,1,0-11.41,1.21c0,.25.08.49.13.72a5.75,5.75,0,0,1,5.13-5.57"/><path id="path38" class="cls-4" d="M767.89,196.85a5,5,0,1,0-6.18-4.38,5.73,5.73,0,0,0,6.18,4.38"/><path id="path40" class="cls-6" d="M755.94,201a3.7,3.7,0,0,1,4,2.82,3.77,3.77,0,0,0,0-.47,3.69,3.69,0,1,0-7.34.78,2.33,2.33,0,0,0,.08.46,3.69,3.69,0,0,1,3.3-3.59"/><path id="path42" class="cls-4" d="M756.62,207.38a3.25,3.25,0,1,0-4-2.82,3.69,3.69,0,0,0,4,2.82"/><path id="path44" class="cls-6" d="M715.28,151.27c3.13-1.48,6.63-.74,8.21,1.6a4.32,4.32,0,0,0-.26-.68c-1.34-2.84-5.18-3.84-8.57-2.24s-5.06,5.21-3.72,8.05a5,5,0,0,0,.37.63c-.81-2.71.84-5.88,4-7.36"/><path id="path46" class="cls-4" d="M719.52,160.23c3.12-1.48,4.78-4.65,4-7.36-1.58-2.34-5.08-3.08-8.21-1.6s-4.78,4.65-4,7.36c1.58,2.34,5.08,3.08,8.21,1.6"/><path id="path48" class="cls-6" d="M729,154.23a1.8,1.8,0,0,1,2.27.7,1.43,1.43,0,0,0-.08-.22,1.78,1.78,0,1,0-3.22,1.52l.12.2a1.79,1.79,0,0,1,.91-2.2"/><path id="path50" class="cls-4" d="M730.39,157.13a1.61,1.61,0,1,0-2.28-.7,1.8,1.8,0,0,0,2.28.7"/><path id="path52" class="cls-6" d="M714.87,203.1a2.87,2.87,0,0,1,3.52,1.43,1.61,1.61,0,0,0-.1-.36,2.88,2.88,0,1,0-5.43,1.9,2.07,2.07,0,0,0,.15.34,2.87,2.87,0,0,1,1.86-3.31"/><path id="path54" class="cls-4" d="M716.53,207.84a2.53,2.53,0,1,0-3.52-1.43,2.88,2.88,0,0,0,3.52,1.43"/><path id="path56" class="cls-6" d="M750.62,187.75a1.2,1.2,0,0,1,1.46.6s0-.1,0-.15a1.19,1.19,0,0,0-1.52-.73,1.18,1.18,0,0,0-.73,1.51l.06.14a1.2,1.2,0,0,1,.77-1.37"/><path id="path58" class="cls-4" d="M751.31,189.71a1.19,1.19,0,0,0,.77-1.36,1.19,1.19,0,0,0-2.23.77,1.19,1.19,0,0,0,1.46.59"/><path id="path60" class="cls-6" d="M766.08,177.49a1.2,1.2,0,0,1,1,1.18l0-.15a1.19,1.19,0,0,0-2.36-.31.92.92,0,0,0,0,.16,1.19,1.19,0,0,1,1.3-.88"/><path id="path62" class="cls-4" d="M765.81,179.55a1,1,0,1,0-1-1.18,1.19,1.19,0,0,0,1,1.18"/><path id="path64" class="cls-6" d="M767.82,205.12a1.2,1.2,0,0,1,1,1.18l0-.15a1.21,1.21,0,0,0-1-1.34,1.19,1.19,0,0,0-1.33,1,.76.76,0,0,0,0,.15,1.18,1.18,0,0,1,1.3-.87"/><path id="path66" class="cls-4" d="M767.55,207.18a1.21,1.21,0,0,0,1.31-.88,1.2,1.2,0,0,0-1-1.18,1.18,1.18,0,0,0-1.3.87,1.2,1.2,0,0,0,1,1.19"/><path id="path68" class="cls-6" d="M704.13,166.58a1.18,1.18,0,0,1,1.45.59.83.83,0,0,0,0-.15,1.19,1.19,0,1,0-2.24.79.53.53,0,0,0,.06.14,1.18,1.18,0,0,1,.77-1.37"/><path id="path70" class="cls-4" d="M704.81,168.54a1,1,0,1,0-1.45-.59,1.18,1.18,0,0,0,1.45.59"/></g></svg>